<svg width="124" height="125" viewBox="0 0 124 125" fill="none" xmlns="http://www.w3.org/2000/svg">
<circle cx="61.9994" cy="62.9862" r="62.0004" fill="white"/>
<mask id="mask0" mask-type="alpha" maskUnits="userSpaceOnUse" x="-1" y="0" width="125" height="125">
<circle cx="61.9994" cy="62.9862" r="62.0004" fill="white"/>
</mask>
<g mask="url(#mask0)">
<path d="M140 88.8663L82.1319 42.8706L79.9361 43.6025L83.6523 64.4849L81.8541 65.9605L74.4416 82.9064L49 86.75L100 123.5L125.794 112.063L140 88.8663Z" fill="#F5F5F5"/>
<path d="M59.6362 53.6809C58.9615 54.1982 58.5897 54.9814 58.462 55.6607C58.2853 56.5978 58.5088 57.4683 59.0316 57.8781C59.2158 58.0225 59.4187 58.1644 59.6362 58.3039V53.6809Z" fill="#20C945"/>
<path d="M61.9994 90.6185C77.2359 90.6185 89.6317 78.2227 89.6317 62.9862C89.6317 47.7498 77.2359 35.354 61.9994 35.354C46.763 35.354 34.3672 47.7498 34.3672 62.9862C34.3672 78.2227 46.763 90.6185 61.9994 90.6185ZM53.6348 72.0207C54.3029 70.9994 55.6732 70.712 56.6949 71.3809C57.8889 72.1619 58.6371 72.5006 59.6363 72.641V63.3055C58.2244 62.6584 57.1691 62.0357 56.3032 61.3564C54.4686 59.9175 53.6311 57.4213 54.1172 54.8414C54.6468 52.03 56.6039 49.7931 59.2241 49.0039C59.3629 48.9621 59.5001 48.9239 59.6363 48.8878V47.5122C59.6363 46.2915 60.6262 45.3016 61.8469 45.3016C63.0676 45.3016 64.0575 46.2915 64.0575 47.5122V48.6456C66.2037 49.0172 67.7206 50.0738 68.4554 50.9171C69.2574 51.8376 69.161 53.2341 68.2406 54.0358C67.3249 54.8334 65.9387 54.7428 65.1345 53.8358C65.0841 53.7847 64.7328 53.4465 64.0575 53.1974V60.3402C64.4499 60.4859 64.842 60.6271 65.2269 60.7633C69.1126 62.1369 71.2739 65.734 70.605 69.7141C70.0848 72.8079 67.7306 75.9453 64.0575 76.8771V78.4603C64.0575 79.681 63.0676 80.6709 61.8469 80.6709C60.6262 80.6709 59.6363 79.681 59.6363 78.4603V77.0893C57.8515 76.935 56.372 76.4529 54.2746 75.0808C53.2528 74.4123 52.9666 73.0424 53.6348 72.0207Z" fill="#20C945"/>
<path d="M66.2452 68.9814C66.3905 68.1173 66.4499 66.0581 64.0576 65.0508V72.1514C65.3011 71.4391 66.0438 70.1795 66.2452 68.9814Z" fill="#20C945"/>
</g>
</svg>
