<?xml version="1.0" standalone="no"?>
<!DOCTYPE svg PUBLIC "-//W3C//DTD SVG 20010904//EN"
 "http://www.w3.org/TR/2001/REC-SVG-20010904/DTD/svg10.dtd">
<svg version="1.0" xmlns="http://www.w3.org/2000/svg"
 width="1397.000000pt" height="2885.000000pt" viewBox="0 0 1397.000000 2885.000000"
 preserveAspectRatio="xMidYMid meet">

<g transform="translate(0.000000,2885.000000) scale(0.100000,-0.100000)"
fill="#000000" stroke="none">
<path d="M2775 27669 c-473 -27 -744 -88 -1036 -234 -391 -196 -668 -473 -864
-864 -149 -299 -206 -557 -235 -1061 -13 -231 -13 -520 0 -520 6 0 10 41 10
103 1 260 23 627 51 822 39 273 93 447 210 675 189 366 455 629 829 818 331
167 603 221 1250 246 74 3 1866 6 3983 6 2558 0 3847 3 3847 10 0 12 -7831 11
-8045 -1z"/>
<path d="M11000 27670 c0 -5 21 -10 48 -10 184 -1 584 -25 742 -46 280 -36
453 -88 685 -204 385 -193 649 -456 843 -840 114 -225 170 -414 206 -690 23
-178 46 -563 46 -792 0 -59 4 -98 10 -98 13 0 13 289 0 520 -29 504 -86 762
-235 1061 -196 391 -473 668 -864 864 -299 149 -557 206 -1061 235 -229 13
-420 13 -420 0z"/>
<path d="M6755 27499 c-2238 -4 -4090 -9 -4115 -13 -25 -4 -101 -14 -170 -22
-251 -30 -422 -76 -608 -165 -387 -183 -674 -469 -852 -851 -112 -241 -167
-504 -189 -898 -11 -202 -11 -22119 0 -22315 31 -554 130 -878 368 -1205 171
-236 371 -402 646 -535 276 -134 485 -179 950 -205 243 -14 8446 -14 8674 0
455 28 686 80 951 215 378 194 618 444 806 840 104 220 162 485 179 820 4 66
8 138 10 160 6 54 6 22066 0 22135 -2 30 -7 105 -10 165 -13 247 -60 506 -122
675 -164 442 -459 774 -868 977 -338 169 -627 215 -1400 226 -99 1 -2011 -1
-4250 -4z m-3202 -456 c-139 -2 -367 -2 -505 0 -139 1 -26 2 252 2 278 0 391
-1 253 -2z m7620 0 c-139 -2 -367 -2 -505 0 -139 1 -26 2 252 2 278 0 391 -1
253 -2z m1787 -12668 l0 -10125 -5850 0 -5850 0 0 10125 0 10125 5850 0 5850
0 0 -10125z"/>
<path d="M1884 24420 c-74 -17 -149 -88 -174 -164 -8 -24 -10 -63 -7 -100 l6
-61 -105 -106 c-57 -58 -104 -112 -104 -120 0 -8 63 -77 140 -154 120 -119
143 -138 158 -129 9 6 17 18 17 27 0 9 -51 67 -112 130 -62 63 -113 120 -113
126 0 15 142 151 158 151 7 0 23 -9 35 -21 44 -42 80 -53 182 -59 l100 -5 3
-60 c5 -111 49 -165 134 -165 55 0 102 20 119 51 15 29 1 38 -20 13 -25 -31
-55 -44 -99 -44 -71 0 -122 81 -104 166 l8 39 149 0 150 0 3 -112 c3 -131 22
-156 22 -29 0 97 20 136 70 136 55 0 69 -25 72 -125 2 -54 7 -89 13 -87 16 4
6 194 -12 214 -14 15 -10 22 39 70 72 70 98 142 80 226 -20 95 -77 158 -171
190 -38 13 -584 15 -637 2z m135 -117 c29 -28 35 -61 16 -89 -15 -23 -15 -27
-1 -43 22 -24 20 -84 -3 -105 -41 -37 -138 -28 -161 15 -25 45 1 66 35 29 14
-15 29 -20 54 -18 33 3 36 6 36 33 0 27 -4 31 -35 35 -45 6 -54 36 -13 46 31
8 43 20 43 47 0 22 -68 25 -76 2 -7 -16 -54 -21 -54 -6 0 5 12 23 26 40 22 26
33 31 70 31 29 0 51 -6 63 -17z m220 7 c10 -5 24 -23 31 -40 11 -25 10 -34 -5
-56 -15 -23 -15 -27 -1 -43 9 -10 16 -34 16 -54 0 -31 -5 -41 -32 -58 -92 -57
-216 34 -146 108 20 21 20 24 5 41 -41 46 2 112 73 112 23 0 49 -4 59 -10z
m238 -12 c27 -25 30 -64 7 -89 -14 -16 -14 -19 5 -38 52 -52 2 -131 -82 -131
-72 0 -125 83 -81 127 9 9 12 22 8 32 -31 71 0 121 75 121 32 0 51 -6 68 -22z"/>
<path d="M2158 24269 c-37 -21 -7 -66 36 -55 25 6 38 26 28 43 -11 17 -46 23
-64 12z"/>
<path d="M2140 24145 c-22 -27 0 -50 46 -50 37 0 39 2 39 30 0 27 -3 30 -36
33 -24 2 -40 -2 -49 -13z"/>
<path d="M2379 24264 c-26 -31 25 -70 56 -44 20 16 19 46 -1 54 -25 10 -41 7
-55 -10z"/>
<path d="M2364 24136 c-9 -36 2 -46 46 -46 30 0 40 4 45 20 9 29 -12 50 -51
50 -27 0 -35 -5 -40 -24z"/>
<path d="M8309 24351 c-21 -16 -25 -31 -29 -98 -3 -43 -4 -144 -2 -225 3 -142
4 -147 29 -172 l26 -26 224 0 224 0 24 26 c25 27 25 30 25 207 0 99 -3 178 -6
175 -3 -4 -8 -82 -10 -175 -7 -224 4 -213 -214 -213 -87 0 -161 4 -164 9 -4 5
-18 5 -34 -1 -24 -10 -33 -8 -61 13 -18 13 -27 25 -22 27 16 5 13 28 -4 42
-18 15 -22 175 -4 186 8 5 8 9 -1 14 -14 8 -20 135 -9 167 5 13 23 32 41 43
28 17 30 20 12 20 -12 0 -32 -9 -45 -19z"/>
<path d="M8755 24360 c3 -5 12 -10 19 -10 12 0 32 -33 49 -80 3 -8 6 0 6 18 1
22 -7 41 -24 57 -23 24 -63 35 -50 15z"/>
<path d="M12155 24359 c-138 -32 -290 -153 -344 -274 -28 -63 -51 -162 -51
-220 1 -83 33 -225 51 -225 10 0 79 39 100 57 12 10 17 33 18 88 3 138 26 270
54 307 12 15 67 50 207 131 76 44 152 78 168 75 13 -3 17 -14 16 -50 0 -57
-16 -77 -99 -123 -71 -40 -108 -77 -124 -124 -13 -41 -15 -257 -1 -266 5 -3
39 12 76 35 36 22 77 40 90 40 22 0 24 -4 24 -52 -1 -65 -12 -80 -105 -134
-38 -23 -97 -58 -130 -78 -33 -19 -79 -46 -102 -58 -24 -12 -43 -26 -43 -30 0
-14 87 -65 138 -81 198 -65 390 -22 538 121 109 104 168 283 143 430 -7 41
-16 71 -22 69 -33 -11 -58 -77 -104 -271 -24 -104 -52 -127 -325 -277 -26 -14
-54 -32 -62 -38 -8 -7 -25 -11 -38 -9 -21 3 -23 8 -22 52 1 56 6 62 124 136
40 25 78 57 86 72 10 19 14 66 14 163 0 74 -2 135 -5 135 -10 0 -89 -42 -117
-61 -42 -30 -64 -25 -71 15 -6 36 0 69 18 97 9 14 131 89 309 189 l59 33 -34
29 c-44 37 -123 76 -190 93 -60 16 -182 18 -244 4z"/>
<path d="M6173 24278 c-11 -14 -17 -300 -8 -329 6 -18 44 -27 46 -11 6 38 3
312 -3 330 -8 25 -21 28 -35 10z"/>
<path d="M5405 24266 c-39 -17 -55 -37 -61 -78 -5 -27 -1 -41 21 -66 15 -18
31 -32 37 -32 5 0 35 -7 65 -16 40 -12 57 -22 66 -41 10 -22 8 -28 -12 -44
-33 -27 -83 -24 -119 6 -49 41 -81 32 -56 -16 17 -33 70 -59 121 -59 66 0 123
47 123 103 0 55 -34 86 -109 101 -51 9 -81 32 -81 61 0 18 8 28 26 35 40 15
60 12 92 -15 35 -29 62 -32 62 -7 0 35 -71 83 -123 82 -12 -1 -36 -7 -52 -14z"/>
<path d="M6670 24100 l0 -170 105 0 c96 0 105 2 105 19 0 25 -19 31 -96 31
l-65 0 3 48 3 47 70 5 c62 4 70 7 70 25 0 18 -6 20 -52 17 -81 -6 -93 2 -93
53 l0 44 78 3 c71 3 77 5 80 26 3 22 2 22 -102 22 l-106 0 0 -170z"/>
<path d="M5705 24182 c-41 -14 -56 -29 -71 -71 -37 -107 33 -203 133 -181 35
8 83 49 83 71 0 17 -45 9 -63 -12 -13 -14 -27 -19 -50 -17 -26 2 -36 10 -51
41 -45 93 50 179 113 103 30 -35 61 -11 36 28 -25 37 -81 53 -130 38z"/>
<path d="M5941 24178 c-29 -15 -48 -44 -38 -55 4 -4 22 -1 40 6 44 18 78 16
94 -5 21 -29 10 -38 -53 -47 -70 -10 -97 -32 -96 -77 1 -38 13 -54 51 -70 24
-10 36 -9 66 6 29 13 39 14 45 5 4 -7 16 -11 26 -9 17 3 19 14 22 100 2 88 1
98 -20 123 -28 32 -98 44 -137 23z m102 -166 c-9 -26 -34 -42 -65 -42 -58 0
-47 61 13 71 40 6 60 -5 52 -29z"/>
<path d="M6334 24181 c-53 -23 -83 -101 -64 -169 12 -47 37 -71 83 -82 41 -9
102 9 122 37 22 29 0 41 -36 20 -17 -9 -43 -17 -58 -17 -32 0 -64 30 -59 56 3
15 15 18 83 18 l80 1 3 37 c6 70 -85 128 -154 99z m94 -59 c21 -27 8 -37 -49
-37 -47 0 -54 3 -54 20 0 41 74 53 103 17z"/>
<path d="M6991 24180 c-32 -14 -50 -39 -51 -71 0 -34 24 -55 82 -69 56 -14 76
-33 59 -54 -20 -23 -48 -25 -87 -4 -27 14 -40 16 -48 8 -17 -17 5 -42 51 -59
36 -13 46 -13 79 0 49 19 72 57 58 96 -8 23 -20 31 -69 47 -63 20 -77 30 -68
53 8 22 51 27 78 9 30 -20 55 -21 55 -3 0 39 -88 68 -139 47z"/>
<path d="M7254 24184 c-63 -14 -97 -130 -59 -200 25 -47 82 -69 136 -52 39 11
69 40 69 65 0 20 -35 15 -55 -7 -26 -29 -69 -26 -95 8 -17 21 -21 36 -17 71 3
23 12 50 20 58 22 22 64 19 92 -7 14 -13 31 -20 39 -17 22 9 20 21 -6 51 -23
26 -79 39 -124 30z"/>
<path d="M7533 24175 c-14 -10 -24 -11 -28 -5 -3 5 -17 10 -31 10 l-25 0 3
-122 c3 -119 4 -123 26 -126 21 -3 22 -1 22 80 0 96 10 116 60 127 26 5 35 12
35 26 0 25 -33 31 -62 10z"/>
<path d="M7674 24175 c-63 -32 -83 -142 -36 -204 40 -55 133 -59 181 -8 46 50
35 171 -19 204 -33 22 -92 25 -126 8z m87 -35 c17 0 41 -72 35 -104 -18 -88
-115 -89 -131 0 -11 61 32 124 73 109 8 -3 18 -5 23 -5z"/>
<path d="M7870 24173 c1 -15 58 -222 65 -233 3 -5 17 -10 29 -10 21 0 26 9 47
85 13 47 27 85 31 85 6 0 26 -60 44 -133 12 -53 61 -47 76 9 5 16 17 61 27 99
11 39 22 78 26 88 7 16 3 18 -20 15 -24 -3 -30 -10 -41 -53 -7 -27 -13 -60
-14 -71 0 -12 -7 -27 -15 -34 -12 -10 -15 -7 -21 17 -3 15 -13 54 -21 86 -15
53 -18 58 -41 55 -26 -3 -30 -10 -62 -127 -6 -24 -15 -40 -20 -35 -4 5 -16 44
-25 87 -15 70 -19 77 -41 77 -13 0 -24 -3 -24 -7z"/>
<path d="M8430 24140 c8 -5 20 -10 25 -10 6 0 3 5 -5 10 -8 5 -19 10 -25 10
-5 0 -3 -5 5 -10z"/>
<path d="M8652 24100 c-12 -22 -18 -40 -12 -40 5 0 10 6 10 13 0 7 9 23 20 35
21 22 25 32 13 32 -5 0 -18 -18 -31 -40z"/>
<path d="M8535 24100 c-3 -5 -1 -10 4 -10 6 0 11 5 11 10 0 6 -2 10 -4 10 -3
0 -8 -4 -11 -10z"/>
<path d="M8359 24074 c12 -15 21 -37 21 -50 0 -13 4 -24 9 -24 22 0 19 -34 -5
-66 -33 -42 -26 -43 20 -3 l35 32 -22 41 c-25 47 -62 96 -72 96 -3 0 3 -12 14
-26z"/>
<path d="M8600 24004 c0 -8 5 -12 10 -9 6 3 10 10 10 16 0 5 -4 9 -10 9 -5 0
-10 -7 -10 -16z"/>
<path d="M2940 23986 c0 -18 -7 -29 -22 -35 l-22 -8 22 -12 c20 -11 22 -19 22
-100 0 -72 3 -91 18 -104 20 -19 62 -23 62 -7 0 6 -6 10 -14 10 -34 0 -46 30
-46 111 0 55 4 81 13 83 49 15 53 19 22 25 -23 5 -30 12 -30 30 0 14 -6 26
-13 29 -7 2 -12 -6 -12 -22z"/>
<path d="M8552 23940 c-14 -23 -16 -50 -3 -50 13 0 39 43 34 58 -7 17 -16 15
-31 -8z"/>
<path d="M2689 23931 c-30 -24 -19 -39 13 -17 48 34 118 10 118 -41 0 -25 -18
-33 -74 -33 -81 0 -123 -62 -73 -108 31 -29 83 -29 114 0 l24 22 6 -22 c3 -12
10 -22 15 -22 6 0 8 41 6 105 -3 90 -6 106 -23 119 -29 22 -98 20 -126 -3z
m129 -127 c2 -11 -7 -32 -18 -47 -16 -21 -30 -27 -59 -27 -42 0 -61 14 -61 47
0 30 44 53 95 50 32 -2 41 -6 43 -23z"/>
<path d="M3102 23934 c-25 -17 -30 -65 -8 -83 7 -6 37 -19 67 -29 65 -23 81
-43 55 -71 -23 -25 -87 -29 -106 -6 -16 19 -41 20 -34 1 8 -20 49 -36 93 -36
42 0 81 32 81 67 0 25 -44 63 -72 63 -33 0 -77 30 -78 52 0 4 7 14 16 22 20
21 73 20 96 -1 25 -22 36 -8 13 17 -22 25 -90 27 -123 4z"/>
<path d="M8450 23933 c0 -14 19 -38 25 -32 8 8 -5 39 -16 39 -5 0 -9 -3 -9 -7z"/>
<path d="M8690 23920 c0 -5 5 -10 11 -10 5 0 7 5 4 10 -3 6 -8 10 -11 10 -2 0
-4 -4 -4 -10z"/>
<path d="M8500 23880 c0 -5 5 -10 10 -10 6 0 10 5 10 10 0 6 -4 10 -10 10 -5
0 -10 -4 -10 -10z"/>
<path d="M7297 23654 c-12 -12 3 -22 24 -17 16 4 17 8 7 14 -16 10 -23 11 -31
3z"/>
<path d="M6938 23643 c6 -2 18 -2 25 0 6 3 1 5 -13 5 -14 0 -19 -2 -12 -5z"/>
<path d="M7133 23643 c9 -2 25 -2 35 0 9 3 1 5 -18 5 -19 0 -27 -2 -17 -5z"/>
<path d="M6860 23615 c0 -8 5 -15 10 -15 6 0 10 7 10 15 0 8 -4 15 -10 15 -5
0 -10 -7 -10 -15z"/>
<path d="M7302 23590 c0 -19 2 -27 5 -17 2 9 2 25 0 35 -3 9 -5 1 -5 -18z"/>
<path d="M7003 23565 c0 -22 2 -30 4 -17 2 12 2 30 0 40 -3 9 -5 -1 -4 -23z"/>
<path d="M7212 23573 c-1 -17 -5 -40 -8 -50 -5 -17 -5 -17 6 0 6 9 9 32 7 50
l-4 32 -1 -32z"/>
<path d="M7301 23524 c0 -11 3 -14 6 -6 3 7 2 16 -1 19 -3 4 -6 -2 -5 -13z"/>
<path d="M6860 23510 c0 -11 5 -20 10 -20 6 0 10 9 10 20 0 11 -4 20 -10 20
-5 0 -10 -9 -10 -20z"/>
<path d="M7070 23521 c0 -5 5 -13 10 -16 6 -3 10 -2 10 4 0 5 -4 13 -10 16 -5
3 -10 2 -10 -4z"/>
<path d="M6987 23513 c-4 -3 -7 -11 -7 -17 0 -6 5 -5 12 2 6 6 9 14 7 17 -3 3
-9 2 -12 -2z"/>
<path d="M6950 23480 c-9 -6 -10 -10 -3 -10 6 0 15 5 18 10 8 12 4 12 -15 0z"/>
<path d="M7325 23480 c3 -5 10 -10 16 -10 5 0 9 5 9 10 0 6 -7 10 -16 10 -8 0
-12 -4 -9 -10z"/>
<path d="M4930 21265 c-18 -21 -5 -45 25 -45 14 0 28 7 31 15 7 17 -12 45 -31
45 -7 0 -18 -7 -25 -15z"/>
<path d="M2707 21263 c-10 -9 -9 -341 1 -347 5 -3 18 -3 30 1 19 5 22 13 24
95 3 78 6 93 23 104 16 11 25 11 45 1 23 -12 25 -18 28 -99 3 -90 14 -114 47
-102 15 6 16 20 13 111 -3 97 -5 106 -28 125 -24 20 -72 21 -112 4 -16 -7 -18
-2 -18 37 0 25 -3 52 -6 61 -6 16 -35 22 -47 9z"/>
<path d="M4640 21095 c0 -150 2 -176 16 -182 26 -10 37 13 35 77 -2 103 38
159 88 123 18 -12 21 -25 21 -97 0 -87 12 -115 45 -102 12 4 15 25 15 106 0
94 -2 103 -25 125 -32 33 -85 37 -116 9 -23 -20 -29 -8 -29 58 0 55 -1 58 -25
58 l-25 0 0 -175z"/>
<path d="M5410 21096 c0 -152 2 -175 16 -180 10 -4 25 1 35 10 16 15 20 15 41
0 29 -21 63 -20 98 1 38 22 50 52 50 122 0 51 -4 63 -29 90 -23 25 -37 31 -69
31 -23 0 -45 -6 -52 -15 -22 -26 -30 -17 -30 34 0 65 -7 81 -36 81 l-24 0 0
-174z m162 7 c24 -21 25 -99 1 -125 -23 -25 -68 -23 -87 4 -9 12 -16 38 -16
58 0 69 57 104 102 63z"/>
<path d="M6457 21264 c-4 -4 -7 -34 -7 -66 0 -32 -1 -58 -3 -58 -1 0 -20 9
-41 20 -33 16 -43 17 -69 7 -50 -21 -72 -59 -72 -127 0 -44 6 -66 21 -87 28
-37 81 -51 121 -31 25 12 32 13 50 1 11 -7 28 -11 37 -7 15 6 16 25 14 178 -3
163 -4 171 -23 174 -12 2 -24 0 -28 -4z m-33 -157 c28 -21 32 -87 6 -119 -27
-36 -62 -36 -89 -2 -56 71 13 172 83 121z"/>
<path d="M6900 21245 c-33 -11 -74 -60 -64 -77 9 -15 41 -8 59 12 23 25 71 26
83 3 13 -25 5 -43 -34 -79 -43 -40 -47 -84 -9 -84 17 0 25 6 25 17 0 10 18 33
40 53 52 45 61 86 28 124 -29 34 -81 47 -128 31z"/>
<path d="M2220 21244 c0 -3 15 -60 34 -127 19 -67 37 -136 41 -154 8 -39 28
-57 53 -49 15 5 26 31 48 109 15 56 31 106 34 110 4 4 12 -5 18 -20 16 -45 52
-168 52 -180 0 -15 28 -25 50 -18 10 3 20 16 23 28 2 12 19 76 37 142 48 178
46 165 17 165 -33 0 -42 -17 -62 -116 -28 -139 -36 -146 -58 -51 -39 159 -40
162 -69 165 -29 4 -29 3 -68 -145 -12 -46 -25 -83 -29 -83 -4 0 -18 46 -30
103 -13 56 -25 108 -27 115 -3 12 -64 18 -64 6z"/>
<path d="M3260 21205 c0 -14 -8 -29 -20 -35 -11 -6 -20 -18 -20 -26 0 -9 9
-18 20 -21 18 -5 20 -14 20 -87 0 -97 10 -115 65 -119 30 -1 40 2 43 15 2 12
-5 21 -22 28 -25 9 -26 13 -26 84 0 70 1 75 23 78 14 2 22 10 22 23 0 13 -8
21 -22 23 -18 3 -23 10 -23 33 0 26 -3 29 -30 29 -25 0 -30 -4 -30 -25z"/>
<path d="M4487 21223 c-4 -3 -7 -16 -7 -29 0 -13 -8 -24 -20 -27 -11 -3 -20
-12 -20 -20 0 -9 9 -19 20 -22 18 -6 20 -15 20 -78 0 -85 14 -118 55 -129 60
-16 90 19 38 44 -26 12 -28 18 -31 86 -3 65 -1 72 16 72 24 0 49 27 36 39 -5
5 -18 11 -29 13 -13 2 -21 12 -23 31 -3 20 -9 27 -26 27 -12 0 -26 -3 -29 -7z"/>
<path d="M6000 21201 c0 -20 -6 -30 -20 -34 -11 -3 -20 -13 -20 -22 0 -9 9
-19 20 -22 18 -5 20 -14 20 -87 1 -48 6 -87 13 -97 14 -19 59 -31 81 -23 24 9
20 42 -6 46 -21 3 -23 9 -26 80 -3 73 -2 77 20 80 31 4 32 42 1 46 -18 3 -23
10 -23 33 0 26 -3 29 -30 29 -26 0 -30 -3 -30 -29z"/>
<path d="M3610 21168 c-19 -6 -43 -17 -52 -25 -46 -41 -47 -146 -2 -198 22
-26 31 -29 84 -30 51 0 63 4 86 27 17 16 24 32 21 42 -9 22 -34 20 -54 -4 -24
-28 -77 -27 -97 2 -25 35 -20 94 9 123 30 31 43 31 84 1 53 -39 85 -12 38 32
-32 30 -75 41 -117 30z"/>
<path d="M4162 21165 c-25 -11 -37 -12 -51 -3 -10 6 -26 8 -35 5 -24 -9 -24
-242 0 -251 32 -12 44 13 44 94 0 72 2 80 25 98 31 25 63 18 76 -15 5 -13 9
-57 9 -98 0 -59 3 -74 17 -79 29 -12 37 11 36 109 -2 102 -7 116 -54 141 -33
17 -26 17 -67 -1z"/>
<path d="M5103 21169 c-32 -9 -73 -51 -73 -75 0 -24 45 -61 90 -74 54 -14 71
-27 64 -45 -9 -23 -63 -29 -84 -10 -20 18 -61 17 -67 -2 -7 -20 58 -53 102
-53 53 0 86 18 101 57 12 27 11 34 -6 55 -16 21 -40 32 -118 54 -20 6 -10 48
13 53 10 2 34 -5 52 -14 41 -22 69 -14 53 15 -18 33 -80 52 -127 39z"/>
<path d="M3003 21146 c-22 -20 -25 -27 -16 -37 10 -10 20 -9 48 4 46 22 58 21
80 -3 24 -26 14 -34 -58 -48 -84 -17 -112 -54 -82 -111 18 -36 69 -50 114 -31
23 9 33 9 50 -1 32 -21 46 1 47 79 3 131 -22 172 -108 172 -35 0 -54 -6 -75
-24z m117 -140 c0 -40 -58 -67 -85 -39 -24 23 -18 42 18 52 54 16 67 13 67
-13z"/>
<path d="M3826 21149 c-50 -39 -25 -64 34 -34 40 21 80 10 80 -21 0 -19 -7
-24 -37 -29 -80 -13 -92 -17 -104 -31 -15 -18 -14 -81 2 -100 18 -22 74 -28
107 -12 24 13 31 13 50 0 35 -23 42 -7 42 99 0 93 -2 102 -25 124 -32 33 -110
35 -149 4z m114 -143 c0 -26 -13 -40 -46 -50 -23 -7 -54 15 -54 38 0 16 37 34
73 35 22 1 27 -3 27 -23z"/>
<path d="M4937 21164 c-10 -10 -9 -242 1 -248 5 -3 18 -2 31 1 21 5 22 9 19
127 -3 113 -4 121 -23 124 -12 2 -24 0 -28 -4z"/>
<path d="M5735 21137 c-31 -31 -35 -41 -35 -88 0 -64 26 -114 68 -130 43 -17
110 -5 141 25 23 24 26 34 26 96 0 62 -3 72 -27 96 -21 21 -39 28 -82 32 -53
4 -57 3 -91 -31z m108 -18 c31 -17 37 -28 37 -74 0 -74 -55 -111 -102 -68 -27
24 -25 100 4 130 25 26 31 27 61 12z"/>
<path d="M6623 21160 c-64 -26 -77 -161 -20 -217 53 -53 159 -36 192 30 33 66
6 166 -51 187 -31 12 -91 12 -121 0z m107 -57 c17 -22 21 -37 17 -70 -6 -55
-21 -73 -63 -73 -27 0 -36 6 -49 30 -22 43 -19 83 10 114 31 33 58 33 85 -1z"/>
<path d="M6913 20973 c-16 -6 -17 -49 -2 -58 5 -4 21 -4 35 -1 17 5 24 13 24
30 0 29 -25 42 -57 29z"/>
<path d="M3045 20608 c-3 -8 -4 -88 -3 -178 3 -139 5 -165 18 -165 13 0 15 26
15 174 0 131 -3 175 -12 178 -7 3 -15 -2 -18 -9z"/>
<path d="M3526 20604 c-9 -23 19 -53 35 -37 15 15 7 47 -12 51 -9 2 -19 -5
-23 -14z"/>
<path d="M6317 20614 c-4 -4 -7 -85 -7 -181 0 -149 2 -173 15 -173 9 0 18 7
22 15 5 14 8 14 29 0 40 -26 92 -19 125 16 26 28 29 38 29 98 0 36 -6 73 -13
81 -37 47 -96 63 -133 35 -10 -8 -22 -15 -26 -15 -4 0 -8 28 -10 62 -3 57 -14
79 -31 62z m153 -154 c15 -15 20 -33 20 -72 0 -64 -19 -88 -70 -88 -51 0 -65
20 -65 92 0 47 4 63 19 74 28 20 73 17 96 -6z"/>
<path d="M7320 20573 c-1 -27 -2 -106 -3 -178 -2 -124 -1 -130 18 -130 18 0
20 8 23 90 3 99 16 125 61 125 50 0 56 -12 61 -117 4 -83 8 -98 23 -101 15 -3
17 7 17 100 -1 107 -6 125 -47 146 -30 16 -64 15 -91 -4 -24 -17 -25 -16 -22
38 2 48 -8 78 -26 78 -10 0 -14 -13 -14 -47z"/>
<path d="M9073 20604 c-3 -8 1 -22 9 -30 13 -13 16 -13 27 0 7 9 11 23 7 31
-7 20 -35 19 -43 -1z"/>
<path d="M9359 20603 c0 -10 0 -39 1 -65 2 -52 -9 -60 -44 -33 -34 26 -75 18
-112 -19 -31 -31 -34 -40 -34 -91 0 -61 11 -91 44 -117 26 -22 79 -23 111 -2
21 14 24 14 33 -2 6 -10 16 -15 26 -11 14 6 16 28 16 170 0 113 -4 167 -12
175 -17 17 -28 15 -29 -5z m-39 -133 c11 -6 24 -29 30 -51 9 -34 8 -46 -7 -77
-16 -33 -23 -37 -60 -40 -52 -4 -73 22 -73 88 0 73 52 111 110 80z"/>
<path d="M2295 20596 c-17 -7 -39 -26 -49 -41 -16 -24 -17 -34 -7 -65 12 -40
38 -58 116 -79 49 -13 59 -20 73 -47 30 -57 -104 -92 -146 -39 -22 28 -52 33
-52 9 0 -8 13 -29 29 -45 26 -26 36 -29 91 -29 57 0 65 3 96 34 66 66 27 138
-85 160 -50 9 -81 32 -81 60 0 30 19 45 63 53 28 4 40 0 71 -28 30 -25 39 -30
46 -19 10 16 0 38 -27 63 -27 23 -100 31 -138 13z"/>
<path d="M6880 20556 c0 -14 -10 -32 -22 -41 l-23 -16 23 -16 c20 -14 22 -23
22 -104 0 -79 2 -89 22 -103 29 -20 64 -20 72 -1 5 15 1 18 -41 31 -9 2 -13
29 -13 89 0 85 0 85 26 85 33 0 30 33 -4 38 -17 3 -22 10 -22 33 0 22 -5 29
-20 29 -15 0 -20 -7 -20 -24z"/>
<path d="M7170 20556 c0 -13 -10 -31 -22 -40 l-23 -16 23 -16 c20 -15 22 -25
22 -100 0 -93 16 -124 65 -124 18 0 25 5 25 20 0 13 -7 20 -20 20 -23 0 -33
39 -28 120 3 49 6 55 26 58 30 4 25 36 -6 40 -17 3 -22 10 -22 33 0 22 -5 29
-20 29 -14 0 -20 -7 -20 -24z"/>
<path d="M7850 20555 c0 -14 -8 -29 -20 -35 -23 -12 -27 -40 -6 -40 20 0 26
-23 26 -106 0 -83 18 -114 65 -114 18 0 25 5 25 20 0 13 -7 20 -19 20 -25 0
-31 19 -31 101 0 66 1 70 26 79 30 12 27 34 -4 38 -17 3 -22 10 -22 33 0 22
-5 29 -20 29 -15 0 -20 -7 -20 -25z"/>
<path d="M2584 20510 c-42 -17 -64 -58 -64 -122 0 -55 3 -63 34 -94 28 -28 41
-34 79 -34 33 0 51 6 71 25 28 26 35 55 13 55 -8 0 -22 -9 -32 -20 -21 -24
-86 -27 -104 -6 -16 19 -25 79 -17 110 14 56 71 74 119 36 52 -41 67 -9 16 34
-31 27 -74 33 -115 16z"/>
<path d="M2819 20505 c-27 -15 -44 -43 -34 -54 4 -3 20 2 36 12 56 32 116 15
107 -30 -2 -14 -17 -20 -63 -25 -67 -9 -95 -31 -95 -78 0 -56 89 -92 132 -53
17 15 19 15 32 -2 25 -35 36 -7 36 94 0 80 -3 103 -18 121 -23 28 -96 37 -133
15z m108 -141 c13 -34 -37 -75 -82 -66 -47 9 -41 65 8 75 47 9 68 6 74 -9z"/>
<path d="M3188 20504 c-74 -40 -78 -178 -6 -228 12 -9 38 -16 58 -16 40 0 100
33 100 55 0 19 -14 19 -45 -1 -37 -24 -96 -15 -115 19 -21 38 -5 47 94 47 l79
0 -6 36 c-15 88 -86 128 -159 88z m88 -32 c6 -4 16 -17 23 -30 15 -29 3 -34
-69 -30 -60 3 -69 14 -40 46 20 22 64 29 86 14z"/>
<path d="M3537 20513 c-4 -3 -7 -62 -7 -130 0 -113 2 -124 18 -121 15 3 17 18
20 108 4 131 -5 170 -31 143z"/>
<path d="M3690 20513 c-32 -12 -50 -37 -50 -68 0 -40 13 -51 81 -73 42 -13 55
-22 57 -39 6 -42 -69 -53 -106 -17 -16 17 -29 18 -38 2 -4 -6 4 -21 20 -35 41
-35 108 -32 147 6 16 16 29 36 29 44 0 28 -35 57 -90 75 -43 13 -56 22 -58 39
-2 16 4 26 22 34 21 10 31 8 62 -10 43 -26 64 -15 37 18 -19 23 -83 37 -113
24z"/>
<path d="M4041 20507 c-28 -14 -48 -43 -38 -53 4 -5 21 0 36 9 38 22 74 21 96
-3 28 -31 13 -47 -51 -52 -47 -4 -62 -10 -81 -32 -30 -35 -29 -61 3 -91 31
-29 78 -33 111 -10 20 14 23 14 31 -1 6 -10 16 -15 26 -11 13 5 16 23 16 102
0 93 -1 98 -29 126 -32 32 -78 38 -120 16z m106 -147 c2 -8 -5 -25 -15 -38
-36 -46 -128 -20 -102 29 16 29 113 37 117 9z"/>
<path d="M4254 20507 c-2 -7 -3 -65 -2 -128 2 -93 6 -114 18 -114 12 0 16 19
20 88 5 82 7 91 33 113 34 29 38 29 68 5 20 -16 23 -29 27 -115 4 -83 7 -97
21 -94 14 3 16 19 16 107 0 100 -1 103 -28 127 -32 27 -73 31 -104 9 -18 -13
-22 -13 -33 0 -15 18 -29 19 -36 2z"/>
<path d="M4695 20511 c-31 -13 -52 -42 -64 -86 -31 -117 77 -205 177 -145 17
11 32 24 32 29 0 19 -21 22 -45 7 -38 -25 -91 -21 -111 9 -29 45 -14 55 82 55
l86 0 -7 36 c-15 83 -80 123 -150 95z m87 -48 c10 -9 18 -24 18 -35 0 -16 -8
-18 -65 -18 -72 0 -83 12 -45 50 24 24 67 26 92 3z"/>
<path d="M4950 20513 c-31 -12 -50 -37 -50 -68 0 -39 13 -51 78 -70 58 -18 80
-38 63 -59 -22 -26 -62 -29 -92 -7 -35 26 -49 26 -49 2 0 -70 167 -65 184 5
11 41 -15 70 -81 91 -44 14 -59 23 -61 39 -2 15 5 24 27 34 26 11 34 9 60 -9
34 -25 51 -27 51 -7 0 37 -80 67 -130 49z"/>
<path d="M5201 20507 c-58 -30 -81 -114 -51 -187 26 -62 125 -82 174 -34 28
29 34 54 13 54 -8 0 -22 -9 -32 -20 -12 -13 -31 -20 -56 -20 -49 0 -69 27 -69
92 0 57 25 88 70 88 17 0 39 -9 50 -20 11 -11 27 -20 35 -20 25 0 17 27 -16
54 -34 29 -79 34 -118 13z"/>
<path d="M5404 20507 c-2 -7 -3 -65 -2 -128 2 -93 6 -114 18 -114 12 0 16 17
18 80 3 94 15 123 56 133 37 10 49 42 15 42 -12 0 -31 -8 -42 -17 -18 -17 -19
-17 -28 0 -12 20 -28 22 -35 4z"/>
<path d="M5608 20504 c-76 -41 -78 -179 -4 -228 32 -20 95 -21 124 0 76 53 67
196 -13 230 -43 18 -73 17 -107 -2z m111 -50 c46 -58 13 -154 -52 -154 -38 0
-50 7 -66 37 -32 62 4 143 64 143 24 0 39 -7 54 -26z"/>
<path d="M5814 20507 c-5 -14 8 -71 48 -205 18 -60 52 -54 69 12 5 20 13 52
18 72 5 20 14 41 19 46 10 10 15 -2 43 -105 25 -90 56 -85 83 13 8 30 22 80
30 110 10 35 12 58 6 64 -17 17 -28 -4 -51 -94 -12 -47 -24 -87 -25 -89 -7 -8
-13 5 -34 84 -22 82 -42 117 -59 100 -5 -6 -19 -44 -31 -85 -32 -112 -30 -108
-40 -90 -4 8 -16 47 -25 85 -19 77 -40 111 -51 82z"/>
<path d="M6645 20511 c-51 -21 -77 -83 -65 -152 21 -116 171 -137 215 -31 48
113 -45 225 -150 183z m102 -58 c10 -14 18 -43 18 -63 0 -20 -8 -49 -18 -63
-23 -36 -88 -39 -111 -5 -23 33 -21 109 4 136 30 32 84 30 107 -5z"/>
<path d="M7606 20499 c-25 -20 -35 -49 -17 -49 6 0 25 9 43 19 35 20 63 16 87
-13 23 -28 6 -43 -53 -48 -95 -8 -135 -70 -81 -123 28 -29 80 -33 111 -10 25
19 34 19 34 -1 0 -9 7 -14 18 -12 15 3 17 17 20 101 3 97 2 98 -27 127 -37 37
-94 41 -135 9z m121 -135 c9 -25 -35 -64 -73 -64 -63 0 -68 63 -6 73 56 8 73
7 79 -9z"/>
<path d="M8124 20507 c-2 -7 -3 -82 -2 -167 3 -138 5 -155 21 -158 14 -3 17 5
17 52 0 59 5 65 36 41 10 -8 35 -15 55 -15 84 0 131 130 76 211 -30 45 -76 58
-124 35 -33 -16 -37 -16 -45 -2 -11 19 -27 21 -34 3z m157 -46 c32 -32 39 -83
18 -124 -16 -30 -28 -37 -67 -37 -26 0 -36 6 -52 33 -33 54 -20 115 31 143 33
18 37 18 70 -15z"/>
<path d="M8405 20508 c-3 -8 -4 -66 -3 -129 2 -93 6 -114 18 -114 12 0 16 18
18 90 2 77 5 92 23 108 12 9 29 17 40 17 23 0 35 18 20 33 -8 8 -20 8 -46 -2
-28 -10 -39 -10 -50 -1 -12 10 -16 9 -20 -2z"/>
<path d="M8601 20494 c-87 -73 -45 -234 61 -234 79 0 121 46 120 131 -1 60
-19 95 -57 113 -48 23 -89 20 -124 -10z m119 -34 c25 -25 27 -105 4 -138 -13
-19 -24 -22 -57 -20 -37 3 -44 7 -60 40 -32 66 1 138 63 138 17 0 39 -9 50
-20z"/>
<path d="M8820 20502 c0 -20 49 -161 72 -209 8 -16 21 -28 32 -28 16 0 28 24
63 119 27 72 41 122 35 128 -16 16 -37 -16 -66 -105 -15 -48 -31 -87 -34 -87
-4 0 -20 40 -36 88 -15 48 -33 93 -38 100 -15 18 -28 15 -28 -6z"/>
<path d="M9087 20513 c-4 -3 -7 -62 -7 -130 0 -113 2 -124 18 -121 15 3 17 18
20 108 4 131 -5 170 -31 143z"/>
<path d="M9508 20505 c-38 -21 -58 -64 -58 -124 0 -45 4 -55 36 -87 34 -34 40
-36 86 -32 48 5 88 29 88 55 0 17 -20 16 -44 -2 -30 -22 -82 -19 -106 7 -39
42 -24 53 74 56 l88 3 -6 42 c-4 23 -17 52 -30 65 -29 30 -91 38 -128 17z m94
-37 c9 -7 18 -22 20 -33 3 -18 -3 -20 -61 -20 -71 0 -82 10 -51 43 23 24 67
29 92 10z"/>
<path d="M9765 20508 c-47 -25 -59 -72 -27 -101 10 -10 43 -25 73 -35 54 -19
67 -35 50 -60 -12 -20 -77 -19 -99 1 -24 22 -42 22 -42 -2 0 -51 116 -70 164
-26 25 23 33 58 18 81 -10 16 -68 44 -90 44 -10 0 -27 9 -38 21 -19 21 -18 21
5 40 29 24 42 24 74 -1 30 -24 47 -26 47 -6 0 41 -88 70 -135 44z"/>
<path d="M10140 20513 c-32 -12 -50 -37 -50 -68 0 -39 13 -51 78 -70 62 -19
82 -39 59 -62 -21 -22 -72 -21 -96 1 -21 19 -41 14 -41 -8 0 -37 91 -59 143
-35 29 13 50 49 45 75 -4 22 -63 64 -92 64 -30 1 -60 26 -53 45 4 8 18 20 32
27 22 10 30 8 55 -10 33 -25 50 -28 50 -9 0 35 -86 68 -130 50z"/>
<path d="M10381 20507 c-40 -20 -62 -58 -63 -110 -1 -86 40 -137 114 -137 34
0 98 32 98 49 0 19 -21 22 -45 7 -38 -25 -91 -21 -111 9 -29 45 -14 55 82 55
l87 0 -6 36 c-14 86 -86 127 -156 91z m91 -44 c10 -9 18 -24 18 -35 0 -16 -8
-18 -65 -18 -72 0 -83 12 -45 50 24 24 67 26 92 3z"/>
<path d="M10638 20505 c-76 -43 -78 -180 -4 -229 14 -9 44 -16 66 -16 33 0 48
6 71 30 29 29 31 50 5 50 -7 0 -21 -9 -31 -20 -24 -26 -76 -26 -100 0 -28 31
-31 100 -5 133 27 34 78 37 105 7 23 -25 45 -26 45 -2 0 48 -97 78 -152 47z"/>
<path d="M10852 20508 c-16 -16 -16 -172 0 -201 6 -12 18 -27 27 -34 21 -16
84 -16 99 -1 10 10 17 10 33 -1 13 -7 25 -9 31 -3 5 5 7 62 6 128 -2 98 -6
119 -18 119 -12 0 -16 -19 -20 -91 -6 -103 -17 -124 -66 -124 -50 0 -64 28
-64 127 0 82 -7 102 -28 81z"/>
<path d="M11125 20507 c-3 -7 -4 -65 -3 -128 2 -93 6 -114 18 -114 12 0 16 19
20 93 5 101 17 122 67 122 16 0 23 6 23 20 0 22 -28 27 -61 10 -13 -8 -25 -7
-39 0 -16 8 -22 8 -25 -3z"/>
<path d="M11333 20510 c-37 -15 -63 -68 -63 -127 0 -45 4 -56 34 -87 28 -31
40 -36 77 -36 52 0 113 40 92 60 -9 10 -17 9 -34 -4 -37 -25 -95 -21 -115 9
-29 45 -14 55 82 55 l86 0 -7 38 c-15 84 -77 122 -152 92z m89 -42 c9 -7 18
-22 20 -33 3 -18 -3 -20 -61 -20 -71 0 -82 10 -51 43 23 24 67 29 92 10z"/>
<path d="M2235 19979 c-5 -14 -2 -25 6 -30 21 -13 34 -5 34 22 0 31 -31 38
-40 8z"/>
<path d="M2645 19976 c-14 -14 -25 -37 -25 -51 0 -18 -6 -29 -20 -32 -26 -7
-26 -29 0 -36 17 -4 20 -15 22 -108 2 -85 6 -104 18 -104 12 0 16 21 20 105 5
99 6 104 28 110 13 3 23 10 23 15 0 6 -10 12 -23 15 -33 8 -31 50 2 67 31 15
32 37 3 41 -14 2 -32 -6 -48 -22z"/>
<path d="M5325 19988 c-26 -15 -35 -28 -35 -55 0 -12 -12 -30 -27 -41 l-28
-21 28 -10 27 -11 0 -105 c0 -96 2 -106 18 -103 14 3 18 19 22 108 5 100 6
105 28 108 31 5 29 32 -3 32 -21 0 -25 5 -25 30 0 19 6 33 15 35 8 3 22 7 30
10 19 6 8 35 -14 35 -9 0 -25 -6 -36 -12z"/>
<path d="M11514 19987 c-2 -7 -3 -87 -2 -177 3 -139 5 -165 18 -165 12 0 16
19 20 93 5 100 17 122 64 122 44 0 51 -15 56 -117 4 -78 8 -98 20 -98 22 0 27
188 6 220 -20 30 -70 39 -109 20 -17 -8 -32 -15 -34 -15 -1 0 -3 27 -3 59 0
44 -4 60 -15 65 -9 3 -18 0 -21 -7z"/>
<path d="M6353 19983 c-43 -8 -89 -74 -67 -96 10 -9 34 4 34 19 0 19 45 46 71
42 12 -2 31 -15 42 -30 20 -26 20 -30 5 -60 -9 -18 -48 -68 -88 -111 -45 -49
-70 -83 -66 -92 4 -12 26 -15 106 -15 93 0 100 1 100 20 0 18 -7 20 -71 20
-39 0 -69 4 -67 9 2 5 22 30 45 54 98 104 114 155 66 206 -28 30 -69 42 -110
34z"/>
<path d="M9222 19818 c3 -146 5 -173 18 -173 12 0 16 19 20 93 5 101 17 122
66 122 43 0 54 -24 54 -120 0 -87 10 -114 32 -92 16 16 10 192 -7 218 -19 29
-70 38 -108 19 -17 -8 -32 -15 -34 -15 -1 0 -3 27 -3 60 0 54 -2 60 -20 60
-20 0 -20 -5 -18 -172z"/>
<path d="M5992 19813 c3 -142 5 -168 18 -168 11 0 16 15 20 55 l5 55 60 5 c34
3 73 13 87 22 60 40 57 141 -6 179 -23 14 -50 19 -109 19 l-77 0 2 -167z m166
107 c25 -24 29 -67 8 -95 -11 -15 -27 -19 -72 -20 l-59 0 -3 68 -3 67 54 0
c40 0 59 -5 75 -20z"/>
<path d="M6554 19967 c-2 -7 -3 -82 -2 -167 3 -147 4 -155 23 -155 17 0 21 8
25 55 l5 55 63 5 c56 4 67 9 93 38 43 48 41 103 -7 148 -34 33 -38 34 -115 34
-56 0 -81 -4 -85 -13z m175 -53 c12 -15 21 -34 21 -44 0 -10 -9 -29 -21 -44
-18 -22 -28 -26 -75 -26 l-54 0 0 70 0 70 54 0 c47 0 57 -4 75 -26z"/>
<path d="M3450 19931 c0 -21 -6 -32 -20 -36 -11 -3 -20 -10 -20 -15 0 -5 9
-14 20 -20 18 -9 20 -21 20 -99 0 -97 12 -121 63 -121 35 0 36 27 2 40 -25 10
-26 12 -23 92 3 77 5 83 26 86 12 2 22 10 22 17 0 7 -10 15 -22 17 -18 2 -24
11 -26 36 -2 24 -8 32 -23 32 -14 0 -19 -7 -19 -29z"/>
<path d="M4306 19945 c-3 -9 -6 -25 -6 -35 0 -10 -10 -21 -22 -24 l-23 -7 23
-16 c19 -13 22 -24 22 -84 0 -69 12 -118 33 -131 7 -4 24 -8 40 -8 35 0 36 27
2 40 -24 9 -25 13 -25 90 0 77 1 81 25 90 31 12 32 28 3 32 -16 2 -24 12 -28
33 -6 33 -34 46 -44 20z"/>
<path d="M7947 19953 c-4 -3 -7 -17 -7 -31 0 -15 -7 -26 -20 -29 -25 -7 -26
-19 -1 -32 16 -9 20 -25 22 -102 4 -99 18 -123 68 -117 34 4 38 26 7 34 -30 7
-39 40 -34 124 3 47 6 55 26 60 28 6 30 23 5 29 -22 4 -33 19 -33 49 0 21 -19
30 -33 15z"/>
<path d="M11350 19929 c0 -22 -5 -32 -20 -36 -11 -3 -20 -9 -20 -14 0 -4 9
-13 20 -19 18 -9 20 -21 20 -95 0 -72 3 -88 20 -105 19 -19 60 -27 73 -14 11
11 -5 34 -24 34 -24 0 -31 28 -27 110 3 58 5 65 26 70 30 6 30 19 0 34 -14 7
-24 22 -26 39 -2 19 -9 27 -23 27 -15 0 -19 -7 -19 -31z"/>
<path d="M2416 19885 c-22 -12 -32 -13 -43 -4 -27 23 -34 -5 -31 -122 2 -93 6
-114 18 -114 12 0 16 19 21 85 3 47 9 93 13 103 11 23 51 32 81 19 23 -11 24
-17 27 -109 3 -90 5 -98 23 -98 17 0 20 8 23 60 4 80 -5 140 -26 164 -24 27
-71 34 -106 16z"/>
<path d="M2845 19890 c-11 -5 -35 -6 -53 -3 l-33 5 3 -123 c3 -102 6 -124 18
-124 12 0 16 18 20 86 5 94 15 114 61 124 20 5 29 12 27 23 -4 19 -17 23 -43
12z"/>
<path d="M2983 19884 c-17 -9 -34 -22 -37 -30 -8 -22 20 -28 46 -10 40 29 98
11 98 -30 0 -17 -8 -20 -73 -29 -27 -4 -57 -15 -68 -26 -26 -26 -24 -73 3 -99
25 -23 87 -27 106 -8 10 10 17 10 32 0 11 -6 24 -12 30 -12 13 0 13 195 0 220
-6 11 -27 24 -48 30 -48 13 -51 13 -89 -6z m105 -147 c8 -40 -59 -78 -98 -57
-36 19 -21 63 25 72 44 8 70 3 73 -15z"/>
<path d="M3243 19893 c-34 -7 -65 -52 -58 -83 8 -30 23 -40 90 -60 42 -13 50
-20 50 -40 0 -36 -46 -50 -87 -27 -54 31 -78 16 -36 -23 27 -25 103 -27 136
-4 58 41 46 94 -27 120 -67 23 -76 29 -79 52 -5 36 55 46 90 15 20 -17 50 -11
43 9 -11 29 -76 50 -122 41z"/>
<path d="M3668 19886 c-16 -9 -30 -11 -33 -5 -4 5 -15 9 -26 9 -19 0 -19 -6
-17 -122 3 -101 6 -123 18 -123 12 0 16 19 20 89 5 77 9 91 29 107 13 11 32
19 43 19 13 0 18 6 16 17 -4 23 -18 25 -50 9z"/>
<path d="M4090 19893 c-79 -29 -102 -156 -40 -223 24 -26 35 -30 78 -30 40 0
54 5 76 26 14 15 26 30 26 35 0 19 -23 20 -43 1 -50 -45 -98 -36 -123 24 -18
43 -4 108 28 125 28 15 76 4 98 -23 15 -18 21 -20 31 -11 19 19 -14 60 -58 72
-41 12 -50 12 -73 4z"/>
<path d="M4798 19886 c-18 -9 -29 -11 -36 -4 -6 6 -18 8 -27 5 -13 -6 -15 -24
-13 -124 3 -103 5 -118 21 -121 15 -3 17 6 17 83 0 78 2 88 25 110 13 14 33
25 43 25 26 0 34 11 21 27 -14 16 -18 16 -51 -1z"/>
<path d="M4954 19893 c-12 -2 -34 -18 -50 -34 -26 -27 -29 -37 -29 -95 0 -61
2 -68 33 -95 43 -39 117 -42 150 -6 12 13 22 26 22 30 0 12 -26 8 -56 -8 -49
-25 -107 0 -102 44 3 25 5 26 62 23 33 -2 70 -1 84 3 22 5 24 10 19 47 -9 66
-66 105 -133 91z m76 -55 c35 -38 26 -48 -45 -48 -58 0 -65 2 -65 19 0 24 36
51 67 51 12 0 31 -10 43 -22z"/>
<path d="M5473 19886 c-39 -18 -63 -62 -63 -114 0 -90 37 -132 114 -132 36 0
52 6 77 28 29 25 32 34 33 89 1 63 -13 101 -43 120 -32 20 -84 24 -118 9z m87
-36 c49 -26 45 -151 -5 -170 -33 -13 -78 2 -93 31 -7 14 -11 43 -8 69 6 66 54
98 106 70z"/>
<path d="M5787 19893 c-4 -4 -26 -7 -50 -7 l-42 -1 -3 -118 c-2 -99 0 -118 13
-123 25 -10 28 0 26 78 -2 87 12 119 57 132 21 6 32 15 30 24 -3 17 -21 26
-31 15z"/>
<path d="M7045 19893 c-44 -11 -85 -70 -85 -121 0 -41 25 -98 52 -116 12 -9
43 -16 67 -16 35 0 51 6 73 27 30 29 37 53 15 53 -8 0 -22 -9 -31 -19 -58 -64
-148 -4 -131 87 13 71 70 92 125 46 39 -33 63 -20 37 20 -14 20 -76 49 -97 45
-3 -1 -14 -4 -25 -6z"/>
<path d="M7298 19885 c-17 -10 -29 -11 -33 -5 -3 5 -13 10 -21 10 -11 0 -14
-23 -14 -126 0 -114 2 -125 18 -122 14 3 18 18 22 95 3 50 9 95 13 100 5 4 23
13 40 19 33 11 44 37 17 41 -8 1 -27 -4 -42 -12z"/>
<path d="M7717 19882 c-23 -14 -29 -15 -36 -3 -5 8 -16 11 -25 8 -14 -6 -16
-27 -14 -169 3 -137 5 -163 18 -163 11 0 16 14 18 54 3 50 5 53 25 46 12 -4
40 -10 62 -12 34 -4 45 0 67 22 50 50 47 176 -5 209 -38 24 -80 27 -110 8z
m83 -40 c27 -22 37 -95 18 -131 -7 -14 -26 -29 -42 -34 -59 -20 -110 56 -86
129 18 54 67 71 110 36z"/>
<path d="M8158 19893 c-59 -9 -99 -96 -78 -172 14 -53 51 -81 107 -81 57 0 88
21 109 76 14 37 15 50 4 88 -20 71 -67 101 -142 89z m68 -41 c20 -13 34 -50
34 -92 0 -78 -67 -112 -122 -63 -26 24 -25 116 2 143 20 20 65 26 86 12z"/>
<path d="M8554 19893 c-12 -2 -34 -18 -50 -34 -26 -27 -29 -37 -29 -96 0 -61
3 -67 33 -94 41 -37 105 -40 146 -8 46 36 26 53 -30 24 -40 -20 -85 -7 -102
29 -8 15 -12 29 -10 31 2 3 42 6 88 7 80 3 85 5 88 27 4 28 -14 74 -36 94 -19
17 -67 27 -98 20z m76 -55 c30 -32 20 -43 -45 -46 -72 -4 -86 8 -52 42 32 32
69 33 97 4z"/>
<path d="M9021 19887 c-84 -30 -96 -177 -19 -231 12 -9 42 -16 66 -16 35 0 49
6 74 31 23 22 28 33 20 41 -9 9 -18 6 -34 -9 -36 -33 -70 -38 -101 -13 -32 26
-44 79 -27 121 23 54 71 64 118 24 31 -26 48 -20 38 13 -12 38 -82 58 -135 39z"/>
<path d="M9530 19883 c-37 -19 -53 -53 -25 -53 9 0 23 7 31 15 33 33 104 9
104 -36 0 -16 -7 -19 -40 -19 -106 0 -158 -68 -102 -132 18 -21 91 -25 110 -6
10 10 17 10 33 0 11 -7 24 -10 29 -7 6 4 10 48 10 100 0 83 -3 97 -22 119 -31
34 -83 42 -128 19z m107 -139 c15 -38 -51 -84 -93 -65 -43 19 -27 64 26 74 48
9 61 7 67 -9z"/>
<path d="M9830 19893 c-8 -3 -18 -11 -22 -16 -4 -7 -12 -6 -22 2 -9 7 -23 11
-31 7 -13 -5 -15 -25 -13 -123 3 -110 4 -118 23 -118 18 0 20 7 22 90 1 79 4
92 23 107 27 22 50 23 76 4 16 -12 20 -30 24 -108 4 -74 8 -93 20 -93 12 0 15
18 15 102 0 89 -3 105 -20 122 -22 21 -71 33 -95 24z"/>
<path d="M10064 19890 c-68 -27 -88 -142 -36 -201 23 -26 35 -31 71 -31 26 1
51 8 62 18 18 16 19 16 19 -18 0 -21 -7 -41 -18 -51 -23 -21 -85 -22 -102 -2
-16 19 -50 19 -50 0 0 -23 60 -55 101 -55 21 0 50 10 70 23 l34 23 3 147 c2
117 0 147 -11 147 -7 0 -18 -5 -25 -12 -8 -8 -15 -8 -24 -1 -20 16 -70 23 -94
13z m102 -57 c18 -24 17 -93 -2 -118 -10 -14 -26 -20 -54 -20 -49 0 -69 24
-70 81 0 57 30 88 77 81 20 -4 41 -14 49 -24z"/>
<path d="M10352 19889 c-45 -13 -72 -60 -72 -126 0 -44 5 -58 31 -88 27 -31
37 -35 79 -35 33 0 55 6 74 21 47 37 26 53 -33 23 -23 -11 -39 -13 -59 -6 -28
9 -62 56 -49 68 4 4 38 9 75 10 37 1 75 2 85 3 45 3 0 111 -55 130 -35 12 -32
12 -76 0z m80 -46 c10 -9 18 -24 18 -35 0 -15 -8 -18 -58 -18 -32 0 -61 3 -65
6 -9 10 14 53 32 57 34 9 55 6 73 -10z"/>
<path d="M10748 19893 c-15 -2 -39 -18 -53 -34 -21 -26 -25 -41 -25 -94 0 -56
3 -66 29 -94 24 -26 36 -31 76 -31 63 0 99 26 115 85 29 105 -38 184 -142 168z
m75 -48 c30 -29 39 -80 23 -119 -23 -55 -73 -67 -118 -28 -26 22 -25 111 2
140 24 26 71 29 93 7z"/>
<path d="M11020 19883 c-17 -12 -25 -13 -28 -5 -2 7 -12 12 -23 12 -19 0 -19
-7 -17 -122 3 -101 6 -123 18 -123 12 0 16 19 20 87 5 95 21 128 62 128 51 0
71 -44 66 -145 -3 -64 -1 -70 17 -70 18 0 20 8 23 70 6 125 -13 168 -78 179
-25 4 -43 1 -60 -11z"/>
<path d="M11823 19885 c-40 -17 -63 -61 -63 -120 0 -83 37 -124 111 -125 45 0
99 28 99 51 0 13 -34 11 -47 -2 -6 -6 -28 -11 -48 -12 -28 -1 -42 5 -56 22
-28 35 -24 51 14 52 44 2 130 7 140 8 10 1 9 33 -4 69 -19 55 -89 82 -146 57z
m85 -41 c12 -8 22 -24 22 -35 0 -17 -7 -19 -59 -19 -65 0 -78 9 -59 39 20 32
62 39 96 15z"/>
<path d="M2240 19764 c0 -114 2 -125 18 -122 15 3 17 17 20 103 3 113 -2 145
-23 145 -12 0 -15 -21 -15 -126z"/>
<path d="M3760 19792 c0 -85 3 -103 21 -126 16 -21 29 -26 63 -26 23 0 47 5
54 12 9 9 15 9 24 0 32 -32 38 -14 38 114 0 114 -2 125 -17 122 -15 -3 -19
-18 -23 -98 -5 -91 -6 -95 -32 -108 -34 -16 -76 -1 -83 30 -3 13 -6 57 -7 98
-3 62 -6 75 -20 78 -16 3 -18 -7 -18 -96z"/>
<path d="M4450 19787 c0 -95 2 -105 23 -125 26 -25 95 -30 115 -10 9 9 15 9
24 0 32 -32 38 -14 38 114 0 114 -2 125 -17 122 -15 -3 -19 -18 -23 -93 -3
-50 -8 -95 -12 -101 -14 -21 -59 -26 -84 -9 -21 14 -23 23 -26 107 -3 79 -6
93 -20 96 -16 3 -18 -7 -18 -101z"/>
<path d="M7388 19884 c-4 -3 -1 -23 7 -43 76 -204 75 -200 64 -225 -7 -14 -21
-26 -33 -28 -27 -4 -27 -32 0 -36 30 -4 66 38 92 110 13 34 37 97 53 138 34
88 35 90 10 90 -20 0 -26 -12 -61 -122 -12 -38 -25 -68 -30 -68 -4 0 -21 42
-38 93 -27 84 -45 110 -64 91z"/>
<path d="M8720 19881 c0 -6 4 -12 9 -16 6 -3 24 -26 41 -52 l32 -46 -42 -59
c-35 -50 -39 -59 -24 -65 17 -6 24 0 70 63 l21 29 24 -43 c23 -40 53 -61 67
-47 3 3 1 14 -6 23 -6 9 -23 36 -37 59 l-26 42 35 53 c41 61 43 68 16 68 -12
0 -28 -15 -42 -40 -13 -22 -27 -40 -33 -40 -5 0 -23 18 -38 40 -26 36 -67 55
-67 31z"/>
<path d="M5209 19369 c-27 -10 -49 -46 -49 -78 0 -11 -10 -21 -22 -25 l-23 -6
22 -18 c20 -15 23 -27 25 -117 3 -86 5 -100 21 -103 15 -3 17 7 17 101 l0 105
30 6 c37 7 41 36 5 36 -14 0 -28 6 -31 14 -8 21 14 56 35 56 25 0 33 11 20 27
-13 15 -14 15 -50 2z"/>
<path d="M2740 19195 c0 -163 1 -176 18 -173 15 3 17 19 17 173 0 154 -2 170
-17 173 -17 3 -18 -10 -18 -173z"/>
<path d="M4634 19357 c-2 -7 -3 -85 -2 -172 3 -143 5 -160 21 -163 16 -3 17
10 17 172 0 151 -2 176 -15 176 -9 0 -18 -6 -21 -13z"/>
<path d="M2227 19354 c-20 -20 -4 -33 46 -36 l52 -3 3 -148 c2 -134 4 -148 20
-145 15 3 18 21 22 148 l5 145 50 5 c36 4 50 9 50 20 0 12 -21 15 -121 18 -66
1 -123 -1 -127 -4z"/>
<path d="M5006 19324 c-3 -9 -6 -24 -6 -34 0 -10 -10 -20 -22 -24 l-23 -6 23
-19 c19 -17 22 -29 22 -93 0 -95 14 -122 63 -126 44 -4 53 22 12 32 -21 5 -25
13 -26 44 0 20 -1 55 -3 77 -2 46 8 65 35 65 11 0 19 7 19 15 0 9 -9 15 -25
15 -19 0 -25 5 -25 23 0 38 -32 61 -44 31z"/>
<path d="M2511 19249 c-43 -40 -54 -114 -26 -174 28 -59 109 -78 162 -39 53
40 33 61 -25 27 -24 -14 -37 -15 -58 -8 -28 10 -64 58 -52 70 3 4 42 6 87 6
45 0 83 4 87 10 12 19 -6 77 -33 103 -34 34 -108 37 -142 5z m116 -33 c23 -20
25 -26 14 -39 -10 -12 -24 -15 -64 -10 -67 7 -75 16 -44 47 32 32 58 33 94 2z"/>
<path d="M2887 19259 c-41 -24 -61 -121 -37 -183 21 -56 115 -78 168 -39 51
38 34 58 -24 28 -41 -21 -61 -19 -89 10 -45 44 -34 55 49 55 41 0 81 3 90 6
29 11 16 64 -27 112 -16 17 -31 22 -66 22 -25 0 -54 -5 -64 -11z m103 -39 c38
-38 27 -50 -45 -50 -72 0 -78 8 -40 45 29 30 58 32 85 5z"/>
<path d="M3144 19252 c-31 -24 -44 -55 -44 -100 0 -85 77 -142 147 -108 43 20
43 20 43 -7 0 -43 -27 -67 -74 -67 -27 0 -48 6 -56 15 -18 21 -40 19 -40 -5 0
-43 102 -65 160 -35 39 20 49 59 50 198 0 97 -3 119 -15 124 -9 3 -21 -2 -29
-12 -11 -15 -13 -15 -25 -1 -18 22 -90 21 -117 -2z m94 -18 c26 -7 52 -51 52
-89 0 -35 -42 -75 -79 -75 -74 0 -98 132 -29 160 29 11 28 11 56 4z"/>
<path d="M3398 19263 c-2 -5 -2 -61 0 -125 3 -95 6 -118 18 -118 17 0 16 -6
18 96 1 91 12 111 58 116 18 2 33 9 36 15 6 19 -27 28 -59 16 -17 -7 -31 -7
-35 -2 -6 11 -32 12 -36 2z"/>
<path d="M3581 19246 c-30 -32 -11 -43 35 -21 46 22 88 9 92 -27 3 -25 0 -27
-55 -33 -67 -8 -103 -35 -103 -74 1 -61 65 -94 126 -65 28 13 39 15 42 6 2 -7
10 -12 18 -12 11 0 14 21 14 103 0 95 -2 105 -23 125 -34 32 -115 31 -146 -2z
m129 -136 c0 -26 -34 -60 -61 -60 -31 0 -59 19 -59 40 0 26 26 39 78 40 35 0
42 -3 42 -20z"/>
<path d="M3820 19144 c0 -114 2 -125 18 -122 14 3 18 18 22 95 3 51 10 96 15
101 23 22 54 23 74 3 18 -18 21 -34 21 -112 0 -81 2 -90 18 -87 14 3 18 18 22
97 5 77 9 95 25 107 18 13 60 12 75 -3 3 -2 7 -48 10 -101 4 -82 8 -97 23
-100 15 -3 17 7 17 100 0 128 -10 148 -74 148 -27 0 -48 -6 -56 -15 -7 -8 -18
-15 -25 -15 -7 0 -18 7 -25 15 -15 18 -81 20 -98 3 -9 -9 -15 -9 -24 0 -32 32
-38 14 -38 -114z"/>
<path d="M4348 19153 c-5 -173 0 -225 20 -221 13 2 18 16 20 56 2 28 5 52 6
52 2 0 20 -7 40 -15 31 -13 41 -13 69 -2 40 17 52 32 66 82 13 48 -1 109 -32
143 -15 17 -32 22 -67 22 -25 0 -51 -5 -58 -12 -9 -9 -15 -9 -24 0 -30 30 -37
13 -40 -105z m151 70 c44 -37 43 -126 -1 -158 -30 -20 -50 -19 -82 6 -22 18
-26 28 -26 74 0 46 4 56 26 74 33 26 55 26 83 4z"/>
<path d="M4752 19247 c-12 -13 -22 -26 -22 -30 0 -12 30 -7 56 9 36 24 88 8
92 -28 3 -25 0 -26 -56 -33 -88 -10 -124 -55 -92 -115 16 -30 77 -43 114 -25
20 10 33 12 40 5 5 -5 16 -10 23 -10 10 0 13 25 13 103 0 95 -2 105 -23 125
-34 32 -115 31 -145 -1z m128 -134 c0 -9 -10 -27 -22 -40 -35 -38 -98 -26 -98
19 0 24 27 37 78 38 33 0 42 -4 42 -17z"/>
<path d="M5319 19239 c-25 -27 -29 -39 -29 -91 0 -72 23 -111 75 -128 97 -32
179 66 144 172 -18 55 -50 78 -111 78 -43 0 -54 -4 -79 -31z m114 -10 c15 -7
29 -26 37 -49 28 -85 -44 -161 -108 -113 -23 17 -27 29 -30 75 -3 50 0 58 24
77 30 24 43 26 77 10z"/>
<path d="M5572 19148 c3 -108 5 -123 21 -126 15 -3 17 6 17 86 0 97 10 117 60
124 14 2 26 11 28 21 3 13 -3 17 -25 17 -16 0 -35 -6 -42 -12 -11 -10 -14 -10
-18 0 -3 6 -13 12 -24 12 -19 0 -19 -7 -17 -122z"/>
<path d="M5752 19148 c3 -101 6 -123 18 -123 12 0 16 19 20 92 3 52 11 98 17
104 14 14 69 17 80 5 5 -4 10 -51 13 -104 4 -80 8 -97 22 -100 14 -3 17 10 20
92 2 57 8 100 15 107 17 17 73 16 84 -2 5 -8 9 -54 9 -102 0 -70 3 -89 15 -94
9 -3 18 -3 21 0 4 3 6 50 5 103 -2 123 -13 144 -75 144 -27 0 -48 -6 -56 -15
-7 -8 -18 -15 -25 -15 -7 0 -18 7 -25 15 -15 18 -81 20 -98 3 -9 -9 -15 -9
-24 0 -7 7 -18 12 -25 12 -11 0 -13 -26 -11 -122z"/>
<path d="M6170 19065 c-17 -20 -6 -45 20 -45 17 0 21 5 18 27 -4 31 -20 40
-38 18z"/>
<path d="M9765 15968 c-12 -34 -95 -385 -95 -401 0 -10 5 -17 12 -15 13 5 119
406 111 421 -6 11 -23 8 -28 -5z"/>
<path d="M10087 15944 c-4 -4 -7 -18 -7 -30 0 -14 -8 -25 -20 -29 -11 -3 -20
-10 -20 -15 0 -5 9 -12 20 -15 21 -7 21 -6 24 -135 1 -54 17 -78 55 -82 33 -4
38 20 7 32 -25 9 -26 12 -26 95 0 82 1 85 25 91 29 7 28 29 -1 29 -13 0 -20 9
-24 29 -5 29 -20 43 -33 30z"/>
<path d="M10690 15926 c0 -13 -10 -30 -22 -39 l-23 -16 23 -16 c20 -15 22 -24
22 -105 l0 -89 31 -16 c24 -13 34 -14 45 -4 17 14 9 29 -16 29 -25 0 -30 19
-30 106 l0 75 30 6 c24 4 28 8 19 19 -6 8 -20 14 -30 14 -14 0 -19 7 -19 30 0
20 -5 30 -15 30 -9 0 -15 -9 -15 -24z"/>
<path d="M9863 15870 c-62 -37 -33 -108 51 -124 18 -4 42 -16 52 -27 18 -21
18 -21 -5 -40 -30 -24 -58 -24 -95 0 -34 23 -51 18 -36 -8 35 -67 180 -40 180
33 0 34 -23 53 -85 71 -59 18 -74 38 -49 66 20 23 53 24 80 4 24 -18 44 -19
44 -2 0 17 -52 47 -82 47 -12 0 -38 -9 -55 -20z"/>
<path d="M10275 15880 c-28 -11 -48 -37 -40 -50 4 -7 16 -3 35 10 36 26 65 25
91 -1 33 -33 21 -53 -37 -60 -89 -11 -126 -46 -104 -99 21 -50 80 -64 124 -29
23 18 27 18 32 5 3 -9 12 -16 20 -16 11 0 14 20 14 94 0 52 -3 102 -6 111 -14
35 -83 54 -129 35z m101 -145 c9 -22 -20 -61 -50 -69 -39 -10 -76 9 -76 38 0
32 23 45 78 46 29 0 44 -5 48 -15z"/>
<path d="M10548 15874 c-14 -14 -20 -15 -32 -5 -29 24 -36 2 -36 -115 0 -105
2 -115 18 -112 14 3 17 17 20 88 3 94 14 114 63 124 19 3 29 11 27 18 -7 20
-41 21 -60 2z"/>
<path d="M11230 15751 c0 -6 5 -13 10 -16 6 -3 10 1 10 9 0 9 -4 16 -10 16 -5
0 -10 -4 -10 -9z"/>
<path d="M11911 15744 c0 -11 3 -14 6 -6 3 7 2 16 -1 19 -3 4 -6 -2 -5 -13z"/>
<path d="M11635 15570 c-3 -5 1 -10 9 -10 9 0 16 5 16 10 0 6 -4 10 -9 10 -6
0 -13 -4 -16 -10z"/>
<path d="M9041 14856 c-16 -19 -6 -36 20 -36 15 0 20 6 17 22 -4 27 -21 33
-37 14z"/>
<path d="M9162 14861 c-9 -6 -12 -51 -10 -177 3 -149 5 -169 20 -172 14 -3 17
6 20 50 4 73 24 74 77 3 26 -34 49 -55 61 -55 30 0 25 13 -30 79 -27 33 -50
64 -50 70 0 5 20 27 45 49 25 22 45 45 45 51 0 24 -28 9 -80 -44 -29 -30 -57
-52 -62 -49 -4 3 -8 47 -8 99 0 94 -5 110 -28 96z"/>
<path d="M10513 14863 c-9 -3 -13 -26 -13 -64 0 -63 -4 -67 -34 -44 -34 26
-75 18 -112 -19 -31 -31 -34 -40 -34 -90 0 -62 19 -109 49 -126 29 -15 78 -12
106 6 23 15 25 15 31 0 3 -9 12 -16 20 -16 11 0 14 32 14 174 0 96 -3 177 -7
179 -5 2 -14 2 -20 0z m-36 -155 c29 -27 32 -105 6 -136 -51 -60 -123 -22
-123 64 0 82 64 122 117 72z"/>
<path d="M2560 14684 c0 -162 1 -175 18 -172 15 3 17 21 20 176 2 167 2 172
-18 172 -19 0 -20 -6 -20 -176z"/>
<path d="M3990 14685 c0 -142 3 -175 14 -175 7 0 19 7 26 15 11 13 15 13 33 0
12 -8 35 -15 52 -15 81 0 129 103 91 195 -24 55 -98 82 -140 50 -32 -24 -36
-18 -36 45 0 53 -2 60 -20 60 -19 0 -20 -7 -20 -175z m163 27 c23 -25 31 -91
15 -122 -31 -59 -104 -58 -129 1 -14 36 -6 95 17 120 22 24 76 25 97 1z"/>
<path d="M4782 14688 c3 -153 5 -173 20 -176 14 -3 17 6 20 50 4 71 22 72 76
3 26 -33 51 -55 63 -55 29 0 24 12 -31 78 -27 33 -50 64 -50 69 0 6 20 29 45
52 25 23 45 46 45 52 0 22 -32 5 -76 -41 -26 -27 -54 -50 -61 -50 -10 0 -13
24 -13 95 0 89 -1 95 -20 95 -20 0 -20 -5 -18 -172z"/>
<path d="M6722 14688 c3 -151 5 -173 19 -176 15 -3 17 10 20 86 5 105 21 135
73 130 43 -4 56 -36 56 -136 0 -74 2 -83 18 -80 15 3 17 16 17 107 0 100 -1
103 -28 127 -32 28 -66 30 -107 9 l-30 -16 0 61 c0 54 -2 60 -20 60 -20 0 -20
-5 -18 -172z"/>
<path d="M8420 14684 c0 -162 1 -175 18 -172 15 3 17 21 20 176 2 167 2 172
-18 172 -19 0 -20 -6 -20 -176z"/>
<path d="M8707 14853 c-4 -3 -7 -30 -7 -60 0 -56 -4 -61 -34 -38 -34 26 -75
18 -112 -19 -31 -31 -34 -40 -34 -91 0 -61 11 -91 44 -117 26 -22 84 -23 114
-2 20 14 23 14 28 0 3 -9 12 -16 20 -16 11 0 14 32 14 175 0 139 -3 175 -13
175 -8 0 -17 -3 -20 -7z m-33 -136 c24 -18 35 -76 22 -118 -21 -66 -103 -75
-126 -13 -35 92 35 181 104 131z"/>
<path d="M8937 14853 c-9 -15 -7 -318 2 -332 5 -8 16 -11 25 -8 14 6 16 30 16
177 0 162 -1 170 -19 170 -11 0 -22 -3 -24 -7z"/>
<path d="M1860 14836 c0 -16 54 -225 73 -285 17 -50 45 -49 62 4 34 107 55
182 55 193 0 7 4 12 9 12 10 0 15 -16 46 -125 10 -33 20 -71 24 -84 9 -32 38
-51 50 -32 15 23 93 322 86 329 -3 3 -13 2 -23 -4 -14 -9 -32 -67 -66 -216 -7
-32 -22 -37 -29 -10 -62 231 -70 249 -100 224 -7 -6 -19 -35 -26 -64 -7 -29
-16 -64 -21 -78 -4 -14 -13 -45 -20 -68 -6 -24 -14 -41 -17 -38 -4 3 -20 61
-37 129 -24 93 -35 123 -48 125 -11 2 -18 -3 -18 -12z"/>
<path d="M5135 14839 c-11 -17 7 -27 55 -31 l45 -3 3 -148 c2 -134 4 -148 20
-145 15 3 18 21 22 148 l5 145 50 5 c36 4 50 9 50 20 0 12 -21 15 -122 18 -81
2 -124 -1 -128 -9z"/>
<path d="M7256 14815 c-3 -9 -4 -21 -1 -25 3 -5 -4 -14 -15 -20 -23 -12 -27
-40 -5 -40 8 0 15 -6 16 -12 0 -7 1 -47 2 -90 3 -87 20 -118 69 -118 36 0 38
27 3 40 -24 9 -25 13 -25 95 0 85 0 85 26 85 32 0 30 33 -3 38 -15 2 -23 11
-25 30 -3 30 -32 42 -42 17z"/>
<path d="M9790 14802 c0 -21 -6 -31 -20 -35 -11 -3 -20 -12 -20 -20 0 -8 9
-17 20 -20 18 -5 20 -14 20 -95 0 -83 2 -92 22 -106 29 -21 68 -21 68 -1 0 9
-11 21 -25 27 -24 11 -25 15 -25 95 0 82 0 83 25 83 18 0 25 5 25 20 0 15 -7
20 -24 20 -19 0 -25 6 -28 27 -4 40 -38 44 -38 5z"/>
<path d="M2339 14755 c-67 -36 -78 -164 -19 -217 23 -22 40 -28 74 -28 46 0
96 29 96 56 0 16 -26 19 -35 3 -24 -37 -116 -23 -128 20 -7 30 8 35 93 36 l75
0 3 38 c3 33 -2 43 -33 73 -40 38 -80 44 -126 19z m105 -47 c29 -41 21 -48
-49 -48 -54 0 -65 3 -65 17 0 50 85 73 114 31z"/>
<path d="M2714 14751 c-41 -25 -58 -69 -52 -133 4 -42 11 -57 37 -80 49 -44
139 -35 163 17 13 28 4 44 -16 30 -55 -41 -67 -46 -86 -40 -88 28 -77 185 14
185 20 0 40 -8 51 -20 10 -11 24 -20 32 -20 23 0 14 27 -18 54 -37 31 -81 34
-125 7z"/>
<path d="M2974 14758 c-30 -14 -64 -79 -64 -122 0 -109 114 -167 191 -98 27
24 33 37 37 84 3 38 -1 64 -12 86 -27 53 -98 76 -152 50z m105 -54 c23 -29 28
-92 11 -124 -5 -10 -24 -23 -41 -29 -26 -9 -37 -8 -56 4 -46 31 -55 114 -17
156 26 29 78 25 103 -7z"/>
<path d="M3201 14757 c-11 -14 -15 -206 -4 -234 8 -19 31 -16 38 6 3 11 5 48
3 84 -2 74 18 117 55 117 46 0 52 -13 55 -120 3 -88 6 -101 20 -98 14 3 18 20
22 94 3 56 10 97 19 108 16 19 66 21 78 4 4 -7 10 -56 13 -108 4 -80 8 -95 23
-98 15 -3 17 7 17 103 0 99 -2 107 -25 130 -30 31 -73 32 -109 4 l-26 -20 -26
20 c-31 24 -61 26 -88 6 -17 -13 -22 -13 -36 0 -15 13 -19 13 -29 2z"/>
<path d="M3649 14755 c-67 -36 -79 -164 -20 -217 24 -22 41 -28 75 -28 46 0
96 29 96 56 0 18 -19 18 -39 0 -36 -32 -106 -20 -122 21 -5 14 -7 28 -4 31 3
3 42 6 88 6 81 1 82 1 85 28 7 56 -51 119 -110 118 -13 -1 -35 -7 -49 -15z
m93 -37 c9 -7 19 -23 23 -35 6 -22 4 -23 -59 -23 -55 0 -66 3 -66 17 0 43 66
69 102 41z"/>
<path d="M4303 14750 c-18 -11 -33 -24 -33 -29 0 -19 21 -22 45 -7 35 23 82
21 95 -5 19 -34 6 -46 -54 -51 -68 -6 -96 -27 -96 -75 0 -63 67 -93 130 -59
21 12 26 12 36 -2 6 -8 16 -12 22 -8 16 9 16 177 1 209 -22 48 -91 61 -146 27z
m113 -135 c16 -40 -55 -87 -96 -65 -28 15 -27 58 3 64 55 12 63 14 75 15 7 0
15 -6 18 -14z"/>
<path d="M4555 14748 c-31 -24 -55 -74 -55 -114 0 -36 37 -100 67 -113 46 -21
97 -14 128 19 22 22 26 33 18 41 -9 9 -20 5 -43 -15 -35 -29 -38 -30 -74 -16
-56 21 -71 115 -25 161 25 25 74 25 96 -1 19 -21 53 -27 53 -9 0 6 -14 24 -31
40 -39 36 -93 39 -134 7z"/>
<path d="M5404 14757 c-2 -7 -3 -65 -2 -127 3 -100 5 -115 21 -118 15 -3 17 6
17 86 0 80 2 91 23 110 13 12 33 22 45 22 15 0 22 6 22 20 0 25 -41 28 -60 5
-12 -14 -15 -14 -30 0 -20 18 -29 19 -36 2z"/>
<path d="M5613 14750 c-33 -20 -45 -50 -20 -50 7 0 22 7 33 15 29 22 81 19 94
-6 19 -34 5 -49 -42 -49 -25 0 -57 -8 -75 -20 -27 -16 -33 -26 -33 -55 0 -48
29 -75 79 -75 23 0 44 6 52 16 12 14 14 14 25 -1 8 -10 20 -15 29 -12 12 5 15
25 15 102 0 93 -1 98 -29 126 -35 35 -81 38 -128 9z m112 -132 c13 -13 -7 -49
-37 -64 -43 -22 -81 -6 -76 34 2 21 9 28 33 32 40 7 72 7 80 -2z"/>
<path d="M5832 14757 c-9 -11 -12 -58 -10 -168 3 -146 4 -154 23 -154 14 0 20
7 21 25 4 90 1 84 29 66 81 -53 162 17 153 132 -4 48 -9 60 -39 84 -38 32 -69
35 -110 11 -27 -16 -29 -16 -42 1 -11 16 -15 16 -25 3z m157 -53 c40 -50 21
-139 -33 -157 -74 -25 -124 99 -65 162 28 30 73 27 98 -5z"/>
<path d="M6346 14762 c-5 -8 54 -219 67 -239 23 -36 52 14 81 141 6 24 9 27
20 15 7 -8 18 -39 26 -69 17 -71 30 -100 45 -100 20 0 31 21 50 90 29 111 32
125 40 141 9 24 -15 36 -30 15 -7 -9 -21 -51 -31 -92 -9 -41 -22 -73 -27 -71
-6 2 -20 37 -32 78 -23 82 -31 99 -46 99 -14 0 -59 -115 -59 -152 0 -9 -6 -21
-14 -27 -11 -9 -16 1 -26 51 -21 103 -46 149 -64 120z"/>
<path d="M7029 14755 c-15 -8 -29 -21 -33 -30 -8 -23 21 -31 43 -11 21 19 72
21 89 4 7 -7 12 -22 12 -35 0 -21 -5 -23 -45 -23 -51 0 -99 -20 -109 -45 -28
-75 59 -135 129 -89 23 15 25 15 31 0 3 -9 12 -16 20 -16 11 0 14 21 14 99 0
116 -3 127 -41 146 -35 19 -76 18 -110 0z m107 -140 c9 -22 -21 -62 -52 -69
-20 -5 -32 -2 -48 14 -35 34 -5 60 82 69 7 0 15 -6 18 -14z"/>
<path d="M7516 14761 c-3 -5 1 -33 9 -62 9 -30 20 -72 26 -94 37 -133 62 -127
104 28 8 31 19 57 23 57 4 0 18 -39 32 -88 21 -72 28 -87 45 -87 15 0 24 12
36 50 27 81 53 195 46 202 -15 14 -35 -22 -52 -94 -10 -43 -22 -82 -26 -86 -7
-8 -49 109 -49 136 0 7 -6 22 -14 32 -26 36 -48 -5 -81 -149 -9 -42 -23 -22
-44 67 -11 41 -22 80 -26 86 -8 13 -22 14 -29 2z"/>
<path d="M7919 14747 c-66 -44 -71 -155 -9 -209 59 -53 159 -26 179 49 15 52
14 79 -4 113 -36 69 -105 89 -166 47z m118 -44 c11 -17 18 -44 17 -72 -3 -117
-144 -114 -144 4 0 58 30 95 75 95 26 0 39 -6 52 -27z"/>
<path d="M8154 14756 c-3 -8 -4 -59 -2 -112 3 -86 5 -98 27 -115 25 -21 71
-25 101 -9 14 7 25 7 39 -2 11 -7 24 -9 28 -4 9 9 7 231 -2 247 -5 7 -11 6
-21 -2 -10 -8 -14 -36 -14 -100 0 -88 0 -89 -30 -104 -36 -19 -41 -19 -66 -1
-16 12 -20 30 -24 112 -3 65 -9 99 -17 102 -7 2 -16 -3 -19 -12z"/>
<path d="M9047 14764 c-4 -4 -7 -63 -7 -131 0 -113 2 -124 18 -121 15 3 17 17
17 127 0 116 -7 146 -28 125z"/>
<path d="M9419 14742 c-55 -49 -59 -151 -7 -202 42 -42 104 -42 150 -1 28 25
31 31 16 36 -11 4 -28 -1 -44 -14 -19 -15 -34 -19 -53 -15 -57 14 -84 68 -38
79 12 3 48 4 80 2 69 -4 80 5 66 56 -22 81 -110 112 -170 59z m113 -29 c10 -9
18 -24 18 -35 0 -16 -8 -18 -65 -18 -70 0 -78 7 -49 48 18 27 69 30 96 5z"/>
<path d="M9978 14754 c-74 -40 -78 -178 -6 -228 12 -9 41 -16 63 -16 70 0 115
51 115 130 0 101 -89 160 -172 114z m111 -50 c24 -30 28 -99 8 -125 -23 -31
-56 -42 -87 -29 -80 33 -60 180 25 180 24 0 39 -7 54 -26z"/>
<path d="M10654 14751 c-41 -25 -58 -69 -52 -133 7 -69 47 -108 112 -108 71 0
116 53 116 138 0 93 -98 151 -176 103z m109 -39 c62 -68 4 -194 -74 -162 -51
21 -64 116 -23 161 22 24 76 25 97 1z"/>
<path d="M6111 14510 c-14 -67 -14 -80 4 -80 8 0 18 16 24 38 25 93 25 92 3
92 -16 0 -22 -10 -31 -50z"/>
<path d="M9440 13351 c-66 -35 -101 -154 -69 -238 15 -40 57 -81 97 -94 47
-15 115 4 147 43 49 58 23 79 -31 27 -70 -68 -164 -28 -179 76 -20 130 89 213
172 130 55 -55 88 -40 41 20 -42 53 -117 69 -178 36z"/>
<path d="M8432 13193 l3 -168 74 -3 c108 -4 151 18 166 86 6 29 3 37 -27 65
-33 31 -34 33 -16 47 10 8 21 29 24 47 5 27 1 37 -24 63 -29 29 -34 30 -116
30 l-86 0 2 -167z m166 115 c16 -16 15 -63 0 -76 -22 -17 -97 -25 -113 -12
-15 12 -21 81 -8 93 11 12 108 8 121 -5z m2 -141 c17 -9 26 -22 28 -44 4 -45
-29 -65 -100 -61 l-53 3 -3 44 c-2 24 -1 50 2 57 7 18 91 19 126 1z"/>
<path d="M10410 13311 c0 -20 -6 -30 -20 -34 -11 -3 -20 -10 -20 -16 0 -6 9
-15 20 -21 18 -9 20 -21 20 -100 0 -84 2 -91 24 -106 28 -18 71 -16 71 4 0 7
-11 18 -25 25 -24 12 -25 17 -25 92 0 72 2 80 20 83 37 7 40 21 7 33 -26 9
-32 16 -32 40 0 22 -5 29 -20 29 -15 0 -20 -7 -20 -29z"/>
<path d="M9707 13274 c-4 -4 -7 -63 -7 -131 0 -113 2 -124 18 -121 14 3 17 17
20 93 2 49 8 95 14 102 6 7 24 17 41 21 17 4 32 13 35 20 6 20 -25 25 -57 9
-25 -12 -31 -13 -43 -1 -8 8 -17 11 -21 8z"/>
<path d="M10117 13273 c-4 -3 -7 -80 -7 -170 0 -156 1 -163 20 -163 18 0 20 7
20 55 l0 56 30 -16 c88 -46 170 22 157 131 -10 89 -78 135 -148 100 -29 -15
-34 -15 -41 -1 -10 16 -21 19 -31 8z m164 -65 c40 -64 7 -148 -57 -148 -65 0
-95 81 -54 148 16 26 26 32 55 32 29 0 39 -6 56 -32z"/>
<path d="M10603 13265 c-55 -24 -81 -122 -48 -185 21 -42 53 -60 103 -60 37 0
50 6 78 34 30 30 34 40 34 88 0 110 -73 164 -167 123z m107 -47 c25 -27 27
-98 4 -133 -21 -32 -82 -35 -108 -6 -28 30 -31 90 -7 129 17 26 27 32 55 32
23 0 42 -7 56 -22z"/>
<path d="M8720 13179 c0 -122 21 -158 91 -159 19 0 41 6 47 12 10 10 17 10 33
0 11 -7 24 -10 29 -7 6 4 10 60 10 126 0 112 -1 119 -20 119 -18 0 -20 -7 -20
-83 0 -102 -13 -127 -69 -127 -49 0 -61 25 -61 130 0 73 -2 80 -20 80 -19 0
-20 -7 -20 -91z"/>
<path d="M8974 13253 c4 -10 17 -43 28 -73 11 -30 29 -79 40 -108 18 -45 19
-57 8 -77 -7 -13 -22 -25 -33 -27 -26 -4 -34 -26 -12 -34 29 -11 67 19 90 71
24 53 95 248 95 259 0 3 -9 6 -20 6 -15 0 -24 -17 -47 -87 -15 -49 -32 -90
-38 -93 -5 -3 -23 36 -40 85 -26 76 -35 91 -54 93 -20 3 -23 0 -17 -15z"/>
<path d="M9853 13253 c3 -10 21 -63 41 -117 20 -55 36 -109 36 -121 0 -26 -18
-45 -42 -45 -19 0 -25 -25 -7 -35 19 -12 64 15 81 48 9 18 35 82 57 142 22 61
43 118 47 128 6 15 3 18 -17 15 -19 -2 -27 -16 -47 -78 -13 -41 -27 -81 -31
-88 -9 -20 -26 -18 -29 4 -2 10 -15 52 -29 92 -20 57 -30 72 -45 72 -15 0 -19
-5 -15 -17z"/>
<path d="M11678 13143 c7 -3 16 -2 19 1 4 3 -2 6 -13 5 -11 0 -14 -3 -6 -6z"/>
<path d="M11911 13134 c0 -11 3 -14 6 -6 3 7 2 16 -1 19 -3 4 -6 -2 -5 -13z"/>
<path d="M11230 13131 c0 -6 5 -13 10 -16 6 -3 10 1 10 9 0 9 -4 16 -10 16 -5
0 -10 -4 -10 -9z"/>
<path d="M11241 12974 c0 -11 3 -14 6 -6 3 7 2 16 -1 19 -3 4 -6 -2 -5 -13z"/>
<path d="M11630 12960 c0 -5 5 -10 10 -10 6 0 10 5 10 10 0 6 -4 10 -10 10 -5
0 -10 -4 -10 -10z"/>
<path d="M2591 12247 c-15 -19 -3 -49 18 -45 9 2 16 13 16 27 0 29 -17 37 -34
18z"/>
<path d="M2961 12246 c-8 -9 -11 -66 -9 -177 3 -142 5 -164 19 -167 14 -3 17
11 21 89 4 81 7 94 27 110 13 11 34 19 47 19 40 0 54 -35 54 -133 0 -79 2 -88
18 -85 15 3 17 17 20 101 3 97 2 98 -27 127 -33 33 -74 39 -105 15 -32 -24
-36 -18 -36 44 0 62 -10 81 -29 57z"/>
<path d="M3879 12249 c-11 -6 -11 -13 -3 -26 15 -25 38 -23 42 3 3 24 -18 37
-39 23z"/>
<path d="M2322 12078 c3 -150 5 -173 19 -176 14 -3 17 11 21 87 5 105 21 134
72 129 43 -4 56 -36 56 -135 0 -76 2 -83 20 -83 19 0 20 7 20 93 0 101 -11
133 -52 157 -27 15 -30 14 -100 -15 -16 -6 -18 0 -18 54 0 55 -2 61 -20 61
-20 0 -20 -5 -18 -172z"/>
<path d="M4540 12190 c0 -33 -3 -60 -7 -60 -5 1 -19 7 -33 15 -37 21 -65 18
-99 -11 -58 -49 -65 -144 -15 -204 21 -24 33 -30 67 -30 24 0 48 7 60 17 18
17 19 17 28 0 6 -9 17 -17 24 -17 13 0 15 29 15 175 0 168 -1 175 -20 175 -18
0 -20 -7 -20 -60z m-25 -95 c19 -18 25 -35 25 -68 0 -57 -25 -90 -68 -90 -61
0 -94 60 -72 128 19 59 73 73 115 30z"/>
<path d="M7667 12244 c-4 -4 -7 -81 -7 -171 0 -143 2 -164 16 -170 10 -4 22 0
28 9 10 14 14 14 31 2 32 -23 89 -18 118 12 46 46 48 155 5 201 -29 31 -81 40
-113 19 -13 -9 -26 -16 -29 -16 -3 0 -6 26 -8 57 -2 43 -7 59 -18 61 -9 1 -19
0 -23 -4z m159 -145 c25 -28 27 -121 2 -145 -22 -23 -73 -22 -98 1 -28 26 -28
117 0 145 26 26 72 26 96 -1z"/>
<path d="M1863 12208 c3 -18 22 -95 43 -171 33 -122 40 -138 57 -135 20 3 43
61 77 196 8 29 17 52 22 52 4 0 15 -26 23 -57 9 -32 20 -69 25 -83 4 -14 13
-44 20 -67 20 -67 45 -58 69 25 58 196 72 255 62 265 -27 27 -46 -22 -80 -202
-8 -43 -28 -51 -37 -14 -16 72 -57 209 -64 216 -4 5 -17 6 -27 3 -14 -4 -23
-23 -33 -69 -7 -34 -17 -71 -21 -82 -4 -11 -12 -40 -19 -63 -6 -24 -14 -41
-18 -37 -3 3 -20 61 -37 128 -24 97 -34 123 -49 125 -16 3 -18 -1 -13 -30z"/>
<path d="M8476 12215 c-28 -26 -35 -65 -12 -65 7 0 21 12 30 26 14 21 24 25
54 22 30 -2 38 -8 46 -31 9 -25 6 -32 -32 -68 -26 -26 -42 -50 -42 -65 0 -34
26 -30 45 6 8 16 25 34 36 40 31 17 49 67 37 102 -20 58 -114 77 -162 33z"/>
<path d="M6840 12191 c0 -21 -6 -32 -20 -36 -11 -3 -20 -10 -20 -15 0 -5 9
-14 20 -20 18 -9 20 -21 20 -93 0 -100 15 -130 63 -125 39 4 47 25 13 34 -32
8 -38 29 -34 114 3 59 5 65 27 70 35 8 37 28 4 32 -23 2 -29 8 -31 36 -2 24
-8 32 -23 32 -14 0 -19 -7 -19 -29z"/>
<path d="M7127 12213 c-4 -3 -7 -16 -7 -27 0 -12 -10 -27 -22 -35 l-21 -13 20
-17 c18 -13 22 -30 25 -105 5 -98 16 -116 70 -116 36 0 38 27 3 36 -14 3 -25
11 -26 18 0 6 -3 36 -5 66 -6 72 1 98 28 102 27 4 36 28 11 28 -26 0 -43 19
-43 47 0 22 -19 31 -33 16z"/>
<path d="M2597 12153 c-4 -3 -7 -62 -7 -130 0 -113 2 -124 18 -121 15 3 17 18
20 119 2 89 -1 119 -11 127 -8 7 -17 9 -20 5z"/>
<path d="M2742 12140 c-70 -43 -75 -168 -8 -222 33 -27 107 -24 140 7 47 44
27 68 -25 29 -34 -25 -68 -26 -96 -2 -34 28 -30 127 6 155 26 20 66 15 96 -13
18 -17 31 -22 38 -15 15 15 1 39 -35 61 -42 25 -74 25 -116 0z"/>
<path d="M3399 12145 c-40 -22 -59 -58 -59 -115 0 -88 36 -129 111 -130 35 0
52 6 73 25 14 13 26 28 26 34 0 21 -23 22 -44 2 -28 -27 -86 -28 -109 -3 -27
29 -23 113 6 140 31 29 70 28 103 -3 18 -16 31 -22 37 -16 15 15 1 39 -35 61
-38 23 -73 25 -109 5z"/>
<path d="M3652 12145 c-70 -31 -84 -162 -23 -217 44 -39 108 -39 151 0 63 56
47 188 -26 218 -41 17 -60 17 -102 -1z m99 -44 c20 -16 24 -28 24 -75 0 -68
-18 -90 -71 -89 -52 2 -68 22 -68 87 0 87 56 125 115 77z"/>
<path d="M4048 12145 c-17 -10 -29 -11 -33 -5 -3 5 -13 10 -21 10 -11 0 -14
-23 -14 -126 0 -114 2 -125 18 -122 14 3 18 18 22 90 5 95 21 128 62 128 46 0
53 -14 58 -117 4 -83 8 -98 23 -101 15 -3 17 7 17 96 0 117 -3 128 -41 147
-35 19 -56 18 -91 0z"/>
<path d="M4703 12140 c-38 -23 -50 -43 -53 -90 -5 -68 0 -89 31 -119 25 -26
38 -31 77 -31 62 0 97 29 113 91 16 61 -2 114 -50 146 -42 28 -76 29 -118 3z
m99 -34 c64 -48 22 -189 -51 -171 -46 12 -61 34 -61 90 0 38 5 57 20 73 23 25
66 28 92 8z"/>
<path d="M5213 12148 c-4 -7 -22 -50 -38 -98 -17 -47 -35 -84 -40 -82 -6 2
-23 43 -40 90 -22 63 -35 88 -49 90 -23 5 -21 -8 29 -143 40 -108 40 -140 0
-155 -30 -12 -33 -40 -4 -40 28 0 75 49 87 91 6 19 25 72 42 119 18 47 34 95
37 106 6 25 -12 40 -24 22z"/>
<path d="M5330 12138 c-43 -29 -65 -93 -50 -147 18 -65 53 -91 119 -91 75 0
125 82 102 168 -22 81 -105 115 -171 70z m110 -38 c28 -28 28 -119 0 -145 -25
-23 -76 -24 -97 -2 -9 8 -18 37 -20 64 -4 39 -1 53 17 76 26 33 71 36 100 7z"/>
<path d="M6081 12146 c-7 -9 -22 -48 -32 -88 -22 -85 -35 -103 -44 -62 -21 94
-42 149 -58 152 -23 5 -22 -5 16 -133 26 -89 36 -111 52 -113 17 -2 24 9 43
71 12 41 22 79 22 86 0 6 7 11 15 11 8 0 15 -5 15 -11 0 -7 9 -43 21 -81 27
-93 60 -104 79 -27 4 19 17 68 29 109 25 90 25 90 6 90 -19 0 -29 -22 -44 -95
-7 -33 -15 -66 -17 -74 -8 -26 -23 2 -43 78 -22 85 -40 111 -60 87z"/>
<path d="M6343 12140 c-33 -20 -45 -50 -19 -50 7 0 19 7 26 15 15 18 71 20 88
3 7 -7 12 -22 12 -35 0 -20 -5 -23 -44 -23 -54 0 -110 -35 -114 -71 -2 -14 6
-37 18 -52 17 -22 30 -27 65 -27 26 0 47 6 56 16 11 14 13 14 21 0 5 -9 16
-16 23 -16 12 0 15 19 15 99 0 116 -3 127 -41 146 -38 20 -68 19 -106 -5z
m107 -147 c-1 -39 -44 -68 -85 -57 -29 7 -38 29 -25 55 15 27 110 28 110 2z"/>
<path d="M6563 12153 c-10 -4 -13 -38 -13 -129 0 -117 1 -124 20 -124 18 0 20
7 20 88 0 75 3 92 20 110 24 25 58 28 86 8 16 -12 20 -29 22 -111 3 -83 6 -96
20 -93 14 3 18 18 20 75 4 98 -11 149 -48 168 -37 19 -60 19 -89 -2 -21 -14
-25 -14 -35 -1 -6 8 -17 13 -23 11z"/>
<path d="M7313 12140 c-37 -22 -50 -43 -53 -85 -5 -72 0 -94 31 -124 40 -41
112 -44 152 -7 33 31 49 89 38 139 -11 44 -25 63 -62 83 -38 19 -68 18 -106
-6z m100 -34 c40 -30 41 -124 2 -156 -21 -18 -73 -15 -95 5 -28 26 -28 117 0
145 23 23 67 26 93 6z"/>
<path d="M7951 12151 c-10 -6 -12 -33 -9 -109 2 -81 7 -104 22 -121 22 -24 84
-29 116 -8 17 10 22 9 29 -2 5 -8 16 -11 25 -8 14 6 16 23 14 124 -3 100 -5
118 -19 121 -15 3 -17 -10 -20 -87 -4 -102 -17 -124 -69 -124 -47 0 -55 15
-58 116 -4 97 -9 111 -31 98z"/>
<path d="M3878 12138 c-6 -18 -1 -228 5 -235 4 -3 13 -3 22 1 24 9 18 239 -6
244 -9 2 -19 -3 -21 -10z"/>
<path d="M5560 12052 c0 -85 3 -103 21 -126 16 -21 29 -26 63 -26 23 0 47 5
54 12 9 9 15 9 24 0 32 -32 38 -14 38 114 0 114 -2 125 -17 122 -15 -3 -18
-17 -21 -95 -3 -96 -7 -106 -53 -116 -50 -12 -63 11 -69 115 -4 78 -8 93 -22
96 -16 3 -18 -7 -18 -96z"/>
<path d="M8198 12145 c-3 -3 10 -50 29 -103 49 -136 52 -147 41 -166 -5 -9
-21 -21 -35 -27 -33 -12 -24 -35 13 -32 42 3 64 42 134 241 26 72 28 83 14 89
-21 8 -28 -5 -60 -104 -15 -46 -30 -83 -33 -83 -4 0 -20 42 -37 92 -28 85 -47
112 -66 93z"/>
<path d="M8514 11946 c-10 -26 4 -48 28 -44 17 2 23 10 23 28 0 18 -6 26 -23
28 -13 2 -25 -3 -28 -12z"/>
<path d="M10596 11117 c-59 -18 -96 -71 -103 -146 -12 -134 65 -219 181 -197
37 7 96 57 96 82 0 19 -39 18 -47 -1 -7 -19 -55 -45 -83 -45 -35 0 -76 27 -90
59 -17 42 -14 138 5 168 9 14 32 31 51 39 29 12 39 12 68 0 19 -8 39 -24 46
-35 11 -22 50 -29 50 -10 0 24 -42 68 -80 83 -46 18 -43 18 -94 3z"/>
<path d="M9937 11113 c-4 -3 -7 -80 -7 -170 l0 -163 89 0 c82 0 92 2 120 26
41 34 44 93 6 128 -28 26 -32 41 -11 49 21 8 28 55 14 85 -8 16 -27 32 -48 39
-38 13 -152 17 -163 6z m151 -49 c25 -17 29 -56 7 -74 -8 -7 -38 -13 -67 -14
l-53 -1 -3 39 c-2 21 -1 44 2 52 7 19 86 18 114 -2z m25 -152 c43 -37 5 -90
-70 -98 -65 -6 -73 1 -73 61 0 53 0 54 33 57 46 6 89 -2 110 -20z"/>
<path d="M10216 11113 c-19 -19 -2 -32 47 -35 l52 -3 3 -147 c2 -139 4 -148
22 -148 18 0 20 9 22 148 l3 147 53 3 c44 3 53 6 50 20 -3 15 -19 17 -125 19
-67 1 -124 -1 -127 -4z"/>
<path d="M11230 10890 c0 -5 5 -10 10 -10 6 0 10 5 10 10 0 6 -4 10 -10 10 -5
0 -10 -4 -10 -10z"/>
<path d="M11242 10730 c0 -14 2 -19 5 -12 2 6 2 18 0 25 -3 6 -5 1 -5 -13z"/>
<path d="M11630 10710 c0 -5 5 -10 10 -10 6 0 10 5 10 10 0 6 -4 10 -10 10 -5
0 -10 -4 -10 -10z"/>
<path d="M3888 9844 c-2 -106 1 -172 8 -181 19 -27 33 9 36 96 3 79 5 85 31
105 26 19 30 19 55 5 26 -14 27 -19 32 -111 3 -53 8 -99 12 -103 19 -20 28 14
28 109 0 94 -2 104 -23 124 -25 24 -100 31 -112 11 -15 -23 -28 0 -29 51 -1
43 -5 55 -18 58 -15 3 -17 -13 -20 -164z"/>
<path d="M5497 10003 c-4 -3 -7 -30 -7 -60 0 -39 -4 -53 -14 -53 -8 0 -18 5
-21 10 -12 19 -83 11 -110 -13 -53 -45 -50 -160 4 -209 35 -32 70 -36 107 -12
23 15 26 15 43 0 9 -9 21 -13 24 -9 4 3 7 84 7 180 0 137 -3 173 -13 173 -8 0
-17 -3 -20 -7z m-28 -148 c8 -7 16 -35 18 -62 6 -60 -22 -103 -67 -103 -45 0
-70 34 -70 96 0 45 4 56 27 74 29 23 66 21 92 -5z"/>
<path d="M9579 10003 c-3 -39 3 -339 8 -345 2 -5 11 -4 19 3 10 8 14 35 14 93
0 70 3 86 21 105 16 17 28 21 48 16 42 -10 51 -31 51 -121 0 -56 4 -85 13 -93
23 -18 27 -2 27 99 0 83 -3 101 -21 124 -16 21 -29 26 -64 26 -24 0 -47 -4
-50 -10 -14 -23 -24 -6 -27 47 -2 46 -7 59 -20 61 -10 2 -18 0 -19 -5z"/>
<path d="M2113 9993 c-9 -3 -13 -28 -13 -74 l0 -69 -90 0 -90 0 -1 53 c-2 80
-3 82 -24 82 -19 0 -20 -8 -23 -153 -2 -112 1 -158 10 -169 21 -25 38 12 38
84 l0 63 90 0 90 0 0 -67 c0 -71 10 -100 29 -89 13 8 16 332 4 339 -5 2 -14 2
-20 0z"/>
<path d="M4310 9990 l-25 -6 -3 -156 c-3 -180 -5 -176 88 -173 82 3 118 14
140 42 30 38 26 79 -11 114 l-32 30 22 20 c29 27 28 79 -1 106 -24 22 -129 36
-178 23z m145 -50 c8 -7 15 -23 15 -36 0 -34 -39 -56 -92 -52 -42 3 -43 4 -46
42 -5 62 1 69 58 64 27 -3 56 -11 65 -18z m15 -150 c25 -25 25 -41 1 -71 -16
-20 -28 -23 -77 -24 l-59 0 -3 58 -3 57 61 0 c47 0 64 -4 80 -20z"/>
<path d="M4594 9990 c-44 -8 -31 -24 23 -30 l48 -5 5 -147 c3 -80 8 -150 13
-154 22 -22 32 23 33 150 1 74 5 139 9 146 4 6 24 10 49 8 34 -2 41 1 41 15 0
16 -12 18 -96 20 -52 1 -109 0 -125 -3z"/>
<path d="M4934 9991 c-12 -5 -35 -26 -50 -47 -26 -34 -29 -45 -29 -118 0 -69
4 -86 23 -114 46 -63 123 -80 192 -41 44 25 69 66 45 75 -8 4 -27 -7 -46 -25
-54 -54 -135 -37 -165 35 -28 68 -9 157 41 190 42 28 83 20 126 -22 28 -28 42
-35 50 -27 13 13 1 38 -35 72 -28 27 -113 39 -152 22z"/>
<path d="M7793 9973 c-7 -3 -13 -17 -13 -33 0 -19 -6 -29 -20 -33 -11 -3 -20
-10 -20 -15 0 -6 9 -14 20 -17 18 -6 20 -15 20 -90 0 -64 4 -88 18 -104 22
-28 75 -33 80 -8 2 12 -3 17 -17 17 -30 0 -41 30 -41 109 0 69 0 69 30 76 38
8 39 33 3 37 -21 2 -29 9 -31 28 -4 30 -13 39 -29 33z"/>
<path d="M8072 9968 c-7 -7 -12 -22 -12 -35 0 -14 -6 -23 -15 -23 -19 0 -20
-26 -1 -37 9 -5 15 -36 18 -96 5 -97 15 -116 63 -120 21 -1 30 3 33 16 2 12
-3 17 -18 17 -33 0 -40 35 -31 166 1 7 12 15 26 18 14 4 25 13 25 21 0 9 -10
15 -25 15 -23 0 -29 8 -26 36 2 20 -24 35 -37 22z"/>
<path d="M2244 9892 c-33 -26 -44 -55 -44 -115 0 -66 24 -101 80 -118 70 -21
136 24 141 96 5 71 -1 92 -30 124 -25 27 -36 31 -78 31 -30 0 -56 -7 -69 -18z
m108 -32 c29 -22 39 -69 26 -117 -15 -55 -80 -72 -118 -31 -30 33 -28 111 5
143 29 30 54 32 87 5z"/>
<path d="M2457 9903 c-6 -11 59 -233 72 -246 18 -18 36 11 61 101 13 46 26 79
31 75 4 -4 17 -42 29 -83 24 -83 35 -101 54 -94 12 5 22 30 49 124 5 19 13 45
18 58 15 39 11 74 -7 70 -12 -2 -23 -29 -39 -90 -12 -49 -24 -91 -28 -94 -3
-3 -11 14 -17 37 -35 134 -41 149 -61 149 -11 0 -21 -6 -23 -12 -2 -7 -8 -29
-13 -48 -6 -19 -16 -56 -23 -82 -7 -26 -16 -45 -20 -43 -5 3 -13 29 -20 58
-21 98 -31 127 -45 127 -8 0 -16 -3 -18 -7z"/>
<path d="M2954 9897 c-2 -7 -3 -65 -2 -128 2 -93 6 -114 18 -114 12 0 16 16
18 75 3 99 8 117 37 136 23 15 27 15 50 0 24 -16 25 -21 25 -110 0 -71 3 -95
14 -99 22 -9 26 2 26 79 0 40 4 84 10 98 13 35 50 52 79 37 19 -11 21 -20 21
-105 0 -65 4 -97 13 -105 25 -20 37 9 37 94 0 105 -20 149 -70 153 -20 2 -49
-4 -67 -14 -31 -16 -34 -16 -51 -1 -22 20 -64 22 -93 5 -17 -10 -23 -10 -26 0
-6 16 -32 16 -39 -1z"/>
<path d="M3359 9893 c-1 -10 -1 -58 0 -108 2 -85 3 -91 29 -112 32 -27 63 -29
98 -7 23 16 26 16 38 -1 27 -37 36 -7 36 121 0 115 -1 124 -19 124 -17 0 -19
-9 -23 -95 -3 -103 -15 -124 -68 -125 -42 0 -50 17 -50 106 0 45 -3 89 -6 98
-8 22 -34 20 -35 -1z"/>
<path d="M3654 9876 c-30 -30 -34 -40 -34 -85 0 -86 45 -141 115 -141 44 0 94
36 95 68 0 18 -18 15 -47 -8 -56 -44 -123 -5 -123 70 0 92 75 127 138 63 15
-15 32 -9 32 12 0 26 -51 55 -97 55 -38 0 -50 -5 -79 -34z"/>
<path d="M5634 9892 c-32 -26 -44 -55 -44 -112 0 -58 19 -94 61 -116 54 -27
115 -8 149 49 34 56 19 146 -31 181 -31 21 -108 21 -135 -2z m109 -32 c32 -26
44 -79 27 -121 -22 -52 -76 -65 -117 -27 -33 31 -33 109 2 143 29 30 54 31 88
5z"/>
<path d="M5983 9888 c2 -12 19 -61 37 -108 48 -125 49 -146 11 -167 -38 -22
-40 -43 -5 -43 39 0 62 34 115 175 53 142 58 168 33 163 -11 -2 -28 -34 -49
-95 -17 -51 -33 -95 -36 -98 -3 -2 -21 39 -40 93 -25 71 -39 98 -53 100 -15 3
-18 -1 -13 -20z"/>
<path d="M6259 9882 c-27 -24 -33 -37 -37 -84 -5 -66 14 -110 58 -133 35 -18
53 -19 94 -4 86 31 103 171 28 229 -39 31 -104 27 -143 -8z m118 -26 c24 -21
28 -31 27 -75 -1 -62 -23 -91 -70 -91 -59 0 -92 73 -64 145 9 24 38 43 67 44
7 1 25 -10 40 -23z"/>
<path d="M6504 9895 c-3 -8 -4 -56 -3 -106 4 -85 6 -92 32 -115 32 -27 60 -30
97 -9 22 12 27 11 43 -3 30 -27 37 1 35 128 -3 107 -4 115 -23 115 -18 0 -20
-7 -20 -87 -1 -102 -17 -131 -69 -126 -43 4 -56 36 -56 136 0 67 -3 82 -15 82
-9 0 -18 -7 -21 -15z"/>
<path d="M6870 9902 c0 -4 11 -46 25 -93 13 -46 25 -91 25 -100 0 -9 9 -27 19
-40 27 -33 38 -19 65 77 13 43 27 79 32 81 5 2 20 -35 33 -81 12 -47 29 -87
37 -90 17 -6 44 19 44 42 0 9 12 55 25 101 30 101 31 114 8 109 -18 -3 -52
-105 -53 -156 0 -47 -25 -14 -47 61 -25 87 -29 97 -47 97 -16 0 -29 -29 -46
-100 -7 -30 -14 -61 -16 -67 -6 -23 -23 -14 -29 15 -13 62 -29 118 -37 135 -9
17 -38 24 -38 9z"/>
<path d="M7272 9890 c-20 -19 -30 -50 -16 -50 4 0 22 9 41 21 40 25 80 19 92
-14 14 -37 3 -47 -50 -47 -57 0 -94 -20 -103 -55 -8 -32 11 -70 41 -84 33 -15
50 -14 84 6 27 16 29 16 42 -1 12 -16 14 -16 26 -2 9 11 12 43 9 112 -3 86 -5
98 -27 115 -33 27 -110 26 -139 -1z m118 -144 c0 -34 -32 -58 -72 -54 -29 3
-33 7 -36 35 -3 30 -1 32 35 38 21 4 43 8 48 9 17 5 25 -4 25 -28z"/>
<path d="M7500 9793 c0 -65 4 -124 9 -132 19 -29 31 2 31 80 0 44 5 89 10 99
25 46 88 48 109 4 6 -14 11 -60 11 -103 0 -82 3 -93 26 -84 11 4 14 27 14 95
0 89 -9 122 -39 145 -21 16 -76 16 -102 1 -17 -10 -23 -10 -26 0 -3 6 -13 12
-24 12 -18 0 -19 -8 -19 -117z"/>
<path d="M8244 9892 c-32 -25 -44 -55 -44 -107 0 -102 78 -162 158 -121 39 20
59 46 66 88 9 51 -9 113 -41 137 -33 27 -109 28 -139 3z m112 -35 c33 -29 39
-98 11 -140 -24 -37 -77 -38 -106 -1 -31 39 -29 107 4 139 30 31 56 32 91 2z"/>
<path d="M8606 9893 c-9 -34 -4 -298 6 -311 18 -22 35 4 31 47 -5 46 8 58 39
37 28 -20 51 -20 88 -1 76 39 82 176 10 232 -21 17 -81 16 -108 -3 -20 -14
-23 -14 -28 0 -8 21 -31 20 -38 -1z m164 -39 c23 -22 20 -116 -4 -143 -36 -40
-114 -12 -117 42 -3 59 4 83 28 105 28 25 65 24 93 -4z"/>
<path d="M8888 9883 c-3 -16 -4 -64 -2 -108 2 -72 5 -82 29 -102 31 -27 71
-29 103 -7 21 15 25 15 41 0 10 -9 21 -13 24 -9 4 3 7 62 7 130 0 113 -2 124
-17 121 -15 -3 -19 -18 -23 -95 -6 -101 -18 -122 -70 -123 -42 0 -50 17 -50
106 0 45 -3 89 -6 98 -10 25 -31 19 -36 -11z"/>
<path d="M9152 9783 c3 -106 6 -128 18 -128 12 0 16 18 18 90 3 98 14 122 60
127 39 4 43 38 5 38 -16 0 -35 -6 -42 -12 -11 -10 -14 -10 -18 0 -3 6 -13 12
-24 12 -19 0 -19 -7 -17 -127z"/>
<path d="M9349 9882 c-25 -23 -33 -38 -36 -79 -9 -94 47 -162 125 -149 37 6
82 40 82 63 0 19 -24 16 -45 -7 -24 -26 -76 -26 -100 0 -22 25 -30 98 -13 129
7 14 26 29 41 34 23 7 35 4 68 -19 53 -37 73 -20 29 25 -43 43 -105 44 -151 3z"/>
<path d="M9869 9892 c-15 -13 -20 -25 -16 -36 7 -16 10 -16 42 4 40 25 78 21
95 -9 19 -36 2 -51 -55 -51 -43 0 -57 -5 -79 -26 -31 -32 -33 -62 -6 -92 30
-32 66 -38 108 -18 33 16 36 16 45 1 7 -13 12 -14 23 -4 10 8 14 35 14 96 0
87 -15 135 -45 147 -34 13 -103 6 -126 -12z m128 -138 c2 -6 -6 -23 -17 -37
-27 -34 -79 -37 -98 -7 -15 24 -9 38 22 50 28 12 88 8 93 -6z"/>
<path d="M10122 9890 c-27 -25 -29 -71 -4 -92 9 -9 41 -23 70 -33 43 -14 52
-21 52 -40 0 -12 -7 -26 -16 -29 -28 -11 -71 -6 -84 9 -13 15 -50 21 -50 8 1
-14 24 -39 47 -51 67 -36 165 19 149 84 -7 25 -52 54 -84 54 -11 0 -30 8 -43
18 -50 41 19 82 72 43 30 -22 49 -21 49 3 0 44 -119 62 -158 26z"/>
<path d="M10367 9886 c-46 -43 -55 -145 -16 -192 18 -22 64 -44 92 -44 26 0
88 38 95 58 5 17 -29 15 -52 -3 -11 -8 -32 -15 -46 -15 -29 0 -70 37 -70 63 0
15 12 17 84 17 94 0 101 5 85 64 -20 74 -117 103 -172 52z m121 -34 c25 -33
11 -47 -51 -50 -47 -2 -58 0 -64 14 -4 12 3 25 22 41 31 27 70 25 93 -5z"/>
<path d="M9351 8494 c-35 -25 -51 -75 -51 -162 0 -66 4 -85 23 -113 29 -43 63
-61 106 -55 66 10 101 69 101 172 0 73 -11 109 -48 147 -30 32 -93 37 -131 11z
m121 -64 c24 -50 23 -146 -2 -188 -23 -38 -40 -47 -75 -38 -36 9 -55 54 -55
133 0 51 5 76 20 101 18 29 25 33 58 30 31 -3 40 -9 54 -38z"/>
<path d="M9732 8494 c-40 -28 -56 -73 -57 -160 0 -71 3 -85 27 -121 29 -45 66
-59 117 -48 53 11 90 79 91 165 0 107 -47 180 -117 180 -21 0 -49 -7 -61 -16z
m112 -57 c17 -23 21 -43 21 -102 0 -88 -22 -128 -73 -133 -48 -5 -72 41 -72
139 0 63 4 81 21 103 28 36 73 33 103 -7z"/>
<path d="M10010 8480 c-73 -79 -59 -261 25 -306 37 -20 93 -13 118 14 45 50
62 177 33 246 -33 78 -124 102 -176 46z m127 -42 c12 -23 18 -56 18 -110 0
-67 -3 -79 -24 -102 -29 -31 -64 -33 -91 -6 -27 27 -33 58 -28 139 4 83 23
111 74 111 27 0 37 -6 51 -32z"/>
<path d="M10299 8481 c-30 -31 -38 -61 -16 -61 7 0 23 11 35 25 15 17 32 25
54 25 42 0 55 -9 63 -40 8 -35 -15 -61 -61 -69 -54 -9 -53 -35 1 -39 49 -4 75
-26 75 -63 0 -32 -31 -59 -68 -59 -30 0 -78 25 -85 45 -9 21 -37 19 -37 -4 0
-47 81 -88 148 -75 80 16 111 108 53 157 l-30 25 25 23 c58 54 8 139 -83 139
-36 0 -50 -6 -74 -29z"/>
<path d="M10689 8498 c-16 -13 -61 -80 -121 -182 -16 -27 -27 -55 -24 -62 3
-9 30 -14 83 -16 l78 -3 3 -32 c2 -25 8 -33 23 -33 15 0 19 7 19 30 0 23 6 33
25 40 32 12 32 28 0 36 -24 6 -24 8 -27 118 -3 102 -5 111 -23 114 -11 1 -27
-3 -36 -10z m21 -133 l0 -85 -55 0 c-31 0 -55 4 -55 10 0 15 93 160 103 160 4
0 7 -38 7 -85z"/>
<path d="M11230 8280 c0 -5 5 -10 10 -10 6 0 10 5 10 10 0 6 -4 10 -10 10 -5
0 -10 -4 -10 -10z"/>
<path d="M11331 8214 c0 -11 3 -14 6 -6 3 7 2 16 -1 19 -3 4 -6 -2 -5 -13z"/>
<path d="M9574 8205 c-8 -20 4 -35 27 -35 14 0 19 7 19 25 0 18 -5 25 -20 25
-11 0 -23 -7 -26 -15z"/>
<path d="M11635 8109 c-10 -15 3 -25 16 -12 7 7 7 13 1 17 -6 3 -14 1 -17 -5z"/>
<path d="M2327 7393 c-4 -3 -7 -82 -7 -174 0 -134 3 -168 14 -172 22 -9 26 2
26 80 0 75 10 108 39 130 21 16 42 16 66 -3 17 -12 21 -30 25 -112 4 -77 8
-97 20 -97 12 0 15 19 15 108 0 104 -1 110 -25 129 -24 20 -63 21 -117 3 -21
-7 -22 -4 -21 36 0 70 -1 79 -15 79 -8 0 -17 -3 -20 -7z"/>
<path d="M3122 7378 c2 -15 10 -23 23 -23 30 0 27 39 -3 43 -20 3 -23 0 -20
-20z"/>
<path d="M3757 7393 c-4 -3 -7 -82 -7 -174 0 -134 3 -168 14 -172 22 -9 26 2
26 80 0 75 10 108 39 130 21 16 43 16 67 -1 16 -12 20 -30 24 -113 4 -78 8
-98 20 -98 12 0 16 19 18 103 3 97 2 103 -22 127 -29 29 -80 33 -114 9 -19
-13 -23 -13 -28 -1 -3 8 -4 18 -3 23 1 5 1 28 0 52 -1 39 -15 54 -34 35z"/>
<path d="M5220 7375 c0 -22 4 -26 23 -23 14 2 22 10 22 23 0 13 -8 21 -22 23
-19 3 -23 -1 -23 -23z"/>
<path d="M5830 7226 c0 -96 4 -177 8 -180 4 -2 13 -1 20 3 9 6 12 51 10 177
-3 151 -5 169 -20 172 -17 3 -18 -10 -18 -172z"/>
<path d="M7242 7223 c3 -150 5 -178 18 -178 13 0 15 28 18 178 2 173 2 177
-18 177 -20 0 -20 -4 -18 -177z"/>
<path d="M7997 7386 c-7 -19 18 -40 39 -32 8 3 14 14 12 23 -4 22 -43 29 -51
9z"/>
<path d="M1862 7353 c13 -72 79 -297 89 -304 22 -13 35 1 52 61 9 33 25 87 34
120 10 33 22 59 27 57 5 -2 24 -54 42 -116 17 -62 37 -118 43 -124 15 -15 38
8 46 46 4 18 22 87 41 154 19 67 34 124 34 128 0 3 -10 5 -21 3 -19 -3 -25
-18 -46 -103 -13 -55 -26 -110 -29 -122 -6 -31 -22 -29 -30 5 -3 15 -18 70
-33 122 -23 80 -30 95 -49 98 -12 2 -24 -3 -26 -10 -2 -7 -18 -62 -34 -123
-16 -60 -33 -110 -38 -110 -4 0 -22 55 -38 123 -25 103 -33 122 -49 122 -15 0
-18 -5 -15 -27z"/>
<path d="M2857 7353 c-4 -3 -7 -17 -7 -30 0 -14 -6 -23 -15 -23 -19 0 -20 -26
-1 -33 10 -4 15 -30 17 -96 4 -100 15 -120 64 -124 37 -3 49 30 13 35 -26 3
-35 31 -37 114 -1 52 13 78 40 72 8 -2 14 4 14 12 0 8 -10 16 -23 18 -16 3
-25 12 -29 33 -5 27 -21 37 -36 22z"/>
<path d="M3610 7334 c0 -17 -6 -28 -20 -31 -11 -3 -20 -10 -20 -17 0 -6 9 -17
20 -24 17 -11 20 -23 20 -95 0 -45 4 -87 8 -93 12 -18 52 -36 68 -30 21 8 17
36 -6 36 -25 0 -32 27 -28 115 3 64 5 70 26 73 12 2 22 10 22 17 0 7 -10 15
-22 17 -17 2 -24 11 -26 31 -5 37 -42 39 -42 1z"/>
<path d="M6470 7331 c0 -20 -6 -30 -20 -34 -11 -3 -20 -10 -20 -15 0 -5 9 -12
20 -15 18 -5 20 -14 20 -95 0 -99 12 -121 66 -125 36 -3 38 19 4 36 -23 12
-25 18 -28 95 l-3 82 31 6 c35 8 35 26 -1 34 -17 4 -25 14 -27 33 -5 40 -42
38 -42 -2z"/>
<path d="M2612 7284 c-21 -15 -31 -54 -13 -54 4 0 20 9 34 20 32 25 59 25 81
1 33 -36 17 -55 -48 -61 -45 -4 -62 -11 -77 -29 -26 -32 -24 -67 6 -96 28 -29
70 -32 103 -9 21 15 25 15 41 0 28 -26 41 -1 41 81 0 81 -17 136 -48 152 -30
16 -94 13 -120 -5z m124 -135 c3 -6 -2 -23 -13 -37 -16 -21 -29 -27 -58 -27
-52 0 -70 28 -36 56 25 21 95 26 107 8z"/>
<path d="M3127 7294 c-4 -4 -7 -60 -7 -125 0 -96 3 -118 15 -123 23 -8 26 9
23 134 -3 105 -11 134 -31 114z"/>
<path d="M3255 7275 c-50 -49 -26 -94 64 -121 55 -16 71 -35 51 -59 -16 -20
-84 -19 -100 0 -16 19 -40 19 -40 1 0 -24 50 -56 87 -56 69 0 112 41 99 96 -7
25 -52 54 -84 54 -11 0 -30 9 -43 19 -23 19 -24 19 -5 40 24 26 58 27 81 1 23
-26 45 -26 45 0 0 49 -114 67 -155 25z"/>
<path d="M4072 7290 c-35 -15 -65 -90 -56 -145 15 -103 138 -140 203 -61 19
23 -14 34 -38 12 -27 -24 -86 -21 -105 6 -9 12 -16 30 -16 40 0 16 10 18 84
18 50 0 88 4 91 11 4 6 -1 31 -10 55 -25 65 -86 90 -153 64z m94 -43 c42 -37
28 -57 -41 -57 -43 0 -57 4 -62 17 -7 18 37 63 62 63 8 0 26 -11 41 -23z"/>
<path d="M4451 7284 c-13 -9 -29 -32 -37 -50 -39 -94 14 -194 103 -194 35 0
93 34 93 55 0 19 -20 19 -48 -1 -32 -22 -81 -14 -105 18 -11 14 -16 31 -13 37
4 7 41 11 92 11 l84 0 0 36 c0 52 -53 104 -107 104 -21 0 -49 -7 -62 -16z
m105 -39 c37 -37 27 -50 -45 -53 l-62 -3 3 28 c2 17 12 32 28 40 36 18 48 16
76 -12z"/>
<path d="M4699 7269 c-36 -39 -43 -108 -17 -172 20 -51 92 -72 136 -41 30 21
35 14 36 -43 1 -36 5 -48 16 -48 13 0 15 26 18 159 3 163 -4 199 -31 161 -13
-17 -15 -17 -38 -2 -39 28 -86 22 -120 -14z m110 -14 c73 -37 46 -175 -34
-175 -44 0 -65 29 -65 93 0 38 5 53 25 72 28 29 36 30 74 10z"/>
<path d="M4958 7288 c-20 -58 -3 -194 28 -225 28 -27 79 -31 106 -6 17 15 19
15 32 -3 28 -37 37 -4 34 122 -2 98 -6 119 -18 119 -12 0 -16 -19 -20 -91 -6
-104 -16 -124 -67 -124 -29 0 -36 5 -49 35 -8 20 -14 67 -14 110 0 57 -3 75
-14 75 -8 0 -16 -6 -18 -12z"/>
<path d="M5227 7294 c-4 -4 -7 -60 -7 -125 0 -96 3 -118 15 -123 23 -8 26 9
23 134 -3 105 -11 134 -31 114z"/>
<path d="M5310 7287 c0 -8 9 -36 19 -63 11 -27 30 -77 43 -111 21 -59 39 -80
58 -68 4 2 18 31 30 62 12 32 30 80 41 107 24 61 25 89 2 84 -11 -2 -26 -31
-45 -93 -16 -49 -32 -93 -37 -98 -5 -5 -24 36 -42 90 -24 68 -39 99 -51 101
-11 2 -18 -3 -18 -11z"/>
<path d="M5594 7277 c-22 -19 -26 -28 -17 -37 8 -9 18 -7 42 11 25 18 36 21
58 13 31 -11 48 -35 40 -58 -5 -12 -19 -16 -55 -16 -65 0 -102 -28 -102 -75 0
-61 76 -96 128 -59 22 15 24 15 36 -2 25 -34 36 -6 36 95 0 122 -11 141 -86
148 -43 5 -54 2 -80 -20z m126 -137 c0 -29 -35 -60 -68 -60 -32 0 -52 16 -52
42 0 24 27 37 78 38 35 0 42 -3 42 -20z"/>
<path d="M5963 7276 c-40 -34 -57 -94 -42 -146 16 -54 48 -81 102 -87 39 -5
48 -2 78 25 40 35 31 55 -12 29 -41 -23 -80 -22 -108 4 -42 39 -25 54 67 57
93 3 101 9 82 66 -24 75 -109 100 -167 52z m98 -19 c9 -7 21 -22 28 -35 15
-29 3 -34 -69 -30 -62 4 -72 17 -36 53 27 27 52 31 77 12z"/>
<path d="M6194 7287 c-2 -7 -3 -65 -2 -128 2 -93 6 -114 18 -114 12 0 16 16
18 70 3 91 8 110 34 135 28 26 50 25 74 -1 15 -16 20 -41 24 -112 4 -73 8 -92
20 -92 12 0 16 18 18 89 2 54 -2 101 -9 119 -18 44 -85 61 -130 35 -17 -10
-23 -10 -26 0 -6 16 -32 16 -39 -1z"/>
<path d="M6736 7291 c-3 -4 12 -55 34 -112 22 -57 40 -109 40 -115 0 -18 32
-26 45 -12 13 14 82 191 87 223 2 12 -3 21 -13 23 -13 2 -24 -18 -49 -92 -17
-53 -35 -96 -40 -96 -5 0 -21 37 -36 83 -33 100 -51 126 -68 98z"/>
<path d="M7003 7274 c-19 -19 -23 -28 -14 -37 8 -8 19 -5 41 11 16 12 37 22
47 22 30 -1 55 -26 51 -52 -3 -20 -10 -24 -63 -29 -44 -5 -64 -12 -77 -29 -55
-68 37 -155 110 -104 20 14 24 14 38 0 9 -9 20 -14 25 -11 5 4 9 53 9 110 0
100 -1 104 -26 124 -40 31 -107 29 -141 -5z m127 -136 c0 -12 -7 -30 -17 -40
-18 -20 -73 -24 -91 -6 -32 32 2 68 64 68 38 0 44 -3 44 -22z"/>
<path d="M7357 7294 c-4 -4 -7 -52 -7 -106 0 -92 2 -101 25 -123 27 -28 63
-32 104 -10 26 13 30 13 41 0 10 -12 16 -13 26 -4 10 8 14 41 14 126 0 95 -3
115 -16 120 -25 9 -32 -14 -31 -98 1 -92 -15 -119 -68 -119 -43 0 -54 25 -57
129 -3 77 -12 103 -31 85z"/>
<path d="M7663 7290 c-28 -12 -63 -80 -63 -123 0 -63 61 -127 120 -127 32 0
90 35 90 55 0 19 -19 19 -44 0 -44 -33 -109 -10 -118 40 -3 19 3 20 85 23 l87
3 0 37 c0 56 -34 93 -90 98 -25 2 -55 0 -67 -6z m97 -44 c35 -38 21 -56 -45
-56 -69 0 -83 20 -41 57 35 29 57 29 86 -1z"/>
<path d="M8004 7287 c-2 -7 -3 -65 -2 -128 2 -93 6 -114 18 -114 12 0 15 22
18 128 2 110 0 127 -13 127 -9 0 -18 -6 -21 -13z"/>
<path d="M8106 7284 c-3 -9 -6 -64 -6 -124 0 -83 3 -109 14 -113 22 -9 26 2
26 80 0 75 10 108 39 130 23 18 48 16 71 -7 17 -17 20 -33 20 -109 0 -67 3
-90 14 -94 23 -9 26 2 26 103 0 89 -2 99 -25 124 -28 30 -78 35 -113 10 -20
-14 -23 -14 -28 0 -8 21 -30 20 -38 0z"/>
<path d="M8530 7273 c-38 -34 -50 -97 -30 -158 26 -79 137 -101 187 -36 30 39
1 57 -32 21 -44 -49 -125 -7 -125 66 0 91 77 133 130 70 17 -22 40 -20 40 2 0
30 -36 55 -88 60 -43 4 -53 1 -82 -25z"/>
<path d="M8754 7286 c-4 -9 -4 -57 -2 -108 4 -84 6 -93 32 -114 31 -27 72 -31
103 -9 18 13 22 13 33 0 6 -7 18 -11 26 -8 22 8 16 248 -6 248 -12 0 -16 -19
-21 -92 -6 -101 -18 -123 -67 -123 -45 0 -56 23 -62 123 -3 60 -9 92 -17 95
-7 2 -16 -4 -19 -12z"/>
<path d="M9027 7293 c-10 -9 -9 -241 1 -247 22 -13 31 15 34 99 l3 90 43 20
c23 11 42 25 42 32 0 16 -34 17 -62 2 -14 -8 -23 -8 -31 0 -13 13 -21 14 -30
4z"/>
<path d="M9199 7293 c0 -5 -2 -57 -3 -118 -3 -111 4 -138 30 -128 10 4 14 25
14 87 0 93 12 120 61 130 18 3 29 11 27 18 -6 18 -46 22 -64 7 -11 -9 -18 -9
-26 -1 -13 13 -37 16 -39 5z"/>
<path d="M9403 7288 c-13 -6 -32 -31 -44 -56 -20 -41 -21 -50 -10 -91 16 -62
48 -92 102 -98 38 -4 49 0 79 25 31 27 33 31 17 37 -11 5 -25 1 -36 -9 -38
-35 -128 -4 -119 42 3 14 19 18 88 22 l85 5 -1 33 c-4 80 -87 126 -161 90z
m81 -30 c27 -11 42 -40 31 -58 -3 -5 -31 -10 -61 -10 -67 0 -82 20 -40 57 31
26 36 27 70 11z"/>
<path d="M9624 7287 c-2 -7 -3 -65 -2 -128 2 -93 6 -114 18 -114 12 0 16 19
20 93 4 83 8 96 29 113 13 10 29 19 36 19 7 0 23 -9 36 -19 21 -17 25 -30 29
-113 4 -74 8 -93 20 -93 12 0 16 18 18 89 2 50 -2 102 -8 117 -19 44 -85 63
-133 38 -16 -9 -22 -9 -25 0 -5 15 -31 14 -38 -2z"/>
<path d="M9943 7290 c-48 -19 -74 -100 -53 -164 15 -45 63 -86 101 -86 49 0
109 41 109 74 0 14 -37 4 -53 -14 -11 -13 -29 -20 -52 -20 -29 0 -39 6 -55 33
-24 38 -25 68 -5 107 28 54 65 63 109 25 32 -27 42 -30 51 -15 4 6 -7 24 -24
40 -31 32 -80 39 -128 20z"/>
<path d="M10135 7290 c-3 -5 -2 -18 3 -27 5 -10 26 -64 46 -120 40 -112 39
-135 -10 -153 -33 -13 -30 -30 5 -30 22 0 37 9 55 33 15 19 26 39 26 46 0 6 4
19 10 29 21 38 82 223 76 230 -17 16 -42 -21 -67 -98 -14 -46 -31 -86 -36 -87
-6 -2 -22 34 -37 79 -34 101 -53 128 -71 98z"/>
<path d="M10505 7290 c-3 -5 13 -59 35 -119 47 -125 48 -159 8 -179 -33 -15
-37 -32 -7 -32 53 0 70 25 134 206 38 108 42 134 21 134 -13 0 -28 -33 -61
-137 -9 -29 -20 -55 -24 -58 -4 -2 -18 28 -31 68 -38 116 -57 146 -75 117z"/>
<path d="M10790 7273 c-28 -25 -34 -38 -38 -85 -5 -66 14 -110 58 -133 67 -35
141 -4 160 66 27 99 -12 168 -98 177 -44 4 -53 1 -82 -25z m118 -23 c27 -25
36 -61 28 -102 -9 -44 -33 -68 -71 -68 -39 0 -64 25 -72 74 -14 85 60 147 115
96z"/>
<path d="M11037 7294 c-4 -4 -7 -50 -7 -101 0 -91 1 -96 29 -124 33 -32 74
-38 108 -14 18 13 22 13 33 0 6 -7 18 -11 26 -8 12 4 14 28 12 127 -3 103 -5
121 -20 124 -14 3 -17 -10 -20 -93 -3 -106 -14 -125 -69 -125 -42 0 -53 24
-59 123 -5 83 -14 109 -33 91z"/>
<path d="M3267 6774 c-4 -4 -7 -34 -7 -66 0 -32 -2 -58 -3 -58 -2 0 -18 7 -36
16 -92 46 -173 -48 -141 -164 19 -72 93 -105 148 -66 22 15 24 15 37 -2 29
-39 36 -3 33 171 -3 158 -9 191 -31 169z m-31 -155 c13 -15 19 -36 19 -69 0
-59 -24 -90 -70 -90 -46 0 -70 31 -70 90 0 59 24 90 70 90 20 0 39 -8 51 -21z"/>
<path d="M4057 6774 c-4 -4 -7 -83 -7 -175 0 -170 7 -204 36 -165 12 17 14 17
36 2 68 -48 152 15 152 114 0 62 -28 108 -76 122 -30 9 -44 8 -66 -3 -15 -7
-30 -15 -34 -17 -4 -2 -8 25 -10 59 -3 57 -14 80 -31 63z m169 -189 c7 -40 -1
-91 -17 -112 -6 -7 -26 -13 -45 -13 -47 0 -74 32 -74 86 0 58 8 74 44 89 44
19 83 -2 92 -50z"/>
<path d="M7813 6765 c-12 -9 -25 -31 -29 -50 -4 -21 -13 -37 -25 -40 -25 -8
-24 -25 1 -32 17 -5 20 -15 22 -112 2 -86 6 -106 18 -106 12 0 16 21 20 105 5
100 6 104 29 110 27 6 41 30 19 30 -8 0 -22 6 -32 13 -24 18 -13 55 17 59 12
2 23 11 25 21 4 22 -35 23 -65 2z"/>
<path d="M9062 6603 c3 -150 5 -178 18 -178 12 0 16 19 20 90 3 50 8 95 12
102 5 6 21 16 37 21 56 20 84 -33 78 -146 -3 -63 5 -81 27 -63 21 18 15 180
-8 216 -21 32 -75 42 -115 22 l-30 -15 -3 61 c-2 50 -6 62 -21 65 -16 3 -17
-9 -15 -175z"/>
<path d="M10225 6768 c-3 -8 -4 -88 -3 -178 3 -139 5 -165 18 -165 13 0 15 26
15 174 0 131 -3 175 -12 178 -7 3 -15 -2 -18 -9z"/>
<path d="M10325 6768 c-3 -8 -4 -88 -3 -178 3 -139 5 -165 18 -165 13 0 15 26
15 174 0 131 -3 175 -12 178 -7 3 -15 -2 -18 -9z"/>
<path d="M5035 6756 c-45 -19 -70 -82 -69 -171 1 -109 40 -165 115 -165 74 0
119 70 119 185 0 59 -34 131 -71 150 -34 18 -55 18 -94 1z m87 -43 c43 -52 50
-141 17 -210 -11 -24 -25 -43 -29 -43 -5 0 -15 -3 -24 -6 -10 -4 -27 6 -46 24
-28 29 -30 35 -30 109 0 96 22 143 68 143 16 0 35 -8 44 -17z"/>
<path d="M5413 6751 c-42 -26 -63 -78 -63 -157 0 -73 11 -109 48 -146 20 -22
35 -28 70 -28 58 0 96 38 113 115 33 150 -67 279 -168 216z m87 -31 c25 -13
40 -62 40 -132 0 -93 -40 -149 -92 -129 -38 14 -53 56 -53 142 0 68 3 80 24
103 26 27 50 32 81 16z"/>
<path d="M5699 6755 c-54 -29 -85 -159 -59 -241 20 -63 56 -94 108 -94 35 0
49 6 72 28 75 76 60 266 -25 306 -40 19 -62 20 -96 1z m104 -63 c26 -44 28
-159 3 -196 -38 -60 -88 -56 -117 7 -30 67 -22 165 18 209 27 30 73 20 96 -20z"/>
<path d="M6010 6760 c-33 -8 -80 -50 -80 -71 0 -24 31 -19 56 10 46 55 118 36
112 -29 -3 -32 -7 -36 -50 -50 -57 -18 -64 -40 -13 -40 25 0 44 -8 60 -25 27
-27 30 -37 15 -65 -22 -42 -118 -42 -140 0 -6 11 -17 20 -25 20 -26 0 -16 -37
16 -64 54 -46 160 -30 187 29 19 41 14 64 -18 97 l-30 30 25 30 c14 16 25 36
25 44 0 28 -30 73 -52 79 -43 12 -53 13 -88 5z"/>
<path d="M7394 6756 c-84 -37 -114 -172 -62 -274 43 -83 200 -85 243 -2 14 27
14 31 1 36 -10 4 -28 -6 -47 -25 -25 -25 -39 -31 -75 -31 -69 0 -104 46 -104
139 0 118 106 171 181 90 15 -16 32 -29 38 -29 20 0 12 46 -11 68 -45 42 -107
52 -164 28z"/>
<path d="M6280 6646 c-39 -63 -70 -123 -68 -133 3 -15 16 -19 83 -23 80 -5 80
-5 85 -35 7 -41 34 -40 38 1 2 22 9 34 23 37 25 7 25 33 -1 40 -17 4 -20 15
-22 113 l-3 109 -31 3 c-31 3 -35 -2 -104 -112z m99 -14 c1 -98 -2 -102 -59
-102 -27 0 -51 4 -54 9 -8 12 94 172 104 166 5 -3 9 -35 9 -73z"/>
<path d="M6737 6753 c-9 -8 -9 -296 -1 -317 5 -12 21 -16 75 -16 74 0 133 18
155 48 24 31 17 81 -16 112 -29 27 -29 28 -10 45 31 28 27 88 -6 114 -22 17
-41 21 -109 21 -45 0 -85 -3 -88 -7z m164 -43 c25 -14 24 -52 -1 -75 -23 -21
-109 -23 -122 -3 -9 16 -11 72 -1 81 10 11 102 8 124 -3z m13 -151 c33 -26 33
-52 -1 -79 -21 -17 -38 -20 -82 -18 -56 3 -56 3 -59 37 -2 19 -1 44 2 57 6 22
12 24 60 24 39 0 60 -6 80 -21z"/>
<path d="M7014 6749 c-11 -18 8 -28 61 -31 l50 -3 1 -138 c1 -79 6 -143 12
-149 25 -25 32 7 32 148 l0 144 39 0 c49 0 71 8 71 26 0 11 -25 14 -129 14
-83 0 -132 -4 -137 -11z"/>
<path d="M3510 6717 c0 -14 -10 -32 -22 -41 l-23 -16 23 -16 c20 -15 22 -25
22 -105 0 -83 2 -90 25 -105 29 -19 59 -15 63 8 2 11 -5 18 -20 20 -22 3 -23
8 -26 90 -3 83 -2 87 19 90 31 4 35 26 7 30 -17 2 -24 11 -28 33 -7 38 -40 48
-40 12z"/>
<path d="M8910 6711 c0 -20 -6 -30 -20 -34 -11 -3 -20 -10 -20 -15 0 -6 9 -14
20 -17 18 -6 20 -15 20 -94 0 -79 2 -90 24 -110 25 -24 71 -26 71 -3 0 7 -11
18 -25 25 -24 12 -25 17 -25 92 0 75 1 79 24 85 36 8 36 26 1 38 -23 8 -30 17
-30 36 0 19 -5 26 -20 26 -15 0 -20 -7 -20 -29z"/>
<path d="M1911 6668 c-28 -15 -48 -44 -38 -54 4 -5 21 0 36 9 36 21 75 22 95
1 31 -31 13 -49 -57 -57 -62 -6 -87 -29 -87 -78 0 -28 6 -42 22 -53 28 -20 78
-21 104 -2 17 13 21 12 37 -2 31 -27 39 -2 35 102 -2 81 -6 99 -24 116 -26 26
-90 35 -123 18z m104 -138 c3 -5 0 -22 -7 -37 -24 -50 -108 -49 -108 2 0 17 7
29 23 35 30 12 84 12 92 0z"/>
<path d="M2163 6670 c-66 -27 -82 -143 -28 -200 23 -24 37 -30 71 -30 25 0 47
6 54 15 19 23 30 18 30 -15 0 -63 -74 -92 -128 -50 -16 13 -29 17 -35 11 -30
-30 51 -77 111 -66 19 4 48 19 64 35 l28 28 0 136 c0 136 -9 169 -35 132 -11
-15 -15 -15 -41 -1 -32 17 -58 18 -91 5z m107 -58 c37 -46 21 -111 -32 -131
-36 -14 -66 -3 -83 30 -19 36 -19 69 1 97 32 46 80 48 114 4z"/>
<path d="M2407 6673 c-9 -8 -9 -237 -1 -246 3 -3 12 -3 20 0 11 4 14 27 14 94
0 79 2 89 22 103 12 9 30 16 40 16 22 0 33 19 19 33 -8 8 -20 8 -46 -2 -26 -9
-40 -10 -49 -2 -7 6 -16 8 -19 4z"/>
<path d="M2620 6667 c-33 -17 -70 -74 -70 -108 0 -114 110 -180 190 -113 38
32 26 57 -14 30 -52 -34 -119 -13 -128 39 -3 19 3 20 85 23 103 3 109 10 77
76 -28 60 -85 81 -140 53z m105 -73 c0 -16 -8 -19 -62 -22 -48 -2 -63 0 -63
11 0 17 20 42 45 55 26 14 80 -15 80 -44z"/>
<path d="M2875 6671 c-45 -19 -60 -49 -60 -123 0 -66 2 -71 33 -99 23 -21 42
-29 70 -29 37 0 102 31 102 49 0 19 -21 22 -45 7 -35 -23 -80 -20 -105 6 -38
42 -24 53 73 56 l87 3 0 27 c0 77 -83 132 -155 103z m103 -66 c6 -12 8 -26 5
-29 -10 -10 -121 -7 -128 4 -8 13 15 47 40 58 28 13 70 -4 83 -33z"/>
<path d="M3704 6670 c-42 -17 -64 -58 -64 -122 0 -55 3 -63 34 -94 100 -100
243 28 179 160 -25 54 -93 79 -149 56z m75 -35 c35 -18 56 -65 47 -107 -9 -47
-33 -68 -76 -68 -47 0 -70 31 -70 92 1 45 12 67 45 86 25 14 21 15 54 -3z"/>
<path d="M4330 6665 c-8 -10 -11 -43 -9 -106 4 -85 6 -92 32 -115 31 -26 62
-30 101 -13 20 9 29 9 40 0 8 -7 20 -10 26 -6 11 7 15 237 4 248 -3 3 -12 3
-20 0 -10 -4 -14 -26 -14 -87 0 -98 -14 -126 -64 -126 -49 0 -56 14 -56 111 0
61 -4 90 -14 98 -10 9 -16 8 -26 -4z"/>
<path d="M4592 6671 c-10 -6 -9 -17 6 -52 10 -24 31 -79 46 -123 24 -68 26
-82 15 -102 -7 -13 -20 -24 -30 -24 -24 0 -32 -15 -15 -29 11 -10 21 -9 44 3
23 12 36 33 62 98 73 188 84 224 72 231 -18 12 -34 -14 -60 -94 -15 -46 -32
-86 -37 -88 -6 -2 -24 34 -40 82 -33 94 -43 110 -63 98z"/>
<path d="M7930 6665 c-14 -17 -12 -212 3 -232 4 -6 15 -9 23 -6 11 4 14 26 14
94 0 79 2 89 22 103 12 9 30 16 40 16 22 0 33 19 19 33 -8 8 -20 8 -46 -2 -26
-9 -40 -10 -49 -2 -10 8 -17 7 -26 -4z"/>
<path d="M8143 6664 c-30 -15 -63 -72 -63 -111 0 -43 26 -97 54 -114 50 -31
102 -25 142 15 31 31 34 39 34 95 0 52 -4 65 -27 91 -35 39 -92 49 -140 24z
m113 -52 c19 -24 17 -103 -2 -130 -13 -19 -24 -22 -57 -20 -36 3 -45 8 -61 38
-50 94 58 194 120 112z"/>
<path d="M8438 6665 c-17 -9 -29 -11 -33 -5 -3 5 -13 10 -21 10 -12 0 -14 -20
-12 -122 3 -101 6 -123 18 -123 12 0 16 19 20 91 5 97 17 124 54 124 44 0 51
-14 56 -117 4 -78 8 -98 20 -98 12 0 16 19 20 91 3 56 10 97 19 108 16 19 64
21 79 3 6 -7 13 -56 14 -108 2 -76 6 -94 18 -94 12 0 16 19 18 103 3 97 2 103
-22 127 -29 29 -58 31 -100 10 -33 -17 -53 -19 -58 -5 -6 17 -62 21 -90 5z"/>
<path d="M9384 6670 c-40 -16 -64 -63 -64 -125 0 -51 3 -60 34 -91 27 -27 42
-34 73 -34 38 0 103 31 103 49 0 19 -20 22 -42 7 -12 -9 -39 -16 -60 -16 -29
0 -41 6 -54 25 -29 45 -14 55 82 55 l86 0 -7 36 c-15 85 -78 124 -151 94z m90
-46 c9 -8 16 -24 16 -35 0 -18 -6 -20 -62 -17 -34 2 -63 8 -65 13 -2 6 6 21
17 33 24 26 72 29 94 6z"/>
<path d="M9753 6665 c-35 -15 -47 -41 -38 -78 7 -25 17 -31 97 -58 21 -7 40
-19 42 -26 19 -50 -57 -68 -107 -25 -20 18 -41 5 -32 -20 17 -43 118 -51 159
-13 50 46 30 98 -48 120 -30 9 -60 23 -67 32 -11 13 -10 18 10 34 30 24 42 24
75 -2 29 -23 59 -19 50 6 -8 20 -56 45 -86 45 -13 -1 -37 -7 -55 -15z"/>
<path d="M10010 6671 c-40 -11 -70 -65 -70 -127 0 -46 4 -57 34 -88 27 -29 41
-36 72 -36 39 0 104 31 104 49 0 19 -20 22 -42 7 -33 -23 -83 -20 -108 6 -38
42 -24 53 73 56 l87 3 0 27 c0 37 -34 90 -66 102 -28 11 -47 11 -84 1z m82
-43 c9 -7 18 -22 20 -33 3 -18 -3 -20 -61 -20 -71 0 -82 10 -51 43 23 24 67
29 92 10z"/>
<path d="M10474 6661 c-71 -44 -72 -176 -2 -225 48 -34 158 -6 158 40 0 18
-15 18 -45 -2 -34 -22 -84 -14 -108 18 -11 14 -16 31 -13 37 4 7 41 11 93 11
l86 0 -6 42 c-11 80 -96 122 -163 79z m106 -43 c30 -32 20 -43 -45 -46 -70 -4
-83 6 -55 41 27 34 71 36 100 5z"/>
<path d="M10702 6668 c-14 -14 -17 -234 -3 -242 5 -4 15 -4 23 -1 10 4 12 25
10 85 -3 74 -2 81 22 105 14 14 34 25 44 25 25 0 37 29 17 37 -9 3 -29 0 -45
-7 -22 -9 -34 -9 -43 -1 -10 8 -17 7 -25 -1z"/>
<path d="M6527 6574 c-4 -4 -7 -14 -7 -21 0 -11 17 -13 78 -11 60 2 77 6 77
18 0 12 -16 16 -70 18 -39 1 -74 0 -78 -4z"/>
<path d="M5254 6465 c-7 -18 2 -45 15 -45 5 0 17 7 26 16 12 12 13 19 4 30
-15 18 -38 18 -45 -1z"/>
<path d="M12290 5189 c0 -5 5 -7 10 -4 6 3 10 8 10 11 0 2 -4 4 -10 4 -5 0
-10 -5 -10 -11z"/>
<path d="M12410 5196 c0 -2 7 -7 16 -10 8 -3 12 -2 9 4 -6 10 -25 14 -25 6z"/>
<path d="M2070 5176 c0 -2 8 -10 18 -17 15 -13 16 -12 3 4 -13 16 -21 21 -21
13z"/>
<path d="M1885 5000 c-3 -5 -2 -10 4 -10 5 0 13 5 16 10 3 6 2 10 -4 10 -5 0
-13 -4 -16 -10z"/>
<path d="M2059 4933 l-24 -28 28 24 c25 23 32 31 24 31 -2 0 -14 -12 -28 -27z"/>
<path d="M12410 4799 c-19 -10 -27 -19 -18 -19 8 0 26 9 39 20 30 24 24 24
-21 -1z"/>
<path d="M12280 4670 c20 -13 33 -13 25 0 -3 6 -14 10 -23 10 -15 0 -15 -2 -2
-10z"/>
<path d="M12355 4650 c3 -5 8 -10 11 -10 2 0 4 5 4 10 0 6 -5 10 -11 10 -5 0
-7 -4 -4 -10z"/>
<path d="M630 24135 l0 -675 -45 0 -45 0 0 -495 0 -495 45 0 45 0 0 -460 0
-460 -35 0 -35 0 0 -1000 0 -1000 35 0 35 0 0 -270 0 -270 -35 0 -35 0 0
-1000 0 -1000 35 0 35 0 0 -6525 c0 -4343 3 -6525 10 -6525 7 0 10 3482 10
10425 0 6943 -3 10425 -10 10425 -7 0 -10 -232 -10 -675z m-5 -705 c4 -6 -7
-10 -24 -10 -26 0 -31 -4 -31 -24 0 -31 10 -57 20 -51 4 2 15 -4 24 -14 15
-16 16 -55 14 -376 -3 -346 -4 -358 -23 -369 -27 -15 -35 -27 -35 -53 0 -19 5
-23 32 -23 23 0 29 -3 21 -11 -6 -6 -23 -9 -39 -7 l-29 3 -3 460 c-1 253 0
466 3 473 5 14 61 16 70 2z m-14 -2000 c19 -10 19 -29 19 -885 0 -868 0 -875
-20 -875 -17 0 -20 -7 -20 -40 0 -33 3 -40 20 -40 11 0 20 -5 20 -11 0 -6 -12
-9 -27 -7 l-28 3 -3 965 c-1 531 1 972 5 980 5 9 9 -4 11 -32 2 -35 8 -51 23
-58z m0 -2540 c19 -10 19 -29 19 -885 0 -868 0 -875 -20 -875 -17 0 -20 -7
-20 -40 0 -33 3 -40 20 -40 11 0 20 -5 20 -11 0 -6 -12 -9 -27 -7 l-28 3 -3
965 c-1 531 1 972 5 980 5 9 9 -4 11 -32 2 -35 8 -51 23 -58z"/>
<path d="M13570 14390 c0 -6940 3 -10420 10 -10420 7 0 10 2297 10 6870 l0
6870 33 0 c18 0 38 5 45 12 17 17 17 3119 0 3136 -7 7 -27 12 -45 12 l-33 0 0
1970 c0 1307 -3 1970 -10 1970 -7 0 -10 -3480 -10 -10420z m85 4900 l0 -1545
-29 0 c-16 0 -31 6 -33 13 -3 7 5 12 21 12 24 0 26 3 26 46 0 26 -11 78 -25
116 l-25 69 0 1277 c1 1274 1 1277 22 1332 11 30 23 88 25 128 5 72 5 72 -21
72 -25 0 -33 10 -19 24 4 4 19 6 33 4 l25 -3 0 -1545z"/>
<path d="M630 3618 c0 -400 35 -768 96 -1009 96 -384 328 -763 616 -1004 281
-236 616 -388 988 -449 266 -43 920 -76 920 -46 0 6 -40 10 -97 11 -54 1 -111
3 -128 4 -16 2 -105 6 -197 9 -326 11 -614 55 -823 124 -140 46 -394 174 -508
256 -257 184 -443 399 -586 676 -117 228 -171 402 -210 675 -28 195 -50 562
-51 823 0 61 -4 102 -10 102 -6 0 -10 -64 -10 -172z"/>
<path d="M13570 3693 c0 -230 -23 -615 -46 -793 -36 -280 -88 -453 -204 -685
-194 -387 -458 -651 -845 -845 -335 -168 -597 -219 -1245 -244 -74 -3 -1860
-6 -3967 -6 -2549 0 -3833 -3 -3833 -10 0 -14 7748 -13 7990 0 504 29 762 86
1061 235 311 156 546 360 730 634 200 297 306 606 349 1016 27 267 41 795 20
795 -6 0 -10 -39 -10 -97z"/>
</g>
</svg>
