<?xml version="1.0" standalone="no"?>
<!DOCTYPE svg PUBLIC "-//W3C//DTD SVG 20010904//EN"
 "http://www.w3.org/TR/2001/REC-SVG-20010904/DTD/svg10.dtd">
<svg version="1.0" xmlns="http://www.w3.org/2000/svg"
 width="1530.000000pt" height="2892.000000pt" viewBox="0 0 1530.000000 2892.000000"
 preserveAspectRatio="xMidYMid meet">

<g transform="translate(0.000000,2892.000000) scale(0.100000,-0.100000)"
fill="#000000" stroke="none">
<path d="M3315 27739 c-473 -27 -744 -88 -1036 -234 -391 -196 -668 -473 -864
-864 -120 -240 -181 -464 -215 -786 -27 -261 -40 -795 -20 -795 6 0 10 41 10
103 1 260 23 627 51 822 39 273 93 447 210 675 189 366 455 629 829 818 331
167 603 221 1250 246 74 3 1866 6 3983 6 2558 0 3847 3 3847 10 0 12 -7831 11
-8045 -1z"/>
<path d="M11540 27740 c0 -5 21 -10 48 -10 184 -1 584 -25 742 -46 280 -36
453 -88 685 -204 385 -193 649 -456 843 -840 114 -225 170 -414 206 -690 23
-178 46 -563 46 -792 0 -59 4 -98 10 -98 13 0 13 268 0 515 -27 491 -88 772
-233 1062 -199 395 -473 670 -867 868 -297 149 -556 206 -1060 235 -229 13
-420 13 -420 0z"/>
<path d="M7295 27569 c-2238 -4 -4090 -9 -4115 -13 -25 -4 -101 -14 -170 -22
-251 -30 -422 -76 -608 -165 -387 -183 -674 -469 -852 -851 -112 -241 -167
-504 -189 -898 -11 -202 -11 -22119 0 -22315 31 -554 130 -878 368 -1205 171
-236 371 -402 646 -535 276 -134 485 -179 950 -205 243 -14 8446 -14 8674 0
455 28 686 80 951 215 378 194 618 444 806 840 104 220 162 485 179 820 4 66
8 138 10 160 6 54 6 22066 0 22135 -2 30 -7 105 -10 165 -13 247 -60 506 -122
675 -164 442 -459 774 -868 977 -338 169 -627 215 -1400 226 -99 1 -2011 -1
-4250 -4z m-3202 -456 c-139 -2 -367 -2 -505 0 -139 1 -26 2 252 2 278 0 391
-1 253 -2z m7620 0 c-139 -2 -367 -2 -505 0 -139 1 -26 2 252 2 278 0 391 -1
253 -2z m1787 -12668 l0 -10125 -5850 0 -5850 0 0 10125 0 10125 5850 0 5850
0 0 -10125z"/>
<path d="M2424 24490 c-74 -17 -149 -88 -174 -164 -8 -24 -10 -63 -7 -100 l6
-61 -105 -106 c-57 -58 -104 -112 -104 -120 0 -8 63 -77 140 -154 120 -119
143 -138 158 -129 9 6 17 18 17 27 0 9 -51 67 -112 130 -62 63 -113 120 -113
126 0 15 142 151 158 151 7 0 23 -9 35 -21 44 -42 80 -53 182 -59 l100 -5 3
-60 c5 -111 49 -165 134 -165 55 0 102 20 119 51 15 29 1 38 -20 13 -25 -31
-55 -44 -99 -44 -71 0 -122 81 -104 166 l8 39 149 0 150 0 3 -112 c3 -131 22
-156 22 -29 0 97 20 136 70 136 55 0 69 -25 72 -125 2 -54 7 -89 13 -87 16 4
6 194 -12 214 -14 15 -10 22 39 70 72 70 98 142 80 226 -20 95 -77 158 -171
190 -38 13 -584 15 -637 2z m135 -117 c29 -28 35 -61 16 -89 -15 -23 -15 -27
-1 -43 22 -24 20 -84 -3 -105 -41 -37 -138 -28 -161 15 -25 45 1 66 35 29 14
-15 29 -20 54 -18 33 3 36 6 36 33 0 27 -4 31 -35 35 -45 6 -54 36 -13 46 31
8 43 20 43 47 0 22 -68 25 -76 2 -7 -16 -54 -21 -54 -6 0 5 12 23 26 40 22 26
33 31 70 31 29 0 51 -6 63 -17z m220 7 c10 -5 24 -23 31 -40 11 -25 10 -34 -5
-56 -15 -23 -15 -27 -1 -43 9 -10 16 -34 16 -54 0 -31 -5 -41 -32 -58 -92 -57
-216 34 -146 108 20 21 20 24 5 41 -41 46 2 112 73 112 23 0 49 -4 59 -10z
m238 -12 c27 -25 30 -64 7 -89 -14 -16 -14 -19 5 -38 52 -52 2 -131 -82 -131
-72 0 -125 83 -81 127 9 9 12 22 8 32 -31 71 0 121 75 121 32 0 51 -6 68 -22z"/>
<path d="M2698 24339 c-37 -21 -7 -66 36 -55 25 6 38 26 28 43 -11 17 -46 23
-64 12z"/>
<path d="M2680 24215 c-22 -27 0 -50 46 -50 37 0 39 2 39 30 0 27 -3 30 -36
33 -24 2 -40 -2 -49 -13z"/>
<path d="M2919 24334 c-26 -31 25 -70 56 -44 20 16 19 46 -1 54 -25 10 -41 7
-55 -10z"/>
<path d="M2904 24206 c-9 -36 2 -46 46 -46 30 0 40 4 45 20 9 29 -12 50 -51
50 -27 0 -35 -5 -40 -24z"/>
<path d="M8849 24421 c-21 -16 -25 -31 -29 -98 -3 -43 -4 -144 -2 -225 3 -142
4 -147 29 -172 l26 -26 224 0 224 0 24 26 c25 27 25 30 25 207 0 99 -3 178 -6
175 -3 -4 -8 -82 -10 -175 -7 -224 4 -213 -214 -213 -87 0 -161 4 -164 9 -4 5
-18 5 -34 -1 -24 -10 -33 -8 -61 13 -18 13 -27 25 -22 27 16 5 13 28 -4 42
-18 15 -22 175 -4 186 8 5 8 9 -1 14 -14 8 -20 135 -9 167 5 13 23 32 41 43
28 17 30 20 12 20 -12 0 -32 -9 -45 -19z"/>
<path d="M9295 24430 c3 -5 12 -10 19 -10 12 0 32 -33 49 -80 3 -8 6 0 6 18 1
22 -7 41 -24 57 -23 24 -63 35 -50 15z"/>
<path d="M12695 24429 c-138 -32 -290 -153 -344 -274 -28 -63 -51 -162 -51
-220 1 -83 33 -225 51 -225 10 0 79 39 100 57 12 10 17 33 18 88 3 138 26 270
54 307 12 15 67 50 207 131 76 44 152 78 168 75 13 -3 17 -14 16 -50 0 -57
-16 -77 -99 -123 -71 -40 -108 -77 -124 -124 -13 -41 -15 -257 -1 -266 5 -3
39 12 76 35 36 22 77 40 90 40 22 0 24 -4 24 -52 -1 -65 -12 -80 -105 -134
-38 -23 -97 -58 -130 -78 -33 -19 -79 -46 -102 -58 -24 -12 -43 -26 -43 -30 0
-14 87 -65 138 -81 198 -65 390 -22 538 121 109 104 168 283 143 430 -7 41
-16 71 -22 69 -33 -11 -58 -77 -104 -271 -24 -104 -52 -127 -325 -277 -26 -14
-54 -32 -62 -38 -8 -7 -25 -11 -38 -9 -21 3 -23 8 -22 52 1 56 6 62 124 136
40 25 78 57 86 72 10 19 14 66 14 163 0 74 -2 135 -5 135 -10 0 -89 -42 -117
-61 -42 -30 -64 -25 -71 15 -6 36 0 69 18 97 9 14 131 89 309 189 l59 33 -34
29 c-44 37 -123 76 -190 93 -60 16 -182 18 -244 4z"/>
<path d="M6713 24348 c-11 -14 -17 -300 -8 -329 6 -18 44 -27 46 -11 6 38 3
312 -3 330 -8 25 -21 28 -35 10z"/>
<path d="M5945 24336 c-39 -17 -55 -37 -61 -78 -5 -27 -1 -41 21 -66 15 -18
31 -32 37 -32 5 0 35 -7 65 -16 40 -12 57 -22 66 -41 10 -22 8 -28 -12 -44
-33 -27 -83 -24 -119 6 -49 41 -81 32 -56 -16 17 -33 70 -59 121 -59 66 0 123
47 123 103 0 55 -34 86 -109 101 -51 9 -81 32 -81 61 0 18 8 28 26 35 40 15
60 12 92 -15 35 -29 62 -32 62 -7 0 35 -71 83 -123 82 -12 -1 -36 -7 -52 -14z"/>
<path d="M7210 24170 l0 -170 105 0 c96 0 105 2 105 19 0 25 -19 31 -96 31
l-65 0 3 48 3 47 70 5 c62 4 70 7 70 25 0 18 -6 20 -52 17 -81 -6 -93 2 -93
53 l0 44 78 3 c71 3 77 5 80 26 3 22 2 22 -102 22 l-106 0 0 -170z"/>
<path d="M6245 24252 c-41 -14 -56 -29 -71 -71 -37 -107 33 -203 133 -181 35
8 83 49 83 71 0 17 -45 9 -63 -12 -13 -14 -27 -19 -50 -17 -26 2 -36 10 -51
41 -45 93 50 179 113 103 30 -35 61 -11 36 28 -25 37 -81 53 -130 38z"/>
<path d="M6481 24248 c-29 -15 -48 -44 -38 -55 4 -4 22 -1 40 6 44 18 78 16
94 -5 21 -29 10 -38 -53 -47 -70 -10 -97 -32 -96 -77 1 -38 13 -54 51 -70 24
-10 36 -9 66 6 29 13 39 14 45 5 4 -7 16 -11 26 -9 17 3 19 14 22 100 2 88 1
98 -20 123 -28 32 -98 44 -137 23z m102 -166 c-9 -26 -34 -42 -65 -42 -58 0
-47 61 13 71 40 6 60 -5 52 -29z"/>
<path d="M6874 24251 c-53 -23 -83 -101 -64 -169 12 -47 37 -71 83 -82 41 -9
102 9 122 37 22 29 0 41 -36 20 -17 -9 -43 -17 -58 -17 -32 0 -64 30 -59 56 3
15 15 18 83 18 l80 1 3 37 c6 70 -85 128 -154 99z m94 -59 c21 -27 8 -37 -49
-37 -47 0 -54 3 -54 20 0 41 74 53 103 17z"/>
<path d="M7531 24250 c-32 -14 -50 -39 -51 -71 0 -34 24 -55 82 -69 56 -14 76
-33 59 -54 -20 -23 -48 -25 -87 -4 -27 14 -40 16 -48 8 -17 -17 5 -42 51 -59
36 -13 46 -13 79 0 49 19 72 57 58 96 -8 23 -20 31 -69 47 -63 20 -77 30 -68
53 8 22 51 27 78 9 30 -20 55 -21 55 -3 0 39 -88 68 -139 47z"/>
<path d="M7794 24254 c-63 -14 -97 -130 -59 -200 25 -47 82 -69 136 -52 39 11
69 40 69 65 0 20 -35 15 -55 -7 -26 -29 -69 -26 -95 8 -17 21 -21 36 -17 71 3
23 12 50 20 58 22 22 64 19 92 -7 14 -13 31 -20 39 -17 22 9 20 21 -6 51 -23
26 -79 39 -124 30z"/>
<path d="M8073 24245 c-14 -10 -24 -11 -28 -5 -3 5 -17 10 -31 10 l-25 0 3
-122 c3 -119 4 -123 26 -126 21 -3 22 -1 22 80 0 96 10 116 60 127 26 5 35 12
35 26 0 25 -33 31 -62 10z"/>
<path d="M8214 24245 c-63 -32 -83 -142 -36 -204 40 -55 133 -59 181 -8 46 50
35 171 -19 204 -33 22 -92 25 -126 8z m87 -35 c17 0 41 -72 35 -104 -18 -88
-115 -89 -131 0 -11 61 32 124 73 109 8 -3 18 -5 23 -5z"/>
<path d="M8410 24243 c1 -15 58 -222 65 -233 3 -5 17 -10 29 -10 21 0 26 9 47
85 13 47 27 85 31 85 6 0 26 -60 44 -133 12 -53 61 -47 76 9 5 16 17 61 27 99
11 39 22 78 26 88 7 16 3 18 -20 15 -24 -3 -30 -10 -41 -53 -7 -27 -13 -60
-14 -71 0 -12 -7 -27 -15 -34 -12 -10 -15 -7 -21 17 -3 15 -13 54 -21 86 -15
53 -18 58 -41 55 -26 -3 -30 -10 -62 -127 -6 -24 -15 -40 -20 -35 -4 5 -16 44
-25 87 -15 70 -19 77 -41 77 -13 0 -24 -3 -24 -7z"/>
<path d="M8970 24210 c8 -5 20 -10 25 -10 6 0 3 5 -5 10 -8 5 -19 10 -25 10
-5 0 -3 -5 5 -10z"/>
<path d="M9192 24170 c-12 -22 -18 -40 -12 -40 5 0 10 6 10 13 0 7 9 23 20 35
21 22 25 32 13 32 -5 0 -18 -18 -31 -40z"/>
<path d="M9075 24170 c-3 -5 -1 -10 4 -10 6 0 11 5 11 10 0 6 -2 10 -4 10 -3
0 -8 -4 -11 -10z"/>
<path d="M8899 24144 c12 -15 21 -37 21 -50 0 -13 4 -24 9 -24 22 0 19 -34 -5
-66 -33 -42 -26 -43 20 -3 l35 32 -22 41 c-25 47 -62 96 -72 96 -3 0 3 -12 14
-26z"/>
<path d="M9140 24074 c0 -8 5 -12 10 -9 6 3 10 10 10 16 0 5 -4 9 -10 9 -5 0
-10 -7 -10 -16z"/>
<path d="M3480 24056 c0 -18 -7 -29 -22 -35 l-22 -8 22 -12 c20 -11 22 -19 22
-100 0 -72 3 -91 18 -104 20 -19 62 -23 62 -7 0 6 -6 10 -14 10 -34 0 -46 30
-46 111 0 55 4 81 13 83 49 15 53 19 22 25 -23 5 -30 12 -30 30 0 14 -6 26
-13 29 -7 2 -12 -6 -12 -22z"/>
<path d="M9092 24010 c-14 -23 -16 -50 -3 -50 13 0 39 43 34 58 -7 17 -16 15
-31 -8z"/>
<path d="M3229 24001 c-30 -24 -19 -39 13 -17 48 34 118 10 118 -41 0 -25 -18
-33 -74 -33 -81 0 -123 -62 -73 -108 31 -29 83 -29 114 0 l24 22 6 -22 c3 -12
10 -22 15 -22 6 0 8 41 6 105 -3 90 -6 106 -23 119 -29 22 -98 20 -126 -3z
m129 -127 c2 -11 -7 -32 -18 -47 -16 -21 -30 -27 -59 -27 -42 0 -61 14 -61 47
0 30 44 53 95 50 32 -2 41 -6 43 -23z"/>
<path d="M3642 24004 c-25 -17 -30 -65 -8 -83 7 -6 37 -19 67 -29 65 -23 81
-43 55 -71 -23 -25 -87 -29 -106 -6 -16 19 -41 20 -34 1 8 -20 49 -36 93 -36
42 0 81 32 81 67 0 25 -44 63 -72 63 -33 0 -77 30 -78 52 0 4 7 14 16 22 20
21 73 20 96 -1 25 -22 36 -8 13 17 -22 25 -90 27 -123 4z"/>
<path d="M8990 24003 c0 -14 19 -38 25 -32 8 8 -5 39 -16 39 -5 0 -9 -3 -9 -7z"/>
<path d="M9230 23990 c0 -5 5 -10 11 -10 5 0 7 5 4 10 -3 6 -8 10 -11 10 -2 0
-4 -4 -4 -10z"/>
<path d="M9040 23950 c0 -5 5 -10 10 -10 6 0 10 5 10 10 0 6 -4 10 -10 10 -5
0 -10 -4 -10 -10z"/>
<path d="M7837 23724 c-12 -12 3 -22 24 -17 16 4 17 8 7 14 -16 10 -23 11 -31
3z"/>
<path d="M7478 23713 c6 -2 18 -2 25 0 6 3 1 5 -13 5 -14 0 -19 -2 -12 -5z"/>
<path d="M7673 23713 c9 -2 25 -2 35 0 9 3 1 5 -18 5 -19 0 -27 -2 -17 -5z"/>
<path d="M7400 23685 c0 -8 5 -15 10 -15 6 0 10 7 10 15 0 8 -4 15 -10 15 -5
0 -10 -7 -10 -15z"/>
<path d="M7842 23660 c0 -19 2 -27 5 -17 2 9 2 25 0 35 -3 9 -5 1 -5 -18z"/>
<path d="M7543 23635 c0 -22 2 -30 4 -17 2 12 2 30 0 40 -3 9 -5 -1 -4 -23z"/>
<path d="M7752 23643 c-1 -17 -5 -40 -8 -50 -5 -17 -5 -17 6 0 6 9 9 32 7 50
l-4 32 -1 -32z"/>
<path d="M7841 23594 c0 -11 3 -14 6 -6 3 7 2 16 -1 19 -3 4 -6 -2 -5 -13z"/>
<path d="M7400 23580 c0 -11 5 -20 10 -20 6 0 10 9 10 20 0 11 -4 20 -10 20
-5 0 -10 -9 -10 -20z"/>
<path d="M7610 23591 c0 -5 5 -13 10 -16 6 -3 10 -2 10 4 0 5 -4 13 -10 16 -5
3 -10 2 -10 -4z"/>
<path d="M7527 23583 c-4 -3 -7 -11 -7 -17 0 -6 5 -5 12 2 6 6 9 14 7 17 -3 3
-9 2 -12 -2z"/>
<path d="M7490 23550 c-9 -6 -10 -10 -3 -10 6 0 15 5 18 10 8 12 4 12 -15 0z"/>
<path d="M7865 23550 c3 -5 10 -10 16 -10 5 0 9 5 9 10 0 6 -7 10 -16 10 -8 0
-12 -4 -9 -10z"/>
<path d="M5476 15504 c-20 -19 -20 -28 -1 -44 19 -16 55 -3 55 20 0 29 -35 44
-54 24z"/>
<path d="M3240 15326 c0 -103 4 -177 10 -181 5 -3 19 -1 30 5 18 9 20 21 20
94 0 68 3 86 18 99 21 19 40 21 62 7 11 -7 16 -35 20 -102 l5 -93 28 -3 29 -4
-4 109 c-4 130 -13 146 -86 147 -28 1 -47 -4 -49 -11 -10 -30 -22 -9 -25 45
-3 54 -4 57 -30 60 l-28 3 0 -175z"/>
<path d="M5180 15325 l0 -175 24 0 c23 0 24 3 27 84 4 92 22 126 64 126 36 0
44 -20 47 -116 3 -89 3 -89 31 -92 l27 -3 0 103 c0 91 -3 107 -20 126 -30 31
-68 38 -103 19 -16 -10 -33 -17 -38 -17 -5 0 -9 27 -9 60 0 57 -1 60 -25 60
l-25 0 0 -175z"/>
<path d="M5950 15326 l0 -176 24 0 c13 0 26 6 29 13 3 9 13 8 42 -6 31 -15 43
-16 71 -7 54 18 74 52 74 126 0 56 -4 68 -28 95 -23 26 -36 32 -71 32 -23 0
-47 -5 -54 -12 -20 -20 -26 -12 -29 47 -3 54 -4 57 -30 60 l-28 3 0 -175z
m158 18 c18 -12 22 -25 22 -69 0 -47 -3 -57 -25 -71 -50 -33 -102 16 -92 87 8
62 50 85 95 53z"/>
<path d="M6990 15441 c0 -34 -4 -61 -8 -61 -5 0 -22 7 -39 15 -38 19 -88 10
-109 -19 -42 -60 -40 -157 3 -201 36 -36 69 -42 110 -20 27 15 36 16 42 6 5
-7 19 -11 32 -9 l24 3 0 170 0 170 -27 3 c-28 3 -28 3 -28 -57z m-20 -108 c38
-49 8 -143 -47 -143 -28 0 -63 47 -63 85 0 25 8 44 25 60 32 32 58 32 85 -2z"/>
<path d="M2766 15481 c-5 -8 55 -247 76 -303 7 -20 17 -28 34 -28 29 0 36 13
64 120 35 130 37 129 82 -30 20 -73 27 -85 47 -88 13 -2 27 0 31 5 5 4 20 51
34 103 13 52 32 121 40 153 18 64 15 77 -15 77 -23 0 -33 -22 -58 -138 -11
-46 -23 -88 -28 -93 -5 -5 -21 37 -36 99 -45 173 -74 177 -117 16 -41 -154
-39 -155 -80 31 -7 33 -18 66 -23 73 -11 14 -43 16 -51 3z"/>
<path d="M7434 15480 c-21 -8 -64 -56 -64 -71 0 -4 10 -11 22 -15 16 -5 26 0
41 20 27 38 75 34 90 -7 5 -14 -4 -30 -33 -59 -46 -47 -56 -98 -20 -98 12 0
24 9 29 23 5 12 25 36 44 53 20 17 39 42 42 56 18 70 -73 130 -151 98z"/>
<path d="M3807 15464 c-4 -4 -7 -18 -7 -32 0 -15 -7 -26 -20 -29 -11 -3 -20
-11 -20 -19 0 -7 9 -18 20 -24 17 -9 20 -21 20 -89 0 -103 21 -129 98 -122 22
2 13 38 -13 49 -25 11 -26 15 -23 84 3 67 5 73 26 76 30 5 30 39 0 44 -17 2
-24 12 -28 33 -5 29 -36 46 -53 29z"/>
<path d="M5024 15443 c-4 -15 -16 -35 -27 -44 -21 -17 -16 -39 9 -39 11 0 14
-16 14 -75 0 -93 13 -122 58 -135 60 -16 88 26 32 47 l-31 12 3 72 c3 69 5 74
28 79 32 8 32 32 0 40 -18 4 -26 14 -30 35 -7 42 -47 48 -56 8z"/>
<path d="M6547 15464 c-4 -4 -7 -18 -7 -32 0 -15 -7 -26 -20 -29 -11 -3 -20
-11 -20 -19 0 -7 9 -18 20 -24 17 -9 20 -21 20 -88 0 -98 14 -122 71 -122 31
0 39 4 39 18 0 9 -10 22 -22 27 -21 9 -23 18 -26 88 -3 77 -3 77 23 77 33 0
36 37 3 42 -17 2 -24 12 -28 33 -5 29 -36 46 -53 29z"/>
<path d="M3575 15403 c-26 -6 -55 -32 -55 -49 0 -22 18 -25 50 -9 17 9 43 15
58 13 21 -2 27 -8 27 -28 0 -23 -5 -26 -58 -35 -69 -12 -102 -42 -92 -84 15
-60 73 -85 125 -55 29 17 30 17 43 0 11 -16 17 -17 36 -7 21 11 21 17 17 104
-3 51 -8 100 -11 109 -13 34 -84 54 -140 41z m92 -160 c2 -6 -5 -21 -17 -33
-25 -25 -68 -24 -84 3 -9 15 -7 21 9 33 23 17 86 15 92 -3z"/>
<path d="M4143 15403 c-55 -11 -93 -92 -78 -165 16 -75 103 -120 168 -87 26
13 56 49 57 67 0 19 -45 14 -65 -8 -34 -38 -87 -19 -101 36 -21 83 50 150 101
94 19 -21 65 -28 65 -9 0 24 -24 52 -55 65 -34 14 -50 15 -92 7z"/>
<path d="M4395 15403 c-26 -6 -55 -32 -55 -49 0 -22 17 -25 53 -8 46 22 87 13
87 -20 0 -21 -6 -24 -59 -30 -68 -8 -94 -30 -94 -78 0 -22 8 -38 27 -55 32
-27 62 -29 95 -7 17 12 26 13 34 5 6 -6 21 -11 34 -11 23 0 23 2 23 104 0 84
-3 108 -17 121 -30 31 -76 41 -128 28z m85 -168 c0 -44 -70 -61 -94 -22 -15
24 15 47 61 47 28 0 33 -3 33 -25z"/>
<path d="M4695 15394 c-19 -10 -31 -11 -33 -5 -2 6 -17 11 -33 11 l-29 0 0
-124 c0 -113 2 -124 19 -129 32 -8 41 13 41 93 0 89 17 123 58 118 38 -4 52
-40 52 -130 0 -76 1 -78 24 -78 13 0 26 4 28 10 2 5 1 55 -2 109 -4 71 -9 105
-20 115 -24 23 -72 28 -105 10z"/>
<path d="M5635 15402 c-21 -5 -36 -18 -49 -43 -18 -33 -18 -36 -2 -61 12 -18
35 -31 76 -42 48 -14 60 -21 60 -37 0 -32 -39 -40 -82 -17 -37 21 -73 18 -66
-5 3 -6 20 -23 39 -35 65 -45 172 -6 172 62 0 38 -18 54 -83 72 -59 16 -79 35
-57 52 24 18 45 20 64 7 20 -16 59 -20 67 -6 9 14 -38 49 -74 54 -19 3 -48 2
-65 -1z"/>
<path d="M6330 15404 c-66 -23 -90 -57 -90 -129 0 -58 21 -99 61 -119 89 -44
179 16 179 119 0 44 -23 96 -49 112 -23 14 -81 24 -101 17z m70 -64 c14 -14
20 -33 20 -65 0 -72 -47 -105 -98 -69 -18 12 -22 25 -22 66 0 81 52 116 100
68z"/>
<path d="M7173 15396 c-45 -21 -66 -57 -66 -119 0 -63 14 -92 56 -117 38 -24
66 -25 112 -6 85 36 101 164 29 227 -27 24 -93 31 -131 15z m83 -44 c57 -38
33 -162 -31 -162 -31 0 -65 44 -65 85 0 58 57 104 96 77z"/>
<path d="M5470 15276 c0 -105 2 -125 16 -130 36 -14 44 11 44 135 l0 119 -30
0 -30 0 0 -124z"/>
<path d="M7443 15194 c-8 -22 9 -48 35 -52 16 -2 23 3 28 22 3 14 3 30 -1 35
-10 17 -55 13 -62 -5z"/>
<path d="M3587 14844 c-4 -4 -7 -83 -7 -176 0 -162 1 -168 20 -168 20 0 20 5
18 172 -3 161 -9 194 -31 172z"/>
<path d="M4063 14834 c-3 -8 -1 -20 5 -26 16 -16 42 -2 42 22 0 24 -38 28 -47
4z"/>
<path d="M6850 14676 c0 -138 3 -176 13 -176 7 0 18 5 24 11 8 8 17 8 33 -1
29 -16 76 -16 105 0 35 19 49 60 46 141 -2 55 -46 99 -99 99 -23 0 -44 -4 -47
-10 -3 -5 -12 -10 -20 -10 -10 0 -15 16 -17 57 -2 46 -7 59 -20 61 -17 3 -18
-10 -18 -172z m154 23 c22 -17 26 -28 26 -73 0 -88 -61 -126 -115 -71 -42 41
-31 135 18 155 33 13 42 12 71 -11z"/>
<path d="M7859 14823 c0 -16 -1 -93 -2 -173 0 -136 1 -145 19 -145 17 0 20 10
24 92 5 97 10 108 50 118 49 12 64 -13 70 -117 4 -78 8 -93 23 -96 15 -3 17 7
17 96 0 85 -3 103 -21 126 -16 21 -29 26 -63 26 -23 0 -47 -5 -54 -12 -16 -16
-22 -7 -23 38 -1 54 -8 74 -25 74 -8 0 -14 -11 -15 -27z"/>
<path d="M9613 14834 c-3 -8 -1 -20 5 -26 16 -16 42 -2 42 22 0 24 -38 28 -47
4z"/>
<path d="M9900 14791 c0 -66 -8 -78 -36 -56 -22 17 -77 19 -105 5 -53 -29 -67
-149 -23 -207 22 -29 31 -33 70 -33 24 0 53 6 64 13 17 10 22 9 29 -2 5 -8 16
-11 25 -8 14 5 16 28 16 161 0 162 -3 186 -26 186 -10 0 -14 -15 -14 -59z
m-43 -86 c33 -23 47 -77 31 -121 -20 -57 -73 -70 -113 -29 -19 18 -25 35 -25
70 0 75 55 116 107 80z"/>
<path d="M2804 14806 c-19 -19 -34 -41 -34 -49 0 -52 57 -107 110 -107 40 0
90 -36 90 -64 0 -34 -26 -51 -81 -51 -41 0 -53 5 -75 28 -32 35 -55 23 -36
-18 24 -53 155 -72 202 -30 57 51 45 125 -24 156 -23 10 -49 19 -59 19 -35 0
-77 30 -77 54 0 57 91 78 135 30 32 -35 60 -27 43 11 -16 35 -57 55 -114 55
-39 0 -51 -5 -80 -34z"/>
<path d="M7427 14814 c-4 -4 -7 -18 -7 -32 0 -15 -7 -26 -20 -29 -11 -3 -20
-10 -20 -17 0 -6 9 -17 20 -24 17 -10 20 -23 20 -93 0 -99 9 -119 55 -119 42
0 47 21 10 38 -24 11 -25 16 -25 91 0 76 1 79 25 85 31 8 33 33 3 38 -16 2
-24 12 -28 32 -5 29 -20 43 -33 30z"/>
<path d="M7717 14814 c-4 -4 -7 -18 -7 -32 0 -15 -7 -26 -20 -29 -11 -3 -20
-11 -20 -18 0 -8 9 -17 20 -20 18 -6 20 -15 20 -94 0 -97 12 -121 63 -121 34
0 35 23 2 38 -24 11 -25 16 -25 92 0 46 4 81 10 81 6 1 16 2 22 3 24 2 20 34
-4 38 -16 2 -24 11 -28 32 -5 29 -20 43 -33 30z"/>
<path d="M8397 14813 c-2 -4 -7 -20 -11 -35 -3 -16 -13 -28 -21 -28 -22 0 -18
-23 5 -38 18 -11 20 -22 19 -91 -1 -97 10 -121 56 -121 42 0 47 21 10 38 -25
12 -26 15 -23 94 3 77 5 83 26 86 29 4 29 30 0 34 -16 2 -24 12 -28 32 -5 29
-24 45 -33 29z"/>
<path d="M4237 14749 c-44 -12 -57 -28 -57 -70 0 -42 21 -59 87 -73 57 -13 69
-56 21 -75 -17 -7 -32 -4 -56 10 -32 18 -62 25 -62 13 0 -20 26 -45 58 -54 49
-15 110 5 131 42 25 43 2 73 -76 99 -71 23 -84 50 -37 71 21 10 31 9 56 -5 36
-21 48 -21 48 -3 0 31 -67 58 -113 45z"/>
<path d="M3113 14740 c-45 -18 -69 -118 -43 -184 22 -60 127 -81 175 -36 14
13 25 29 25 36 0 25 -19 24 -46 -1 -34 -32 -68 -32 -99 0 -35 34 -35 106 0
140 31 32 56 31 93 0 17 -14 35 -25 41 -25 20 0 11 31 -15 55 -28 26 -86 33
-131 15z"/>
<path d="M3346 14729 c-48 -38 -26 -52 34 -22 30 14 36 14 59 2 14 -8 27 -24
29 -36 3 -18 -3 -22 -50 -28 -83 -11 -108 -29 -108 -76 0 -44 29 -70 78 -71
23 0 50 6 59 13 13 11 17 11 20 2 3 -7 13 -13 24 -13 17 0 19 8 19 103 0 95
-2 105 -23 125 -31 30 -104 30 -141 1z m124 -139 c0 -29 -35 -60 -68 -60 -32
0 -52 16 -52 42 0 24 27 37 78 38 35 0 42 -3 42 -20z"/>
<path d="M3708 14721 c-27 -24 -32 -36 -35 -87 -3 -46 0 -66 16 -91 34 -53
120 -64 169 -20 12 11 22 24 22 29 0 13 -33 9 -54 -7 -29 -22 -64 -18 -91 10
-45 44 -35 54 63 57 l87 3 -1 38 c-3 89 -107 130 -176 68z m118 -26 c14 -14
22 -30 19 -35 -6 -10 -135 -14 -135 -4 0 16 24 46 43 54 35 14 46 12 73 -15z"/>
<path d="M4070 14625 c0 -115 2 -126 18 -123 15 3 17 17 17 123 0 106 -2 120
-17 123 -16 3 -18 -8 -18 -123z"/>
<path d="M4563 14733 c-48 -33 -16 -59 32 -27 30 20 70 12 86 -17 14 -28 6
-34 -66 -48 -89 -16 -117 -60 -75 -114 27 -34 63 -41 106 -21 29 14 37 15 44
4 4 -7 15 -10 24 -7 13 5 16 23 16 92 0 89 -15 137 -45 149 -30 11 -100 5
-122 -11z m122 -133 c9 -15 -20 -57 -45 -65 -53 -17 -93 21 -62 58 17 19 96
24 107 7z"/>
<path d="M4794 14737 c-2 -7 -3 -62 -2 -123 3 -94 5 -109 21 -112 15 -3 17 6
17 83 0 79 2 88 26 111 19 20 31 24 52 19 15 -3 32 -11 37 -16 6 -6 12 -53 13
-105 3 -82 6 -95 20 -92 34 7 27 193 -9 229 -22 22 -79 26 -109 7 -15 -10 -22
-10 -32 0 -16 16 -27 15 -34 -1z"/>
<path d="M5214 14732 c-44 -35 -59 -111 -35 -174 23 -61 128 -83 177 -37 42
40 24 52 -35 23 -51 -25 -110 0 -111 48 0 15 13 18 88 20 l87 3 -3 40 c-4 56
-47 95 -105 95 -25 0 -51 -8 -63 -18z m114 -35 c6 -5 12 -18 12 -28 0 -17 -8
-19 -65 -19 -73 0 -84 14 -40 48 25 20 67 20 93 -1z"/>
<path d="M5462 14727 c-30 -32 -28 -71 4 -96 15 -12 35 -21 45 -21 26 0 67
-20 73 -36 7 -19 -21 -44 -51 -44 -14 0 -38 8 -54 17 -39 23 -61 5 -29 -25 66
-61 201 -11 174 65 -7 22 -22 33 -64 48 -30 11 -61 24 -68 28 -20 13 -14 37
14 49 21 10 31 9 56 -5 54 -31 77 -16 38 23 -30 30 -109 28 -138 -3z"/>
<path d="M5711 14719 c-28 -28 -31 -36 -31 -95 0 -56 4 -68 28 -95 24 -27 35
-31 80 -32 41 -1 57 4 77 23 14 13 25 29 25 36 0 24 -18 23 -45 -2 -23 -21
-35 -25 -63 -20 -45 7 -61 31 -62 92 0 56 15 77 61 89 19 5 33 0 56 -19 17
-14 36 -26 42 -26 19 0 12 30 -14 55 -19 20 -34 25 -74 25 -42 0 -54 -5 -80
-31z"/>
<path d="M5947 14743 c-4 -3 -7 -60 -7 -125 0 -111 1 -118 20 -118 18 0 20 7
20 88 0 97 10 117 60 124 32 4 41 38 10 38 -12 0 -31 -5 -43 -11 -16 -9 -22
-9 -25 0 -4 12 -25 15 -35 4z"/>
<path d="M6129 14722 c-55 -49 -50 -169 9 -208 33 -22 101 -23 131 -2 68 48
67 174 -1 222 -37 26 -103 21 -139 -12z m104 -11 c31 -12 51 -61 44 -109 -11
-69 -76 -94 -122 -47 -43 42 -28 139 25 158 22 8 26 8 53 -2z"/>
<path d="M6350 14738 c0 -7 14 -64 31 -125 25 -92 35 -113 50 -113 23 0 31 16
54 103 10 37 21 70 25 72 4 3 19 -35 32 -83 22 -77 28 -87 48 -87 21 0 26 11
56 115 18 63 30 118 28 122 -13 21 -32 4 -43 -37 -6 -25 -16 -65 -22 -90 -7
-25 -15 -45 -19 -45 -4 0 -18 39 -32 88 -35 122 -57 122 -90 2 -5 -19 -12 -48
-15 -63 -9 -47 -26 -24 -48 64 -15 60 -26 85 -38 87 -9 2 -17 -2 -17 -10z"/>
<path d="M7164 14732 c-33 -26 -44 -55 -44 -115 0 -85 55 -134 136 -120 99 18
128 177 43 237 -31 21 -108 21 -135 -2z m109 -32 c32 -25 42 -69 27 -115 -19
-57 -67 -71 -114 -34 -22 17 -26 28 -26 70 0 40 5 55 25 74 29 30 54 32 88 5z"/>
<path d="M8142 14734 c-47 -33 -15 -60 33 -28 30 20 70 12 86 -17 14 -28 6
-34 -66 -48 -90 -17 -123 -71 -72 -119 26 -24 84 -30 119 -11 15 8 22 8 28 -1
5 -7 15 -10 24 -7 13 5 16 23 16 92 0 89 -15 137 -45 149 -31 11 -100 6 -123
-10z m123 -134 c9 -15 -20 -57 -45 -65 -53 -17 -95 22 -64 56 19 21 98 27 109
9z"/>
<path d="M8664 14737 c-2 -7 -3 -82 -2 -167 3 -138 5 -155 21 -158 14 -3 17 5
17 52 0 57 12 70 37 45 15 -15 91 -13 109 2 28 23 44 67 44 118 0 42 -5 56
-31 86 -25 28 -38 35 -68 35 -20 0 -47 -7 -59 -16 -20 -14 -23 -14 -28 0 -7
19 -33 21 -40 3z m134 -23 c52 -14 70 -117 27 -159 -40 -41 -92 -30 -115 24
-17 42 -5 95 27 121 29 22 29 22 61 14z"/>
<path d="M8947 14743 c-4 -3 -7 -60 -7 -125 0 -108 2 -119 18 -116 14 3 17 17
20 88 3 93 15 117 60 122 39 4 43 38 5 38 -16 0 -34 -5 -41 -12 -9 -9 -15 -9
-24 0 -14 14 -22 15 -31 5z"/>
<path d="M9142 14734 c-58 -40 -65 -148 -13 -207 25 -28 34 -31 82 -30 48 1
56 4 81 34 24 28 28 42 28 95 0 54 -3 66 -29 93 -25 26 -36 31 -78 31 -28 0
-58 -7 -71 -16z m121 -41 c25 -24 24 -112 -3 -141 -39 -41 -101 -24 -120 33
-31 93 55 168 123 108z"/>
<path d="M9358 14744 c-4 -3 3 -32 14 -63 12 -31 31 -83 43 -116 18 -50 26
-60 46 -60 20 0 28 13 66 114 24 62 40 117 37 122 -16 27 -35 3 -59 -74 -27
-84 -40 -115 -49 -107 -2 3 -18 46 -34 95 -27 82 -46 108 -64 89z"/>
<path d="M9620 14625 c0 -115 2 -126 18 -123 15 3 17 17 17 123 0 106 -2 120
-17 123 -16 3 -18 -8 -18 -123z"/>
<path d="M10042 14734 c-71 -49 -69 -185 3 -224 51 -27 155 -3 155 36 0 18
-30 17 -54 -1 -29 -22 -64 -18 -91 10 -46 45 -35 55 59 55 49 0 88 4 91 11 13
19 -5 76 -32 103 -30 31 -95 36 -131 10z m110 -46 c10 -11 15 -24 12 -29 -6
-10 -134 -13 -134 -3 0 16 24 46 43 54 29 11 58 3 79 -22z"/>
<path d="M10282 14727 c-45 -47 -14 -101 68 -121 54 -14 74 -41 46 -62 -25
-18 -67 -18 -92 1 -39 29 -63 5 -26 -27 58 -50 172 -17 172 51 0 36 -24 57
-82 71 -53 14 -71 30 -62 54 10 25 54 32 87 13 35 -21 47 -21 47 -3 0 47 -120
64 -158 23z"/>
<path d="M10652 14727 c-30 -32 -28 -71 4 -96 15 -12 35 -21 46 -21 22 0 78
-27 78 -38 0 -15 -17 -31 -41 -41 -21 -7 -33 -5 -58 10 -39 24 -51 24 -51 1 0
-47 122 -62 166 -21 27 26 32 70 9 89 -9 7 -39 21 -67 30 -63 20 -82 44 -54
66 26 18 60 18 76 -1 14 -17 50 -20 50 -5 0 6 -9 19 -20 30 -30 30 -109 28
-138 -3z"/>
<path d="M10904 14732 c-32 -25 -44 -55 -44 -106 0 -90 36 -129 117 -128 44 1
93 30 93 54 0 13 -33 9 -54 -7 -11 -8 -30 -15 -42 -15 -29 0 -74 37 -74 61 0
17 8 19 85 19 67 0 87 3 91 15 10 25 -5 66 -36 96 -23 23 -37 29 -72 29 -26 0
-52 -7 -64 -18z m106 -32 c21 -21 26 -46 10 -52 -20 -7 -120 4 -120 13 0 18
49 59 70 59 11 0 29 -9 40 -20z"/>
<path d="M11172 14734 c-69 -48 -69 -187 0 -222 23 -12 56 -16 94 -14 25 2 64
37 64 57 0 21 -17 19 -47 -5 -72 -56 -151 29 -113 121 21 51 97 62 121 18 5
-11 16 -19 24 -19 27 0 26 21 -4 50 -24 24 -38 30 -73 30 -24 0 -54 -7 -66
-16z"/>
<path d="M11387 14743 c-4 -3 -7 -47 -7 -97 0 -80 3 -94 23 -120 19 -23 31
-29 65 -29 23 0 49 7 58 14 14 11 18 11 21 2 3 -7 13 -13 24 -13 19 0 19 7 17
123 -3 100 -6 122 -18 122 -12 0 -16 -18 -20 -85 -6 -98 -14 -117 -55 -125
-56 -11 -70 10 -73 119 -3 68 -8 96 -16 96 -7 0 -16 -3 -19 -7z"/>
<path d="M11667 14743 c-4 -3 -7 -60 -7 -125 0 -111 1 -118 20 -118 18 0 20 7
20 88 0 99 12 122 63 122 20 0 27 5 27 20 0 15 -7 20 -28 20 -15 0 -33 -5 -40
-12 -9 -9 -15 -9 -24 0 -14 14 -22 15 -31 5z"/>
<path d="M11844 14716 c-31 -31 -34 -40 -34 -91 0 -91 54 -142 136 -128 29 6
74 39 74 55 0 13 -33 9 -54 -7 -11 -8 -30 -15 -42 -15 -29 0 -74 37 -74 61 0
17 8 19 84 19 47 0 88 5 91 10 11 18 -5 69 -32 100 -21 25 -32 30 -70 30 -38
0 -50 -5 -79 -34z m114 -12 c12 -8 22 -24 22 -35 0 -17 -7 -19 -65 -19 -72 0
-78 8 -40 45 28 29 51 31 83 9z"/>
<path d="M2774 14215 c-4 -9 -2 -21 4 -27 15 -15 44 -1 40 19 -4 23 -36 29
-44 8z"/>
<path d="M3188 14219 c-10 -5 -21 -28 -24 -49 -5 -30 -11 -40 -25 -40 -25 0
-24 -26 1 -40 18 -10 20 -21 20 -110 0 -54 4 -101 8 -104 22 -14 31 16 34 109
3 97 4 99 28 105 34 8 32 34 -2 38 -22 3 -28 8 -28 29 0 18 8 28 30 36 17 6
29 16 27 22 -5 14 -48 17 -69 4z"/>
<path d="M5852 14214 c-15 -10 -22 -25 -22 -49 0 -27 -4 -34 -22 -37 -31 -4
-33 -23 -3 -36 24 -11 25 -14 25 -110 0 -103 4 -119 27 -101 9 8 13 40 13 110
0 93 1 98 22 101 13 2 24 11 26 21 3 13 -3 17 -23 17 -23 0 -26 4 -23 28 2 16
12 31 26 37 12 5 22 15 22 22 0 18 -41 16 -68 -3z"/>
<path d="M9766 14222 c-3 -5 -6 -83 -7 -173 -1 -153 0 -164 18 -164 16 0 19
11 23 86 5 92 15 114 56 122 48 9 63 -18 66 -118 3 -81 5 -90 22 -90 17 0 19
8 17 100 -2 86 -5 103 -23 123 -23 23 -91 32 -103 12 -3 -5 -12 -10 -20 -10
-10 0 -15 16 -17 57 -3 51 -18 78 -32 55z"/>
<path d="M12055 14220 c-8 -12 -7 -328 1 -341 2 -4 11 -6 19 -2 12 4 15 25 15
93 0 71 3 90 18 103 22 20 75 22 90 4 6 -7 12 -53 14 -102 3 -76 6 -90 21 -93
15 -3 17 7 17 98 0 95 -2 102 -26 126 -20 21 -32 25 -62 22 -20 -3 -45 -8 -54
-12 -15 -7 -17 0 -20 50 -3 54 -18 79 -33 54z"/>
<path d="M6537 14214 c-4 -4 -7 -81 -7 -171 0 -156 1 -163 20 -163 18 0 20 7
20 55 0 30 1 55 3 56 1 0 29 3 62 5 70 5 104 26 123 76 12 30 11 40 -1 71 -9
19 -26 43 -40 51 -25 17 -167 32 -180 20z m163 -59 c30 -27 26 -78 -7 -105
-20 -16 -38 -20 -72 -18 l-46 3 -3 59 c-4 85 -1 89 58 84 28 -3 59 -13 70 -23z"/>
<path d="M6851 14191 c-31 -29 -42 -71 -18 -71 7 0 23 14 35 30 30 40 83 42
108 5 23 -35 6 -72 -71 -153 -62 -67 -93 -108 -84 -116 2 -3 49 -6 104 -7 91
-2 100 0 100 16 0 16 -8 18 -67 16 -82 -3 -86 7 -27 64 105 101 123 159 68
214 -43 43 -103 44 -148 2z"/>
<path d="M7102 14207 c-8 -9 -11 -61 -9 -168 2 -147 3 -154 22 -154 17 0 21 8
25 55 4 39 9 55 20 56 8 1 37 2 63 3 41 1 54 6 78 32 50 53 33 147 -30 171
-47 17 -156 21 -169 5z m142 -41 c42 -18 57 -63 32 -101 -18 -28 -48 -38 -97
-33 l-34 3 -3 59 c-2 32 -1 65 2 72 7 18 58 18 100 0z"/>
<path d="M3996 14193 c-3 -4 -6 -17 -6 -29 0 -13 -9 -28 -20 -34 -11 -6 -20
-15 -20 -21 0 -6 9 -13 20 -16 18 -5 20 -14 20 -92 0 -97 9 -118 55 -123 37
-4 46 23 13 37 -21 9 -23 18 -26 93 -3 81 -3 82 22 82 23 0 41 21 29 34 -4 3
-17 6 -30 6 -19 0 -23 5 -23 29 0 27 -20 47 -34 34z"/>
<path d="M8492 14188 c-7 -7 -12 -22 -12 -34 0 -13 -8 -24 -20 -27 -11 -3 -20
-10 -20 -17 0 -7 9 -14 20 -17 18 -5 20 -14 20 -88 0 -64 4 -87 18 -103 24
-28 56 -36 72 -17 10 12 8 16 -13 24 -30 12 -40 48 -35 126 3 43 6 50 28 55
14 3 25 12 25 20 0 8 -11 17 -25 20 -17 4 -26 14 -28 30 -5 33 -15 43 -30 28z"/>
<path d="M11903 14193 c-7 -3 -13 -17 -13 -33 0 -19 -6 -29 -20 -33 -11 -3
-20 -10 -20 -17 0 -7 9 -14 20 -17 18 -5 20 -14 20 -88 0 -64 4 -87 18 -103
23 -28 56 -36 71 -18 10 12 7 17 -16 28 -27 13 -28 16 -28 93 0 76 1 79 25 85
34 8 32 34 -2 38 -23 3 -28 8 -28 32 0 31 -8 40 -27 33z"/>
<path d="M4844 14162 c-4 -19 -14 -32 -28 -36 l-21 -6 23 -20 c20 -16 23 -29
26 -105 3 -94 13 -114 61 -118 37 -3 44 19 11 34 -25 12 -26 16 -26 95 0 78 1
83 23 86 28 4 29 32 0 36 -15 2 -23 11 -25 30 -4 39 -37 42 -44 4z"/>
<path d="M2780 14006 c0 -69 4 -127 9 -130 23 -15 32 26 29 135 -3 99 -5 114
-20 117 -16 3 -18 -8 -18 -122z"/>
<path d="M2887 14123 c-4 -3 -7 -60 -7 -125 0 -111 1 -118 20 -118 18 0 20 7
20 83 0 99 14 127 64 127 49 0 56 -14 56 -111 0 -61 4 -90 14 -98 28 -23 39
13 34 110 -5 76 -9 94 -29 115 -25 27 -86 33 -107 12 -10 -10 -17 -10 -32 0
-23 14 -24 14 -33 5z"/>
<path d="M3307 14123 c-4 -3 -7 -60 -7 -125 0 -111 1 -118 20 -118 18 0 20 7
20 79 0 89 21 131 66 131 17 0 24 5 24 20 0 23 -29 27 -60 8 -15 -10 -22 -10
-32 0 -14 14 -22 15 -31 5z"/>
<path d="M3506 14109 c-14 -11 -26 -25 -26 -30 0 -12 37 -12 45 1 9 15 81 12
95 -5 25 -31 8 -50 -53 -56 -69 -8 -97 -29 -97 -74 0 -57 64 -90 121 -61 29
14 34 14 49 1 9 -8 20 -12 23 -8 4 3 7 51 7 105 0 92 -2 101 -25 123 -32 33
-100 35 -139 4z m122 -146 c-4 -39 -62 -69 -93 -49 -50 33 -18 74 58 75 36 1
38 -1 35 -26z"/>
<path d="M3754 14112 c-56 -44 -34 -98 51 -127 68 -23 79 -48 33 -74 -25 -14
-29 -14 -57 7 -34 25 -61 29 -61 9 0 -36 61 -62 121 -52 31 5 45 15 60 39 10
17 19 34 19 37 0 21 -42 53 -90 68 -61 20 -79 50 -41 71 22 11 71 4 71 -11 0
-5 9 -9 20 -9 11 0 20 6 20 14 0 42 -105 62 -146 28z"/>
<path d="M4137 14123 c-4 -3 -7 -60 -7 -125 0 -109 1 -118 19 -118 16 0 19 10
23 89 5 99 15 121 59 121 22 0 29 5 29 20 0 23 -38 28 -58 8 -10 -10 -17 -10
-32 0 -23 14 -24 14 -33 5z"/>
<path d="M4304 14116 c-3 -8 -4 -58 -2 -110 4 -114 15 -132 83 -130 24 0 51 6
58 13 11 9 17 8 27 -4 27 -32 35 0 32 125 -3 107 -5 121 -20 118 -14 -3 -17
-18 -20 -93 -3 -99 -16 -125 -61 -125 -49 0 -56 12 -61 116 -3 65 -9 99 -17
102 -7 2 -16 -3 -19 -12z"/>
<path d="M4612 14117 c-69 -39 -78 -159 -16 -218 20 -19 36 -24 76 -24 42 0
53 4 74 28 13 15 24 32 24 38 0 17 -35 9 -53 -11 -36 -42 -101 -20 -117 41 -9
34 -8 46 7 77 16 32 23 37 57 40 29 3 44 -2 62 -19 19 -18 27 -20 37 -10 9 10
5 18 -21 42 -36 32 -89 39 -130 16z"/>
<path d="M4990 14028 c0 -119 10 -143 65 -154 25 -4 43 -1 61 11 19 12 29 14
37 6 6 -6 17 -11 24 -11 10 0 13 29 13 126 0 114 -2 125 -17 122 -15 -3 -19
-18 -23 -96 -4 -78 -8 -96 -24 -108 -24 -17 -72 -18 -83 -1 -4 6 -10 55 -13
107 -4 80 -8 95 -22 98 -16 3 -18 -7 -18 -100z"/>
<path d="M5267 14123 c-4 -3 -7 -57 -7 -118 0 -87 3 -115 15 -125 20 -17 23
-5 27 98 3 90 10 100 68 112 29 6 34 33 6 38 -10 2 -29 -2 -43 -9 -18 -10 -26
-10 -35 -1 -14 14 -22 15 -31 5z"/>
<path d="M5452 14102 c-34 -32 -48 -83 -37 -134 14 -64 54 -98 113 -98 34 0
92 35 92 55 0 19 -19 19 -44 0 -30 -23 -74 -18 -101 9 -41 41 -25 55 68 58
l82 3 -1 39 c-3 86 -108 128 -172 68z m123 -32 c31 -34 13 -50 -55 -50 -49 0
-60 3 -60 17 0 48 80 72 115 33z"/>
<path d="M5988 14101 c-31 -28 -33 -33 -33 -99 0 -60 3 -74 24 -96 66 -70 182
-30 197 69 13 90 -35 155 -115 155 -31 0 -49 -7 -73 -29z m127 -31 c29 -32 26
-117 -4 -141 -60 -49 -127 -2 -118 83 2 26 10 54 17 63 19 22 83 19 105 -5z"/>
<path d="M6237 14123 c-4 -3 -7 -57 -7 -118 0 -87 3 -115 15 -125 20 -16 23
-6 28 98 4 89 17 111 65 112 15 0 22 6 22 20 0 23 -29 27 -60 8 -15 -10 -22
-10 -32 0 -14 14 -22 15 -31 5z"/>
<path d="M7552 14113 c-52 -36 -67 -128 -29 -184 30 -45 63 -61 112 -55 55 7
116 76 67 76 -10 0 -25 -9 -35 -20 -18 -22 -57 -26 -87 -10 -41 22 -49 113
-13 153 23 25 89 23 103 -3 11 -21 50 -28 50 -9 0 6 -13 24 -29 40 -24 23 -38
29 -73 28 -24 0 -53 -7 -66 -16z"/>
<path d="M7775 14120 c-7 -12 -7 -231 0 -238 2 -2 11 -2 20 1 12 5 15 23 15
84 0 89 14 120 58 125 16 2 27 9 27 18 0 19 -41 25 -61 9 -11 -9 -18 -9 -26
-1 -15 15 -25 15 -33 2z"/>
<path d="M7928 14124 c-8 -7 9 -62 52 -169 30 -74 32 -83 20 -105 -6 -11 -22
-25 -36 -30 -29 -12 -23 -30 10 -30 35 0 61 37 95 135 18 50 36 99 40 110 5
11 14 33 20 49 9 21 9 32 1 40 -17 16 -33 -12 -66 -109 -15 -46 -31 -82 -35
-79 -4 2 -20 41 -35 87 -32 98 -47 121 -66 101z"/>
<path d="M8187 14123 c-4 -3 -7 -80 -7 -170 0 -156 1 -163 20 -163 18 0 20 7
20 55 0 59 6 64 45 39 33 -21 84 -12 116 22 21 22 24 35 24 96 0 66 -2 71 -33
99 -36 33 -84 38 -119 14 -18 -13 -22 -13 -33 0 -14 16 -23 19 -33 8z m168
-69 c44 -94 -33 -185 -106 -125 -18 15 -23 28 -23 69 0 65 22 92 74 92 33 0
40 -4 55 -36z"/>
<path d="M8672 14117 c-70 -39 -79 -159 -16 -218 20 -19 36 -24 74 -24 58 0
95 29 110 87 30 110 -75 206 -168 155z m114 -52 c33 -51 14 -140 -33 -151 -61
-16 -97 20 -95 94 0 57 23 82 73 82 30 0 42 -6 55 -25z"/>
<path d="M9050 14102 c-72 -72 -40 -214 50 -228 41 -7 107 17 116 41 10 25 -4
30 -35 12 -30 -18 -78 -22 -97 -9 -18 12 -36 54 -27 63 4 4 44 9 88 11 l80 3
-1 39 c-3 87 -113 129 -174 68z m126 -37 c23 -35 10 -45 -57 -45 -55 0 -59 2
-59 23 0 33 18 47 62 47 29 0 41 -6 54 -25z"/>
<path d="M9267 14124 c-3 -4 12 -33 34 -65 l40 -59 -36 -52 c-34 -51 -43 -78
-27 -78 14 0 28 15 51 53 12 20 27 37 32 37 5 0 20 -18 35 -39 14 -22 32 -42
40 -45 29 -11 25 17 -10 69 -20 30 -36 58 -36 61 0 4 16 29 35 55 38 53 43 69
20 69 -8 0 -28 -20 -45 -45 -17 -25 -33 -45 -35 -45 -2 0 -18 20 -35 45 -29
42 -48 54 -63 39z"/>
<path d="M9538 14107 c-36 -30 -48 -58 -48 -110 0 -55 33 -107 75 -119 62 -18
135 11 135 54 0 24 -22 23 -45 -2 -24 -27 -76 -26 -101 1 -13 15 -19 36 -19
69 0 33 6 54 19 69 25 27 77 28 101 1 10 -11 24 -20 31 -20 26 0 24 21 -5 50
-38 39 -102 42 -143 7z"/>
<path d="M10054 14107 c-34 -30 -25 -56 12 -33 34 23 91 21 104 -3 17 -32 12
-40 -27 -46 -85 -13 -110 -24 -123 -54 -14 -34 -3 -60 32 -85 28 -20 55 -20
92 -1 26 14 30 14 41 -1 24 -34 35 -5 35 95 0 90 -2 100 -25 125 -33 35 -101
37 -141 3z m126 -134 c-1 -23 -19 -47 -48 -62 -46 -25 -100 42 -54 68 9 6 36
11 60 11 34 0 42 -3 42 -17z"/>
<path d="M10287 14123 c-4 -3 -7 -57 -7 -120 0 -93 3 -115 15 -120 9 -3 18 -3
21 0 3 3 7 44 9 92 5 98 15 115 69 115 47 0 56 -19 56 -124 0 -81 1 -86 21
-86 21 0 21 4 17 106 -3 98 -5 107 -28 125 -28 21 -90 25 -108 7 -10 -10 -17
-10 -32 0 -23 14 -24 14 -33 5z"/>
<path d="M10569 14101 c-25 -26 -29 -37 -29 -86 0 -41 6 -65 20 -86 27 -37 79
-48 126 -25 l34 16 0 -34 c0 -19 -7 -39 -16 -47 -24 -20 -89 -17 -113 5 -16
15 -24 17 -33 8 -9 -9 -6 -18 12 -37 39 -41 141 -33 177 14 8 11 12 62 13 159
0 121 -2 142 -15 142 -9 0 -18 -7 -21 -15 -5 -13 -9 -13 -34 0 -46 24 -88 19
-121 -14z m135 -33 c16 -23 21 -73 10 -103 -6 -16 -54 -45 -74 -45 -26 0 -60
49 -60 87 0 56 23 83 70 83 29 0 43 -6 54 -22z"/>
<path d="M10872 14114 c-33 -23 -52 -67 -52 -120 0 -89 71 -142 156 -114 29
10 54 35 54 54 0 12 -38 5 -50 -9 -13 -16 -67 -20 -86 -7 -17 11 -36 51 -29
62 3 6 44 10 91 10 83 0 84 0 84 25 0 62 -51 115 -110 115 -20 0 -46 -7 -58
-16z m106 -36 c7 -7 12 -22 12 -35 0 -21 -4 -23 -59 -23 -67 0 -80 10 -57 45
13 19 25 25 54 25 21 0 43 -5 50 -12z"/>
<path d="M11245 14099 c-34 -30 -35 -34 -35 -98 0 -62 2 -70 31 -97 25 -24 39
-29 80 -29 44 0 54 4 79 31 40 45 47 102 21 157 -36 74 -114 90 -176 36z m138
-51 c16 -32 17 -43 7 -75 -15 -46 -34 -63 -72 -63 -45 0 -68 31 -68 92 0 68
19 90 74 86 36 -3 43 -7 59 -40z"/>
<path d="M11497 14123 c-9 -8 -9 -237 -1 -246 3 -3 12 -3 20 0 11 4 14 27 14
93 0 98 12 120 67 120 46 0 56 -21 61 -121 4 -76 7 -90 21 -87 12 3 17 18 19
68 4 87 -4 127 -33 156 -26 26 -82 33 -103 12 -10 -10 -17 -10 -32 0 -23 14
-24 14 -33 5z"/>
<path d="M12334 14096 c-31 -31 -34 -39 -34 -93 0 -50 4 -64 29 -93 26 -31 34
-35 79 -35 40 0 56 5 76 24 14 14 26 28 26 33 0 13 -33 9 -54 -7 -29 -22 -72
-18 -96 7 -38 41 -24 53 68 56 93 3 101 9 82 66 -16 48 -53 76 -102 76 -32 0
-47 -7 -74 -34z m122 -23 c7 -10 14 -26 14 -35 0 -15 -9 -18 -59 -18 -67 0
-80 10 -57 45 20 31 81 35 102 8z"/>
<path d="M5182 13601 c-9 -6 -12 -49 -10 -177 3 -142 5 -169 18 -169 13 0 15
27 18 169 1 93 -1 173 -5 177 -5 5 -14 5 -21 0z"/>
<path d="M5743 13600 c-25 -10 -43 -39 -43 -68 0 -11 -9 -22 -20 -25 -26 -7
-26 -27 0 -34 17 -5 20 -15 22 -112 2 -86 6 -106 18 -106 12 0 16 21 20 105
l5 105 28 3 c37 4 33 36 -6 40 -38 5 -36 38 3 60 46 26 24 53 -27 32z"/>
<path d="M3282 13428 c3 -146 5 -173 18 -173 13 0 15 27 18 173 2 168 2 172
-18 172 -20 0 -20 -4 -18 -172z"/>
<path d="M2762 13573 c2 -14 15 -19 55 -21 l52 -3 3 -147 c3 -123 5 -147 18
-147 13 0 15 24 18 147 l3 147 52 3 c38 2 52 7 52 18 0 12 -22 15 -128 18
-119 2 -128 1 -125 -15z"/>
<path d="M5547 13563 c-4 -3 -7 -16 -7 -29 0 -13 -8 -24 -20 -27 -11 -3 -20
-10 -20 -17 0 -7 9 -14 20 -17 18 -5 20 -14 20 -73 0 -101 7 -127 41 -140 50
-21 82 6 34 28 -24 11 -25 16 -25 96 0 80 1 85 23 88 28 4 29 32 0 36 -15 2
-24 13 -28 33 -6 27 -23 37 -38 22z"/>
<path d="M3064 13491 c-60 -37 -72 -157 -21 -208 44 -45 140 -40 171 9 18 29
-2 33 -45 9 -34 -20 -44 -21 -68 -11 -29 12 -56 54 -45 71 3 6 31 10 63 9 109
-3 111 -2 111 25 0 59 -53 115 -107 115 -15 0 -42 -9 -59 -19z m110 -50 c9
-16 12 -31 9 -35 -4 -3 -33 -6 -65 -6 -48 0 -58 3 -58 17 0 28 31 53 66 53 27
0 37 -6 48 -29z"/>
<path d="M3420 13482 c-31 -27 -34 -34 -38 -95 -4 -65 -4 -67 31 -102 27 -27
43 -35 71 -35 55 0 106 32 106 66 0 11 -34 2 -60 -17 -26 -20 -32 -21 -60 -9
-17 7 -35 21 -41 32 -20 37 -5 46 77 47 43 1 82 5 88 11 18 18 -12 89 -47 110
-46 28 -86 25 -127 -8z m112 -29 c10 -9 18 -24 18 -35 0 -16 -9 -18 -66 -18
-63 0 -65 1 -58 23 3 12 11 28 16 35 15 17 68 15 90 -5z"/>
<path d="M3692 13494 c-49 -34 -67 -116 -37 -174 27 -52 91 -68 140 -36 22 15
26 15 31 2 3 -9 2 -28 -3 -43 -13 -39 -67 -53 -113 -29 -40 20 -50 20 -50 3 0
-30 37 -48 96 -48 53 0 62 3 86 30 28 31 28 33 28 166 0 137 -9 168 -36 130
-12 -17 -15 -17 -38 -1 -32 20 -75 21 -104 0z m111 -42 c24 -26 31 -75 16
-103 -27 -51 -70 -63 -110 -30 -31 25 -34 98 -5 130 24 26 77 28 99 3z"/>
<path d="M3939 13493 c-1 -38 -1 -131 0 -185 1 -45 5 -58 16 -58 8 0 15 3 16
8 0 4 1 44 2 88 2 91 18 120 66 126 15 2 26 9 26 18 0 21 -32 24 -60 6 -20
-13 -25 -13 -35 -1 -17 20 -30 19 -31 -2z"/>
<path d="M4138 13495 c-16 -9 -28 -24 -28 -35 0 -24 22 -26 40 -5 15 18 71 20
88 3 7 -7 12 -22 12 -35 0 -21 -5 -23 -45 -23 -51 0 -99 -20 -109 -45 -13 -34
-5 -64 20 -84 31 -25 68 -27 107 -6 24 12 29 12 34 0 3 -8 11 -15 19 -15 11 0
14 22 14 108 0 95 -2 111 -20 127 -26 24 -98 29 -132 10z m110 -152 c-2 -14
-15 -35 -31 -47 -26 -19 -30 -19 -55 -5 -53 30 -19 79 56 79 30 0 33 -2 30
-27z"/>
<path d="M4364 13497 c-2 -7 -3 -65 -2 -128 2 -93 6 -114 18 -114 12 0 16 19
20 91 3 56 10 97 19 108 16 19 66 21 78 4 4 -7 10 -56 13 -108 4 -76 8 -95 20
-95 12 0 16 19 20 91 3 56 10 97 19 108 16 19 66 21 78 4 4 -7 10 -56 13 -108
4 -76 8 -95 20 -95 12 0 16 20 18 107 3 104 2 106 -24 127 -33 26 -68 27 -103
2 -26 -19 -27 -19 -51 0 -27 20 -75 25 -85 9 -3 -5 -15 -10 -26 -10 -10 0 -19
5 -19 10 0 15 -20 12 -26 -3z"/>
<path d="M4897 13503 c-4 -3 -7 -80 -7 -170 0 -151 1 -164 18 -161 13 2 18 15
20 56 2 28 7 52 13 52 5 0 9 -4 9 -10 0 -15 68 -23 98 -11 60 25 83 118 48
192 -26 56 -88 76 -134 43 -20 -14 -24 -14 -38 0 -18 18 -18 18 -27 9z m146
-48 c21 -15 33 -80 23 -119 -3 -14 -18 -33 -31 -42 -21 -14 -30 -14 -55 -4
-39 16 -50 37 -50 94 0 73 61 111 113 71z"/>
<path d="M5303 13490 c-18 -11 -33 -24 -33 -29 0 -19 22 -22 46 -6 48 31 117
4 101 -39 -4 -11 -19 -16 -47 -16 -46 0 -94 -21 -104 -45 -13 -34 -5 -64 20
-84 32 -25 71 -27 102 -5 22 15 24 15 36 -2 25 -34 36 -6 36 97 0 95 -1 101
-26 124 -33 31 -86 33 -131 5z m114 -136 c8 -22 -8 -46 -41 -62 -32 -16 -63
-8 -71 19 -11 35 14 51 88 58 10 0 20 -6 24 -15z"/>
<path d="M5864 13476 c-31 -31 -34 -40 -34 -90 0 -67 13 -97 50 -119 61 -37
138 -11 165 55 20 51 19 73 -5 123 -36 74 -118 89 -176 31z m140 -49 c25 -51
10 -109 -34 -132 -57 -29 -100 8 -100 87 0 64 22 90 73 86 38 -3 44 -7 61 -41z"/>
<path d="M6114 13497 c-2 -7 -3 -65 -2 -128 2 -93 6 -114 18 -114 12 0 16 19
20 93 5 101 17 122 67 122 16 0 23 6 23 20 0 23 -38 28 -58 8 -10 -10 -17 -10
-32 0 -25 15 -29 15 -36 -1z"/>
<path d="M6294 13497 c-2 -7 -3 -65 -2 -128 2 -93 6 -114 18 -114 12 0 16 19
20 91 3 56 10 97 19 108 16 19 66 21 78 4 4 -7 10 -56 13 -108 4 -76 8 -95 20
-95 12 0 16 19 20 91 6 101 17 124 61 124 39 0 49 -24 49 -114 0 -83 6 -106
26 -106 11 0 14 22 14 108 0 100 -2 110 -23 130 -29 27 -70 28 -106 3 -26 -19
-27 -19 -51 0 -29 22 -62 24 -90 7 -15 -10 -22 -10 -32 0 -16 16 -27 15 -34
-1z"/>
<path d="M6704 13295 c-9 -22 22 -53 37 -38 15 15 7 47 -14 51 -9 2 -20 -4
-23 -13z"/>
<path d="M7197 5110 c-33 -26 -41 -63 -23 -99 15 -28 44 -45 103 -56 69 -14
105 -72 67 -109 -37 -38 -120 -31 -154 11 -24 31 -39 23 -20 -12 23 -43 114
-59 171 -30 35 19 51 53 43 94 -7 32 -35 50 -123 79 -61 19 -77 37 -68 74 13
50 101 65 143 23 14 -14 29 -25 34 -25 19 0 10 18 -21 44 -39 33 -113 36 -152
6z"/>
<path d="M7477 5104 c-4 -4 -7 -18 -7 -31 0 -15 -8 -27 -22 -33 l-23 -9 23 -7
c21 -6 22 -12 22 -93 0 -95 8 -115 53 -125 31 -7 37 9 6 19 -29 9 -34 32 -31
119 3 73 5 76 28 76 30 0 32 18 2 22 -16 2 -24 11 -26 28 -4 29 -15 43 -25 34z"/>
<path d="M8070 5083 c0 -23 -6 -33 -20 -38 -25 -8 -26 -21 -1 -28 18 -4 19
-14 18 -92 -1 -80 1 -89 22 -106 26 -21 47 -24 56 -9 3 5 -6 12 -20 16 -31 8
-37 29 -33 119 3 64 5 70 26 73 27 4 24 27 -4 27 -13 0 -20 8 -22 25 -6 39
-22 49 -22 13z"/>
<path d="M7653 5034 c-18 -9 -33 -23 -33 -30 0 -18 14 -18 30 1 7 9 29 15 51
15 30 0 42 -6 55 -25 9 -13 14 -30 12 -37 -3 -7 -36 -18 -74 -25 -95 -18 -121
-57 -69 -108 28 -29 54 -31 97 -9 29 15 33 15 43 0 19 -26 25 -7 25 80 0 102
-9 128 -51 143 -41 14 -47 14 -86 -5z m111 -130 c13 -33 -31 -83 -75 -84 -59
0 -80 61 -29 87 36 18 96 17 104 -3z"/>
<path d="M7935 5030 c-25 -17 -31 -17 -38 -5 -20 36 -27 9 -27 -100 0 -133 16
-156 21 -31 4 93 20 122 68 128 14 2 25 7 24 13 -3 17 -17 15 -48 -5z"/>
<path d="M1170 24205 l0 -675 -45 0 -45 0 0 -495 0 -495 45 0 45 0 0 -460 0
-460 -35 0 -35 0 0 -1000 0 -1000 35 0 35 0 0 -270 0 -270 -35 0 -35 0 0
-1000 0 -1000 35 0 35 0 0 -6525 c0 -4343 3 -6525 10 -6525 7 0 10 3482 10
10425 0 6943 -3 10425 -10 10425 -7 0 -10 -232 -10 -675z m-5 -705 c4 -6 -7
-10 -24 -10 -26 0 -31 -4 -31 -24 0 -31 10 -57 20 -51 4 2 15 -4 24 -14 15
-16 16 -55 14 -376 -3 -346 -4 -358 -23 -369 -27 -15 -35 -27 -35 -53 0 -19 5
-23 32 -23 23 0 29 -3 21 -11 -6 -6 -23 -9 -39 -7 l-29 3 -3 460 c-1 253 0
466 3 473 5 14 61 16 70 2z m-14 -2000 c19 -10 19 -29 19 -885 0 -868 0 -875
-20 -875 -17 0 -20 -7 -20 -40 0 -33 3 -40 20 -40 11 0 20 -5 20 -11 0 -6 -12
-9 -27 -7 l-28 3 -3 965 c-1 531 1 972 5 980 5 9 9 -4 11 -32 2 -35 8 -51 23
-58z m0 -2540 c19 -10 19 -29 19 -885 0 -868 0 -875 -20 -875 -17 0 -20 -7
-20 -40 0 -33 3 -40 20 -40 11 0 20 -5 20 -11 0 -6 -12 -9 -27 -7 l-28 3 -3
965 c-1 531 1 972 5 980 5 9 9 -4 11 -32 2 -35 8 -51 23 -58z"/>
<path d="M14110 14460 c0 -6940 3 -10420 10 -10420 7 0 10 2297 10 6870 l0
6870 33 0 c18 0 38 5 45 12 17 17 17 3119 0 3136 -7 7 -27 12 -45 12 l-33 0 0
1970 c0 1307 -3 1970 -10 1970 -7 0 -10 -3480 -10 -10420z m85 4900 l0 -1545
-29 0 c-16 0 -31 6 -33 13 -3 7 5 12 21 12 24 0 26 3 26 46 0 26 -11 78 -25
116 l-25 69 0 1277 c1 1274 1 1277 22 1332 11 30 23 88 25 128 5 72 5 72 -21
72 -25 0 -33 10 -19 24 4 4 19 6 33 4 l25 -3 0 -1545z"/>
<path d="M1170 3693 c1 -406 35 -772 96 -1014 96 -384 328 -763 616 -1004 281
-236 616 -388 988 -449 265 -43 920 -76 920 -46 0 6 -40 10 -97 11 -54 1 -111
3 -128 4 -16 2 -105 6 -197 9 -326 11 -614 55 -823 124 -140 46 -394 174 -508
256 -257 184 -443 399 -586 676 -117 228 -171 402 -210 675 -28 195 -50 562
-51 823 0 61 -4 102 -10 102 -6 0 -10 -62 -10 -167z"/>
<path d="M14110 3763 c0 -230 -23 -615 -46 -793 -36 -280 -88 -453 -204 -685
-194 -387 -458 -651 -845 -845 -335 -168 -597 -219 -1245 -244 -74 -3 -1860
-6 -3967 -6 -2549 0 -3833 -3 -3833 -10 0 -14 7725 -14 7985 0 491 27 772 88
1062 233 315 158 549 361 734 636 191 284 300 591 343 971 31 274 49 840 26
840 -6 0 -10 -39 -10 -97z"/>
</g>
</svg>
