<?xml version="1.0" standalone="no"?>
<!DOCTYPE svg PUBLIC "-//W3C//DTD SVG 20010904//EN"
 "http://www.w3.org/TR/2001/REC-SVG-20010904/DTD/svg10.dtd">
<svg version="1.0" xmlns="http://www.w3.org/2000/svg"
 width="1378.000000pt" height="2892.000000pt" viewBox="0 0 1378.000000 2892.000000"
 preserveAspectRatio="xMidYMid meet">

<g transform="translate(0.000000,2892.000000) scale(0.100000,-0.100000)"
fill="#000000" stroke="none">
<path d="M2655 27739 c-473 -27 -744 -88 -1036 -234 -391 -196 -668 -473 -864
-864 -149 -299 -206 -557 -235 -1061 -13 -231 -13 -520 0 -520 6 0 10 41 10
103 1 260 23 627 51 822 39 273 93 447 210 675 189 366 455 629 829 818 331
167 603 221 1250 246 74 3 1866 6 3983 6 2558 0 3847 3 3847 10 0 12 -7831 11
-8045 -1z"/>
<path d="M10880 27740 c0 -5 21 -10 48 -10 184 -1 584 -25 742 -46 280 -36
453 -88 685 -204 385 -193 649 -456 843 -840 114 -225 170 -414 206 -690 23
-178 46 -563 46 -792 0 -59 4 -98 10 -98 13 0 13 289 0 520 -29 504 -86 762
-235 1061 -196 391 -473 668 -864 864 -299 149 -557 206 -1061 235 -229 13
-420 13 -420 0z"/>
<path d="M6635 27569 c-2238 -4 -4090 -9 -4115 -13 -25 -4 -101 -14 -170 -22
-251 -30 -422 -76 -608 -165 -387 -183 -674 -469 -852 -851 -112 -241 -167
-504 -189 -898 -11 -202 -11 -22119 0 -22315 31 -554 130 -878 368 -1205 171
-236 371 -402 646 -535 276 -134 485 -179 950 -205 243 -14 8446 -14 8674 0
455 28 686 80 951 215 378 194 618 444 806 840 104 220 162 485 179 820 4 66
8 138 10 160 6 54 6 22066 0 22135 -2 30 -7 105 -10 165 -13 247 -60 506 -122
675 -164 442 -459 774 -868 977 -338 169 -627 215 -1400 226 -99 1 -2011 -1
-4250 -4z m-3202 -456 c-139 -2 -367 -2 -505 0 -139 1 -26 2 252 2 278 0 391
-1 253 -2z m7620 0 c-139 -2 -367 -2 -505 0 -139 1 -26 2 252 2 278 0 391 -1
253 -2z m345 -470 c14 -28 2 -153 -14 -153 -18 0 -29 29 -39 97 -6 44 -4 53
12 62 25 14 31 14 41 -6z m861 -8 c36 -18 41 -37 41 -162 0 -151 14 -143 -265
-143 -270 0 -284 4 -285 85 l-1 40 -15 -27 c-33 -62 -67 -20 -57 72 5 54 8 61
27 58 15 -2 23 -14 30 -48 l10 -45 6 66 c5 68 19 95 55 109 11 5 111 9 223 9
159 1 209 -2 231 -14z m-1209 -24 c5 -11 10 -78 10 -150 0 -104 -3 -133 -16
-145 -40 -41 -52 -6 -53 154 0 132 6 160 35 160 7 0 18 -9 24 -19z m-525 -33
c3 -13 5 -72 3 -133 -2 -90 -6 -110 -18 -110 -12 0 -15 23 -18 133 -2 112 0
132 13 132 8 0 17 -10 20 -22z m-7336 -102 c3 -95 -3 -126 -25 -126 -16 0 -18
8 -15 65 2 28 -4 49 -18 67 -28 35 -26 62 6 88 38 30 48 12 52 -94z m459 102
c22 -22 13 -38 -20 -38 l-33 0 32 -30 c51 -48 56 -107 12 -151 -29 -29 -86
-23 -113 14 -19 26 -19 28 -3 45 17 16 19 16 36 -7 24 -32 51 -22 51 18 0 33
-16 43 -43 29 -29 -15 -47 8 -47 61 0 59 12 71 70 71 25 0 51 -5 58 -12z
m-283 -113 l0 -110 -25 0 c-23 0 -25 4 -31 60 -3 33 -11 72 -19 88 -12 25 -11
29 10 53 14 14 33 24 45 22 19 -3 20 -10 20 -113z m437 103 c9 -7 19 -31 22
-53 23 -137 19 -155 -38 -172 -67 -21 -122 43 -97 110 6 15 8 41 4 57 -4 22 0
36 12 50 21 23 73 27 97 8z m7136 -135 c2 -104 1 -113 -18 -123 -11 -6 -25 -8
-30 -5 -11 7 -14 228 -3 239 4 4 16 6 28 4 19 -3 20 -11 23 -115z m-513 18 c7
-81 -4 -126 -28 -118 -15 5 -19 163 -5 190 16 31 26 9 33 -72z m-6945 59 c0
-13 -7 -20 -19 -20 -25 0 -38 20 -20 31 23 15 39 10 39 -11z m6844 -56 c3 -9
6 -40 6 -69 0 -29 -3 -60 -6 -69 -8 -22 -41 -20 -53 3 -12 22 -11 108 1 134
11 21 44 22 52 1z m505 -7 c7 -13 11 -47 9 -77 l-3 -55 -35 0 -35 0 -3 63 c-3
67 7 92 38 92 9 0 22 -10 29 -23z m457 -4 c51 3 59 -24 15 -51 l-30 -18 34
-37 34 -36 16 22 c8 12 15 27 15 34 0 7 5 13 10 13 6 0 10 12 10 28 0 35 14
57 30 47 16 -10 7 -61 -22 -125 -22 -49 -35 -59 -53 -41 -16 14 -93 22 -100
11 -5 -8 -11 -7 -21 1 -9 8 -14 32 -14 74 0 76 7 100 25 85 6 -5 29 -9 51 -7z
m-7288 -68 c-3 -21 -34 -33 -49 -18 -6 6 -7 29 -3 53 l7 43 24 -29 c13 -16 22
-38 21 -49z m7524 33 c22 -18 30 -94 11 -113 -15 -16 -41 -19 -67 -9 -12 4
-16 20 -16 54 0 68 33 98 72 68z m-1312 -19 c14 -25 3 -78 -16 -86 -33 -12
-56 44 -38 91 9 23 41 20 54 -5z m510 2 c5 -11 7 -33 4 -51 -6 -26 -11 -31
-33 -28 -21 2 -27 9 -29 36 -2 19 -1 40 2 48 8 20 44 17 56 -5z m-7240 -21 c0
-21 -16 -26 -39 -11 -18 11 -5 31 20 31 12 0 19 -7 19 -20z m620 -740 c0 -5
-5 -10 -11 -10 -5 0 -7 5 -4 10 3 6 8 10 11 10 2 0 4 -4 4 -10z m-270 -30 c0
-5 -14 -10 -31 -10 -17 0 -28 4 -24 10 3 6 17 10 31 10 13 0 24 -4 24 -10z
m370 0 c0 -5 -11 -10 -25 -10 -14 0 -25 5 -25 10 0 6 11 10 25 10 14 0 25 -4
25 -10z m4903 -40 c14 -11 28 -34 32 -51 8 -37 2 -48 -97 -168 -29 -35 -66
-82 -83 -106 -43 -61 -105 -135 -140 -170 -17 -16 -39 -43 -49 -60 -35 -57
-68 -85 -101 -85 -48 0 -72 24 -94 93 -10 34 -28 85 -39 112 -12 28 -31 83
-43 123 -12 40 -27 71 -32 69 -11 -3 -31 -64 -48 -147 -5 -25 -16 -64 -25 -87
-15 -42 -17 -43 -59 -43 l-44 0 -19 62 c-18 59 -42 89 -42 53 0 -9 -7 -39 -16
-66 l-17 -50 -45 3 -45 3 -19 70 c-36 138 -40 150 -54 183 -21 50 -18 60 22
68 56 10 80 -6 86 -61 9 -73 26 -76 35 -6 4 30 13 47 33 61 35 25 41 25 73 0
20 -16 26 -32 32 -80 4 -33 10 -60 15 -60 4 0 11 28 14 62 4 35 12 68 18 75
16 20 82 16 102 -6 16 -18 18 -18 46 10 31 32 44 34 87 18 35 -13 37 -17 69
-119 15 -47 30 -88 34 -93 3 -4 21 14 38 41 17 27 46 65 64 85 18 21 44 53 58
73 14 20 32 44 41 54 9 10 21 25 26 35 5 9 32 41 59 70 55 60 84 68 127 35z
m-5458 -40 c-3 -5 -10 -10 -16 -10 -5 0 -9 5 -9 10 0 6 7 10 16 10 8 0 12 -4
9 -10z m473 -68 c3 -54 0 -66 -24 -97 -14 -19 -31 -35 -36 -35 -5 0 -46 -22
-91 -50 -123 -74 -131 -92 -135 -297 -3 -137 -1 -163 11 -163 17 0 97 41 148
76 29 20 41 23 61 15 31 -12 40 -45 29 -105 -14 -76 -25 -86 -196 -177 -22
-12 -54 -32 -72 -45 -17 -13 -37 -24 -44 -24 -7 0 -20 -6 -28 -14 -9 -7 -36
-24 -61 -37 -25 -13 -58 -34 -73 -46 -35 -28 -61 -29 -84 -4 -76 79 -143 175
-143 202 0 10 10 21 23 25 12 4 34 17 48 29 15 12 40 27 57 34 37 15 42 32 42
141 0 99 22 249 45 320 22 65 45 86 183 164 64 37 124 71 132 77 48 31 159 78
180 76 23 -2 25 -6 28 -65z m1980 42 c22 -15 22 -18 20 -232 l-3 -217 -39 -3
c-24 -2 -42 2 -47 10 -5 7 -9 105 -9 217 0 176 2 207 17 223 20 22 32 23 61 2z
m792 -13 c3 -1 11 -16 18 -33 11 -30 10 -35 -10 -51 -18 -15 -32 -17 -84 -12
-76 9 -104 -4 -104 -45 l0 -30 74 0 c84 0 109 -14 104 -59 -3 -25 -6 -26 -82
-33 -78 -7 -96 -16 -96 -48 0 -32 16 -38 108 -41 80 -4 92 -2 92 12 0 39 73
27 118 -18 16 -15 22 -16 42 -3 22 14 -2 33 -72 54 -62 18 -72 29 -81 88 -18
120 203 160 263 47 6 -10 8 -30 4 -45 -6 -23 -10 -26 -40 -21 -42 7 -44 -6 -5
-22 57 -24 68 -102 22 -153 -25 -28 -35 -32 -92 -36 -62 -4 -94 4 -131 30 -14
10 -20 9 -30 -5 -12 -16 -29 -17 -153 -15 l-140 3 -5 200 c-7 254 -16 241 155
238 66 -1 122 -2 125 -2z m-2434 -16 c3 -8 25 -34 47 -58 51 -53 97 -116 97
-131 0 -7 9 -29 20 -51 27 -53 25 -67 -10 -94 -39 -28 -62 -79 -95 -206 -15
-55 -31 -110 -36 -123 -5 -13 -9 -32 -9 -43 0 -49 -64 -134 -127 -169 -16 -9
-57 -32 -93 -53 -62 -36 -78 -45 -117 -66 -10 -6 -58 -33 -106 -61 -85 -49
-90 -50 -113 -35 -30 19 -32 60 -4 119 15 35 34 53 94 90 40 25 78 46 83 46
15 0 69 63 86 102 14 28 17 68 17 186 0 86 -4 153 -10 157 -9 6 -63 -21 -145
-70 -79 -48 -102 -28 -93 82 4 49 9 60 39 85 19 16 43 33 54 38 11 6 29 15 40
22 11 6 27 15 35 19 8 4 59 34 114 66 54 32 110 65 125 73 60 36 71 46 71 67
0 26 27 32 36 8z m881 -30 c43 -50 51 -81 27 -105 -28 -27 -98 -14 -102 18 -5
32 -44 49 -77 34 -14 -6 -25 -18 -25 -27 0 -18 42 -47 74 -50 40 -5 100 -42
119 -74 23 -39 41 -41 34 -2 -4 17 0 36 8 47 8 11 15 26 15 35 0 23 35 43 97
59 44 11 57 11 78 0 14 -7 27 -11 31 -8 3 3 17 -6 31 -20 19 -19 28 -40 31
-74 l5 -48 -52 0 c-42 0 -51 3 -51 18 0 42 -61 58 -80 22 -6 -12 -10 -42 -8
-68 3 -39 7 -49 31 -62 26 -14 29 -14 42 4 8 10 16 24 18 30 2 7 25 10 55 9
38 -2 52 1 52 11 0 8 12 21 26 31 l26 17 -21 14 c-59 41 25 134 120 134 32 0
98 -30 117 -52 11 -14 20 -274 9 -284 -2 -3 -52 -6 -110 -7 l-106 -2 -34 33
-34 33 -31 -29 c-77 -72 -207 -51 -248 41 -18 40 -30 39 -36 -3 -2 -14 -13
-30 -27 -36 -13 -7 -27 -17 -30 -23 -4 -5 -43 -13 -87 -17 -64 -5 -83 -4 -95
8 -8 9 -24 18 -34 22 -24 7 -55 59 -55 92 0 51 91 58 110 9 18 -49 110 -57
110 -11 0 18 -16 30 -90 64 -98 46 -120 71 -120 136 0 50 17 80 58 105 31 18
49 21 116 19 78 -3 79 -4 113 -43z m858 -45 c3 -5 -1 -10 -9 -10 -9 0 -16 5
-16 10 0 6 4 10 9 10 6 0 13 -4 16 -10z m159 -21 c46 -18 58 -28 74 -63 11
-22 22 -57 26 -78 6 -31 3 -39 -19 -56 -21 -17 -23 -21 -10 -32 8 -7 15 -22
15 -34 0 -67 -126 -99 -215 -55 -29 15 -51 33 -56 49 -5 14 -15 35 -21 48 -14
27 -13 71 2 86 6 6 10 26 10 46 0 38 10 48 90 87 25 12 46 22 47 22 0 1 26 -9
57 -20z m1366 -29 c7 -13 11 -13 27 1 37 34 87 44 147 30 50 -11 60 -18 87
-58 28 -40 32 -54 30 -104 -2 -69 -20 -116 -56 -147 -22 -19 -39 -24 -99 -25
-61 -2 -76 1 -101 21 -40 31 -65 88 -64 142 1 68 1 70 -25 70 -34 0 -43 -18
-39 -75 2 -27 1 -74 -3 -103 l-6 -53 -46 3 -47 3 -3 143 c-1 86 2 150 8 162
13 25 56 36 75 20 10 -9 19 -9 28 -2 33 27 61 18 87 -28z m-500 30 c0 -5 -7
-10 -15 -10 -8 0 -15 5 -15 10 0 6 7 10 15 10 8 0 15 -4 15 -10z m203 -5 c38
-16 77 -69 77 -104 0 -46 -93 -50 -110 -5 -10 24 -34 31 -59 15 -22 -14 -26
-94 -6 -125 21 -31 50 -34 65 -6 26 48 95 46 106 -2 5 -26 1 -36 -29 -66 -32
-31 -43 -36 -97 -40 -52 -4 -65 -1 -99 21 -43 28 -71 91 -71 156 0 42 29 109
58 134 40 36 109 46 165 22z m-2193 -25 c0 -5 -2 -10 -4 -10 -3 0 -8 5 -11 10
-3 6 -1 10 4 10 6 0 11 -4 11 -10z m1545 0 c-3 -5 -10 -10 -16 -10 -5 0 -9 5
-9 10 0 6 7 10 16 10 8 0 12 -4 9 -10z m5195 -125 c31 -16 48 -65 36 -103 -18
-55 -115 -63 -141 -11 -19 35 -19 53 0 89 13 25 24 31 68 39 4 0 21 -6 37 -14z
m-9756 -38 l20 -27 -69 -67 -68 -68 166 -3 166 -2 7 -35 c3 -18 3 -38 -1 -44
-4 -7 -67 -11 -176 -11 -93 0 -169 -4 -169 -8 0 -5 29 -37 65 -71 44 -43 65
-70 65 -86 0 -24 -33 -55 -59 -55 -8 0 -42 28 -75 63 -34 34 -87 86 -118 115
-31 29 -60 56 -63 62 -11 17 12 45 131 163 127 125 137 129 178 74z m3326 7
c0 -8 -5 -12 -10 -9 -6 4 -8 11 -5 16 9 14 15 11 15 -7z m-900 -130 c0 -8 -5
-12 -10 -9 -6 4 -8 11 -5 16 9 14 15 11 15 -7z m7330 -29 c31 -16 45 -56 35
-98 -16 -64 -113 -72 -142 -12 -18 38 -12 76 17 105 24 24 51 25 90 5z m1
-186 c46 -24 48 -114 4 -143 -18 -12 -34 -14 -62 -8 -31 7 -40 14 -52 45 -13
34 -12 42 2 72 19 40 68 56 108 34z m-6856 -33 c15 -11 18 -24 16 -66 -2 -47
0 -51 17 -46 26 9 83 -32 104 -74 26 -54 23 -101 -11 -148 -30 -40 -30 -40
-93 -38 -104 3 -101 -2 -99 180 1 125 5 163 17 182 19 28 24 29 49 10z m508
-63 c6 -16 20 -37 29 -47 25 -27 22 -48 -7 -76 -33 -31 -32 -47 5 -47 38 0 39
0 46 -55 5 -38 3 -49 -15 -67 -28 -28 -75 -27 -103 1 -19 19 -22 34 -23 95 0
43 -5 77 -13 85 -14 14 -16 48 -2 48 6 0 10 8 10 19 0 20 36 71 51 71 5 0 15
-12 22 -27z m-140 -68 c60 -58 61 -160 2 -215 -18 -17 -39 -24 -75 -26 -45 -2
-52 0 -80 32 -27 31 -30 41 -30 102 1 54 5 72 23 94 47 57 109 62 160 13z
m-2103 -131 c0 -8 -5 -12 -10 -9 -6 4 -8 11 -5 16 9 14 15 11 15 -7z m1102
-56 c-6 -6 -16 -7 -22 -3 -9 6 -9 9 1 16 17 10 34 0 21 -13z m-848 -87 c7 -11
-14 -20 -31 -13 -7 2 -13 8 -13 13 0 12 37 12 44 0z m171 -91 c3 -5 1 -10 -4
-10 -6 0 -11 5 -11 10 0 6 2 10 4 10 3 0 8 -4 11 -10z m8885 -10965 l0 -10746
-29 -57 c-174 -341 -497 -590 -886 -683 -45 -10 -137 -26 -205 -36 -116 -16
-431 -17 -4450 -21 -4390 -3 -4548 -2 -4787 33 -306 46 -566 174 -775 382 -89
88 -143 159 -211 275 l-47 82 0 10758 0 10758 5695 0 5695 0 0 -10745z"/>
<path d="M11806 26553 c-12 -78 -7 -142 14 -163 17 -17 33 -20 120 -20 77 0
100 3 100 13 0 24 -12 26 -37 10 -24 -16 -26 -16 -42 3 -9 11 -28 25 -43 32
-16 6 -28 15 -28 19 0 5 15 38 33 76 l33 67 -72 0 -71 0 -7 -37z"/>
<path d="M12010 26580 c0 -5 9 -10 20 -10 11 0 20 5 20 10 0 6 -9 10 -20 10
-11 0 -20 -4 -20 -10z"/>
<path d="M12150 26580 c0 -5 19 -10 43 -10 31 0 38 3 27 10 -20 13 -70 13 -70
0z"/>
<path d="M12237 26493 c1 -38 2 -72 2 -77 1 -6 6 -5 12 1 13 13 8 135 -6 140
-6 2 -9 -23 -8 -64z"/>
<path d="M12018 26529 c-3 -8 -1 -29 4 -48 9 -32 10 -33 29 -15 22 20 25 44 4
44 -7 0 -18 7 -23 16 -7 13 -10 13 -14 3z"/>
<path d="M12145 26380 c-15 -6 -8 -9 28 -9 26 -1 47 4 47 9 0 12 -47 12 -75 0z"/>
<path d="M12068 26373 c6 -2 18 -2 25 0 6 3 1 5 -13 5 -14 0 -19 -2 -12 -5z"/>
<path d="M3741 26436 c-13 -16 -4 -46 14 -46 19 0 38 28 31 45 -7 19 -30 19
-45 1z"/>
<path d="M7032 25273 c2 -11 14 -19 33 -21 30 -4 30 -4 11 17 -23 26 -49 28
-44 4z"/>
<path d="M5807 25276 c-6 -14 12 -26 39 -26 19 0 18 26 -2 34 -24 9 -31 7 -37
-8z"/>
<path d="M5818 25167 c-31 -12 -37 -32 -13 -41 24 -9 67 12 63 31 -4 21 -16
23 -50 10z"/>
<path d="M6277 25274 c-15 -15 -6 -24 24 -24 20 0 29 4 27 13 -5 14 -40 21
-51 11z"/>
<path d="M6272 25148 c9 -27 34 -30 79 -10 l44 20 -63 1 c-45 1 -62 -3 -60
-11z"/>
<path d="M7833 25275 c-28 -20 -38 -87 -18 -125 38 -73 109 -4 83 82 -14 48
-37 63 -65 43z"/>
<path d="M5132 24568 c3 -38 6 -43 29 -46 17 -2 29 3 33 13 9 25 -16 70 -42
73 -22 3 -23 0 -20 -40z"/>
<path d="M5380 24601 c-22 -43 -5 -81 37 -81 26 0 39 34 29 75 -8 31 -50 35
-66 6z m37 -33 c-3 -8 -6 -5 -6 6 -1 11 2 17 5 13 3 -3 4 -12 1 -19z"/>
<path d="M3622 21768 c-8 -8 -12 -67 -12 -184 0 -140 3 -174 15 -184 12 -10
18 -10 30 0 11 9 15 35 15 104 0 100 7 116 52 116 38 0 48 -24 48 -123 0 -63
4 -88 15 -97 12 -10 18 -10 30 0 11 10 15 36 15 110 0 92 -2 101 -27 130 -22
27 -32 31 -62 28 -20 -3 -44 -8 -53 -12 -16 -7 -18 -2 -18 48 0 44 -4 57 -18
65 -13 7 -23 6 -30 -1z"/>
<path d="M5594 21767 c-2 -7 -3 -94 -2 -192 3 -172 4 -180 23 -180 18 0 20 8
25 96 6 106 16 129 61 129 39 0 49 -24 49 -123 0 -64 4 -88 15 -97 29 -24 37
3 36 117 -1 104 -2 109 -28 131 -19 18 -34 23 -57 19 -17 -3 -40 -7 -51 -9
-18 -3 -20 3 -23 52 -3 49 -13 69 -35 70 -4 0 -10 -6 -13 -13z"/>
<path d="M7447 21767 c-10 -7 -17 -30 -19 -57 l-3 -45 -48 3 c-43 4 -50 1 -83
-32 -36 -36 -36 -36 -32 -111 3 -66 7 -78 31 -102 25 -26 34 -28 105 -28 42 0
80 5 84 10 4 6 8 87 8 181 0 181 -7 209 -43 181z m-33 -169 c19 -27 21 -93 3
-128 -26 -51 -89 -30 -101 33 -7 37 8 97 26 109 24 15 57 8 72 -14z"/>
<path d="M5885 21754 c-14 -15 -15 -19 -2 -31 17 -17 57 -9 57 11 0 13 -20 36
-31 36 -4 0 -15 -7 -24 -16z"/>
<path d="M6395 21758 c-3 -8 -4 -90 -3 -183 l3 -170 40 -2 c22 0 56 -4 76 -8
31 -6 41 -3 72 25 37 32 37 33 37 109 0 75 -1 78 -34 110 -34 33 -55 37 -116
20 -12 -3 -16 8 -20 51 -4 48 -8 55 -28 58 -12 2 -24 -3 -27 -10z m159 -163
c9 -13 16 -43 16 -65 0 -22 -7 -52 -16 -65 -21 -32 -67 -34 -88 -3 -22 30 -21
116 1 140 24 26 67 23 87 -7z"/>
<path d="M3167 21753 c-12 -11 -8 -45 24 -178 16 -71 32 -140 35 -152 3 -18
11 -23 34 -23 26 0 30 5 45 53 8 28 21 77 28 107 22 93 44 67 77 -93 12 -61
16 -67 44 -67 39 0 40 2 99 288 9 44 8 55 -4 62 -9 6 -19 5 -26 -3 -15 -15
-43 -116 -43 -156 0 -29 -24 -70 -35 -59 -4 3 -16 46 -26 93 -24 107 -34 127
-61 123 -26 -4 -32 -15 -54 -113 -20 -94 -38 -122 -53 -84 -5 14 -15 61 -22
105 -13 84 -38 122 -62 97z"/>
<path d="M7848 21730 c-34 -35 -33 -54 5 -58 18 -2 29 3 37 18 17 31 62 24 74
-12 8 -23 4 -33 -27 -72 -44 -53 -52 -89 -21 -94 15 -2 27 6 40 26 11 16 32
48 48 71 37 53 31 102 -17 131 -49 30 -102 26 -139 -10z"/>
<path d="M4187 21723 c-4 -3 -7 -14 -7 -24 0 -10 -9 -23 -20 -29 -11 -6 -20
-17 -20 -25 0 -7 9 -17 20 -20 18 -6 20 -15 20 -88 0 -113 26 -158 83 -143 34
8 35 29 2 44 -20 10 -25 19 -27 54 -3 82 3 113 24 129 23 18 19 49 -7 49 -8 0
-15 8 -15 18 0 31 -35 54 -53 35z"/>
<path d="M5437 21723 c-4 -3 -7 -14 -7 -24 0 -9 -12 -24 -26 -34 l-27 -17 27
-25 c25 -23 26 -29 25 -104 -2 -71 0 -82 21 -104 30 -32 73 -31 78 2 2 14 -3
23 -17 28 -24 7 -24 8 -21 95 1 49 7 70 22 87 21 22 17 43 -8 43 -8 0 -14 8
-14 18 0 31 -35 54 -53 35z"/>
<path d="M6987 21723 c-4 -3 -7 -14 -7 -24 0 -10 -10 -24 -22 -30 -13 -6 -25
-13 -27 -15 -2 -2 8 -15 23 -29 25 -23 28 -32 26 -88 -1 -34 -2 -70 -1 -80 1
-25 46 -67 71 -67 32 0 37 30 9 51 -20 15 -24 27 -26 81 -2 78 3 95 28 103 24
8 25 35 1 42 -10 2 -23 18 -29 34 -11 27 -31 37 -46 22z"/>
<path d="M3931 21644 c-17 -14 -31 -32 -31 -40 0 -21 37 -17 69 7 23 17 32 19
50 10 12 -7 21 -21 21 -35 0 -21 -6 -24 -52 -29 -92 -11 -128 -84 -70 -140 28
-27 31 -28 109 -21 l80 7 -2 105 c-2 105 -3 106 -34 134 -42 38 -97 38 -140 2z
m112 -164 c-8 -29 -28 -42 -60 -38 -53 6 -40 73 15 80 32 4 52 -15 45 -42z"/>
<path d="M4508 21647 c-38 -32 -48 -58 -48 -122 0 -83 45 -135 116 -135 48 0
118 62 96 84 -12 12 -40 5 -57 -14 -41 -45 -105 -3 -105 70 0 45 32 90 64 90
12 0 33 -11 46 -25 27 -29 45 -32 54 -9 9 23 9 22 -26 55 -41 37 -100 40 -140
6z"/>
<path d="M4773 21649 c-40 -25 -45 -59 -9 -59 13 0 27 7 30 16 4 11 17 14 43
12 32 -3 38 -7 41 -29 3 -25 0 -26 -49 -32 -83 -10 -115 -53 -90 -120 11 -30
62 -52 98 -43 16 4 46 8 68 9 31 1 40 6 39 20 0 9 -1 56 -2 103 -2 80 -4 87
-31 115 -36 36 -90 39 -138 8z m107 -140 c14 -26 -11 -69 -39 -69 -53 0 -70
45 -29 74 31 22 55 20 68 -5z"/>
<path d="M5006 21654 c-3 -9 -6 -66 -6 -129 0 -88 3 -115 15 -125 12 -10 18
-10 30 0 11 9 15 34 15 100 0 93 13 120 57 120 36 0 47 -27 49 -122 3 -97 12
-120 39 -98 14 12 16 32 13 123 -3 100 -5 110 -27 128 -27 22 -72 25 -101 7
-16 -10 -24 -10 -40 0 -26 16 -37 15 -44 -4z"/>
<path d="M5875 21618 c-8 -71 0 -207 14 -221 8 -8 16 -9 29 -1 15 10 17 29 17
140 l0 129 -27 3 c-25 3 -27 0 -33 -50z"/>
<path d="M6031 21644 c-32 -27 -39 -59 -21 -93 5 -10 34 -26 64 -35 65 -21 84
-39 66 -61 -18 -22 -73 -19 -88 5 -13 21 -47 27 -57 10 -10 -15 13 -49 45 -65
75 -39 159 -1 160 71 0 38 -12 49 -81 73 -40 13 -55 23 -57 39 -6 41 55 47 87
8 18 -21 37 -20 46 1 4 13 -3 26 -25 45 -41 38 -96 38 -139 2z"/>
<path d="M6718 21640 c-43 -36 -58 -97 -39 -160 33 -110 170 -121 217 -17 62
137 -69 267 -178 177z m117 -44 c57 -87 -17 -204 -85 -136 -25 25 -27 105 -4
138 21 31 69 30 89 -2z"/>
<path d="M7596 21648 c-102 -77 -52 -258 71 -258 48 0 99 49 111 107 26 121
-92 218 -182 151z m107 -45 c28 -32 26 -114 -3 -143 -26 -26 -55 -25 -81 1
-18 18 -21 30 -17 77 3 38 11 59 23 68 26 19 59 17 78 -3z"/>
<path d="M7893 21434 c-3 -8 2 -23 11 -32 15 -15 17 -15 32 0 21 21 11 48 -16
48 -11 0 -23 -7 -27 -16z"/>
<path d="M4057 20563 c-4 -3 -7 -84 -7 -178 0 -132 3 -175 13 -184 8 -6 17 -8
20 -4 4 3 7 89 7 190 0 146 -3 183 -13 183 -8 0 -17 -3 -20 -7z"/>
<path d="M4572 20553 c2 -10 10 -18 18 -18 8 0 16 8 18 18 2 12 -3 17 -18 17
-15 0 -20 -5 -18 -17z"/>
<path d="M7562 20388 l3 -183 71 -3 c70 -3 72 -2 99 30 24 29 27 38 23 91 -6
74 -43 117 -110 126 l-43 6 -3 58 c-3 49 -6 57 -23 57 -19 0 -19 -7 -17 -182z
m129 -7 c60 -61 26 -153 -50 -136 -25 5 -32 13 -37 41 -8 44 1 105 18 116 23
14 39 9 69 -21z"/>
<path d="M8576 20554 c-3 -9 -6 -90 -6 -180 0 -139 2 -166 15 -171 23 -8 30 3
28 50 -3 84 7 126 33 144 20 13 30 14 49 5 24 -11 25 -16 25 -94 0 -96 11
-125 36 -93 12 15 15 40 12 107 -4 107 -14 121 -96 128 -50 4 -57 8 -55 25 8
64 -24 124 -41 79z"/>
<path d="M3264 20550 c-30 -12 -54 -49 -54 -83 0 -31 40 -76 101 -112 69 -41
58 -115 -18 -115 -47 0 -77 32 -70 76 3 18 1 36 -4 40 -19 11 -39 -18 -39 -58
0 -30 7 -46 29 -69 25 -24 38 -29 80 -29 73 0 104 29 103 96 0 44 -4 52 -39
81 -21 18 -43 33 -50 33 -13 0 -53 52 -53 69 0 6 13 17 29 26 27 13 31 13 45
-1 9 -8 16 -22 16 -30 0 -8 9 -14 20 -14 24 0 26 20 5 59 -19 37 -57 49 -101
31z"/>
<path d="M8137 20514 c-4 -4 -7 -18 -7 -31 0 -13 -7 -26 -15 -29 -8 -4 -15
-14 -15 -24 0 -10 7 -20 15 -24 11 -4 15 -23 15 -80 0 -102 10 -126 54 -126
43 0 58 19 54 67 -4 45 -21 49 -28 7 -3 -17 -11 -29 -20 -29 -12 0 -16 17 -18
78 -3 72 -1 79 18 84 25 7 26 29 1 43 -11 5 -21 22 -23 37 -3 26 -18 39 -31
27z"/>
<path d="M8426 20513 c-3 -3 -6 -16 -6 -29 0 -12 -7 -24 -15 -28 -8 -3 -15
-15 -15 -26 0 -11 7 -23 15 -26 12 -5 15 -25 15 -93 0 -47 4 -92 9 -100 9 -14
61 -18 80 -7 4 3 11 22 14 41 10 64 -16 91 -31 33 -4 -18 -15 -33 -23 -33 -11
0 -15 18 -17 75 -3 67 -1 76 20 91 l23 18 -23 23 c-12 14 -22 32 -22 41 0 18
-14 30 -24 20z"/>
<path d="M9130 20496 c0 -13 -7 -31 -15 -40 -17 -16 -20 -42 -6 -50 4 -3 11
-44 14 -92 5 -89 13 -106 54 -118 30 -9 63 28 63 72 0 26 -4 33 -17 30 -11 -2
-19 -14 -21 -31 -4 -33 -32 -37 -33 -4 -3 77 4 133 17 143 18 14 18 40 0 47
-8 3 -16 18 -18 34 -4 37 -38 46 -38 9z"/>
<path d="M3526 20428 c-36 -36 -53 -89 -42 -132 9 -38 69 -96 99 -96 35 0 97
55 97 86 0 32 -10 30 -45 -6 -53 -55 -105 -29 -105 52 0 64 22 82 89 73 41 -6
51 -4 51 8 0 22 -25 38 -69 44 -36 5 -44 2 -75 -29z"/>
<path d="M3798 20440 c-30 -23 -34 -40 -16 -69 9 -15 8 -26 -6 -55 -15 -32
-15 -38 -1 -65 21 -42 43 -51 114 -49 l61 2 0 100 c0 123 -12 145 -81 153 -35
4 -50 0 -71 -17z m86 -26 c9 -3 16 -15 16 -25 0 -16 -8 -19 -45 -19 -33 0 -45
4 -45 15 0 25 41 42 74 29z m22 -109 c12 -47 -51 -86 -84 -53 -29 29 3 78 49
78 22 0 30 -6 35 -25z"/>
<path d="M4199 20421 c-36 -35 -39 -43 -39 -93 0 -45 5 -59 30 -90 40 -48 79
-57 125 -28 38 23 60 54 50 70 -10 17 -30 11 -55 -15 -13 -14 -33 -25 -45 -25
-27 0 -58 33 -53 57 3 15 12 18 60 15 94 -6 119 26 82 103 -28 59 -99 62 -155
6z m111 -21 c29 -29 17 -40 -46 -40 -60 0 -66 9 -28 39 33 26 49 26 74 1z"/>
<path d="M4737 20442 c-10 -10 -17 -32 -17 -49 0 -25 10 -40 53 -77 48 -42 51
-46 36 -62 -22 -21 -50 -11 -71 26 -9 16 -21 30 -26 30 -21 0 -21 -34 -1 -66
32 -52 96 -62 130 -21 33 40 24 71 -33 121 -50 42 -52 46 -36 62 16 16 18 16
42 1 33 -22 46 -21 46 2 0 45 -91 69 -123 33z"/>
<path d="M5126 20439 c-29 -23 -32 -39 -14 -69 10 -16 10 -24 0 -40 -20 -32
-15 -84 11 -108 19 -18 34 -21 90 -21 l67 1 0 104 c0 101 -1 106 -26 129 -34
32 -91 33 -128 4z m88 -25 c9 -3 16 -14 16 -24 0 -13 -10 -19 -37 -23 -46 -5
-59 4 -44 32 12 21 35 26 65 15z m21 -104 c14 -43 -46 -88 -80 -60 -18 15 -19
34 -5 61 15 27 76 27 85 -1z"/>
<path d="M5380 20439 c-10 -17 -7 -226 3 -235 3 -4 13 -4 22 -1 12 5 15 23 15
82 0 67 3 79 25 100 54 55 85 22 85 -93 0 -70 10 -99 29 -88 7 5 11 44 11 107
0 86 -3 102 -20 119 -22 22 -22 22 -103 24 -44 1 -61 -3 -67 -15z"/>
<path d="M5825 20438 c-56 -44 -69 -118 -32 -183 40 -71 104 -80 164 -23 46
43 23 69 -30 33 -20 -14 -44 -25 -55 -25 -25 0 -55 34 -50 57 3 15 13 18 69
18 72 0 99 13 99 49 0 23 -23 63 -48 84 -25 19 -86 15 -117 -10z m96 -28 c10
-6 19 -20 19 -30 0 -18 -7 -20 -56 -20 -47 0 -55 3 -52 17 2 10 14 23 28 30
31 16 36 16 61 3z"/>
<path d="M6096 20444 c-9 -8 -16 -31 -16 -49 0 -28 8 -40 45 -71 53 -43 63
-84 19 -84 -19 0 -28 8 -40 35 -15 37 -38 46 -48 19 -17 -45 70 -117 113 -94
61 32 67 80 18 128 -18 18 -38 32 -44 32 -19 0 -23 29 -7 45 19 19 30 19 38 0
7 -20 35 -19 43 2 16 40 -87 72 -121 37z"/>
<path d="M6365 20438 c-81 -70 -51 -219 47 -235 33 -5 41 -2 73 32 39 42 41
48 22 64 -11 8 -20 4 -40 -19 -32 -35 -59 -38 -87 -10 -25 25 -27 86 -4 119
15 21 21 22 70 16 44 -5 54 -4 54 8 0 22 -25 38 -68 44 -31 4 -44 0 -67 -19z"/>
<path d="M6597 20453 c-11 -10 -8 -226 3 -243 16 -24 42 16 35 55 -10 53 7
107 40 125 17 9 31 24 33 34 3 14 -3 16 -32 14 -20 -1 -41 3 -48 10 -14 14
-22 15 -31 5z"/>
<path d="M6825 20451 c-36 -15 -55 -47 -62 -99 -7 -64 0 -92 33 -125 34 -34
98 -37 137 -6 53 41 60 164 13 208 -26 25 -89 36 -121 22z m103 -74 c26 -55
-9 -137 -58 -137 -12 0 -33 12 -47 26 -22 23 -25 31 -19 71 8 62 21 75 70 71
34 -2 43 -8 54 -31z"/>
<path d="M7888 20443 c-36 -23 -48 -53 -48 -123 0 -52 3 -62 31 -89 24 -24 39
-31 70 -31 51 0 75 13 94 50 22 42 19 139 -4 167 -36 43 -97 54 -143 26z m106
-55 c24 -34 20 -92 -7 -124 -20 -23 -28 -25 -56 -19 -45 10 -65 55 -48 111 13
47 22 54 64 54 22 0 37 -7 47 -22z"/>
<path d="M8892 20444 c-18 -13 -22 -24 -22 -67 1 -29 1 -72 0 -97 -1 -62 24
-82 99 -79 31 2 62 7 69 12 15 12 16 152 1 196 -17 50 -99 69 -147 35z m96
-36 c22 -22 12 -36 -29 -40 -45 -4 -61 11 -39 37 15 18 51 20 68 3z m13 -94
c21 -25 -8 -69 -45 -69 -38 0 -54 25 -38 59 14 30 61 36 83 10z"/>
<path d="M4575 20438 c-3 -8 -4 -61 -3 -119 2 -84 6 -104 18 -104 12 0 15 19
15 114 0 83 -3 115 -12 118 -7 3 -15 -2 -18 -9z"/>
<path d="M7060 20426 c0 -12 4 -36 9 -52 5 -16 19 -62 31 -101 27 -92 56 -97
77 -13 12 44 23 43 48 -6 15 -29 26 -39 45 -39 23 0 26 5 32 60 3 33 14 81 23
108 16 48 14 67 -9 67 -12 0 -36 -52 -46 -99 -6 -31 -30 -39 -37 -12 -11 43
-68 34 -75 -12 -5 -35 -22 -23 -36 25 -24 77 -34 98 -48 98 -8 0 -14 -10 -14
-24z"/>
<path d="M4176 19964 c-8 -20 1 -34 20 -34 8 0 14 10 14 25 0 28 -24 34 -34 9z"/>
<path d="M4467 19974 c-4 -4 -7 -30 -7 -58 0 -28 -4 -56 -8 -62 -4 -6 -28 -14
-53 -18 -67 -10 -98 -40 -105 -102 -11 -97 30 -141 130 -136 34 1 64 8 68 15
12 18 5 344 -8 357 -6 6 -13 7 -17 4z m-9 -236 c5 -80 -35 -120 -90 -92 -30
16 -44 50 -34 88 10 41 34 57 80 54 l41 -3 3 -47z"/>
<path d="M6914 19965 c-7 -18 3 -35 21 -35 18 0 26 25 12 39 -15 15 -27 14
-33 -4z"/>
<path d="M7345 19960 c-9 -10 -20 -41 -22 -67 -3 -26 -10 -54 -16 -61 -7 -9
-6 -20 1 -35 7 -12 13 -58 14 -102 3 -74 5 -80 26 -83 21 -3 22 -1 22 87 0 82
2 91 21 102 l22 11 -27 24 c-28 27 -32 44 -16 74 15 27 40 14 40 -20 0 -33 18
-49 31 -29 17 26 9 69 -16 94 -29 30 -56 32 -80 5z"/>
<path d="M10148 19963 c-8 -10 -18 -40 -22 -67 -3 -27 -14 -58 -23 -68 -16
-17 -15 -19 5 -34 20 -14 22 -24 22 -100 0 -76 2 -85 18 -82 14 3 17 15 17 85
0 73 2 82 24 100 l25 20 -27 18 c-31 20 -37 64 -11 86 13 10 17 10 25 -2 5 -8
9 -24 9 -36 0 -16 6 -23 20 -23 16 0 20 7 20 34 0 66 -66 111 -102 69z"/>
<path d="M8237 19913 c-4 -3 -7 -16 -7 -28 0 -12 -9 -30 -20 -40 -20 -18 -20
-19 -1 -39 15 -17 19 -37 20 -106 1 -67 5 -88 18 -97 40 -30 82 -5 86 51 3 48
-17 58 -31 16 -21 -59 -42 -31 -42 58 0 38 5 61 17 74 13 14 14 23 5 41 -6 12
-13 34 -16 50 -6 26 -16 34 -29 20z"/>
<path d="M9117 19913 c-4 -3 -7 -16 -7 -27 0 -12 -7 -31 -15 -42 -12 -19 -12
-24 0 -40 9 -12 15 -44 15 -89 0 -80 16 -119 49 -123 35 -5 61 25 61 70 0 46
-9 48 -32 7 -25 -44 -38 -28 -38 48 0 55 4 71 22 90 l22 23 -22 16 c-14 10
-22 26 -22 45 0 27 -17 39 -33 22z"/>
<path d="M4652 19853 c-59 -29 -76 -57 -75 -127 1 -99 52 -151 126 -127 42 14
82 55 74 75 -9 23 -24 20 -49 -9 -29 -34 -70 -33 -98 2 -28 35 -15 46 62 50
83 4 88 7 88 46 0 69 -70 118 -128 90z m73 -53 c26 -29 5 -50 -51 -50 -49 0
-58 18 -27 52 21 24 55 23 78 -2z"/>
<path d="M5578 19849 c-53 -27 -71 -59 -71 -124 0 -65 35 -119 83 -130 53 -12
137 50 115 85 -10 16 -24 12 -47 -15 -28 -33 -72 -33 -93 -1 -26 39 -12 51 60
53 36 1 69 5 75 8 5 3 10 24 10 46 0 30 -6 46 -26 64 -15 14 -30 25 -35 25 -4
0 -13 2 -21 5 -7 2 -30 -5 -50 -16z m77 -49 c29 -32 13 -52 -42 -48 -54 3 -63
18 -32 47 28 26 51 27 74 1z"/>
<path d="M8000 19841 c-39 -39 -35 -61 26 -118 52 -49 60 -86 17 -81 -17 2
-32 13 -43 33 -19 35 -44 39 -48 9 -4 -27 40 -80 73 -88 27 -7 62 7 82 33 25
33 15 63 -38 111 -36 33 -50 53 -46 64 8 20 43 21 51 1 7 -19 46 -20 46 0 0
14 -38 55 -51 55 -4 0 -14 3 -23 6 -10 4 -27 -6 -46 -25z"/>
<path d="M3201 19836 c-25 -26 -25 -27 -7 -58 18 -30 18 -32 0 -65 -14 -28
-16 -38 -6 -54 7 -10 12 -43 12 -73 0 -64 7 -86 26 -86 10 0 14 14 14 48 0 26
4 52 8 59 4 6 29 14 55 18 58 9 80 36 79 97 -1 81 -41 127 -116 135 -35 4 -45
1 -65 -21z m113 -39 c36 -29 43 -97 11 -121 -26 -20 -71 -20 -79 0 -9 24 -7
90 4 118 12 32 27 33 64 3z"/>
<path d="M3464 19847 c-2 -7 -3 -65 -2 -128 2 -93 6 -114 18 -114 11 0 16 17
21 70 8 96 15 113 47 117 19 2 27 9 27 23 0 16 -6 20 -31 18 -19 -2 -37 4 -44
12 -15 18 -29 19 -36 2z"/>
<path d="M3684 19841 c-40 -24 -69 -95 -60 -145 4 -19 20 -48 35 -65 24 -26
37 -31 73 -31 52 0 85 21 104 66 31 75 3 162 -60 184 -41 14 -57 13 -92 -9z
m94 -43 c30 -33 36 -69 19 -111 -16 -37 -44 -52 -81 -43 -49 12 -63 110 -21
151 30 31 55 32 83 3z"/>
<path d="M4051 19798 c-31 -92 -37 -98 -61 -68 -11 14 -20 29 -20 34 0 24 -35
86 -48 86 -23 0 -10 -53 37 -153 49 -107 65 -111 92 -22 11 33 24 70 30 82 15
29 17 95 2 100 -6 2 -20 -22 -32 -59z"/>
<path d="M4892 19837 c-12 -13 -22 -28 -22 -35 0 -26 26 -63 61 -88 48 -33 55
-74 14 -74 -19 0 -31 10 -46 35 -25 42 -39 45 -39 7 0 -85 115 -121 149 -46
19 42 13 56 -40 105 -35 32 -50 53 -46 63 8 20 31 20 52 0 16 -16 45 -13 45 5
0 6 -10 19 -22 31 -30 27 -79 26 -106 -3z"/>
<path d="M5288 19843 c-37 -43 -33 -61 27 -118 58 -56 65 -78 28 -83 -14 -2
-28 7 -43 27 -12 17 -28 31 -36 31 -33 0 -3 -75 39 -96 66 -35 136 31 102 97
-9 16 -19 29 -24 29 -5 0 -23 14 -41 30 -27 25 -30 33 -20 45 16 19 34 19 50
0 18 -21 40 -19 40 4 0 44 -91 69 -122 34z"/>
<path d="M5838 19845 c-35 -19 -58 -67 -58 -120 0 -90 86 -154 148 -108 39 29
60 69 45 84 -9 9 -19 5 -42 -19 -53 -57 -111 -31 -111 50 0 28 7 44 27 63 32
29 41 30 67 10 27 -21 46 -19 46 5 0 21 -46 50 -77 50 -10 -1 -30 -7 -45 -15z"/>
<path d="M6340 19729 c0 -119 2 -130 18 -127 14 3 18 17 22 80 6 81 17 102 55
112 47 12 25 46 -30 46 -13 0 -27 5 -30 10 -3 6 -13 10 -21 10 -11 0 -14 -24
-14 -131z"/>
<path d="M6557 19839 c-58 -44 -72 -112 -37 -185 23 -46 64 -70 104 -60 30 8
86 53 86 71 0 24 -28 24 -51 -1 -40 -42 -115 -24 -107 27 3 22 8 24 78 29 l75
5 3 36 c2 28 -3 42 -27 67 -35 38 -81 42 -124 11z m98 -39 c29 -32 13 -50 -44
-50 -61 0 -73 15 -37 47 33 28 57 29 81 3z"/>
<path d="M7045 19848 c-3 -8 -4 -66 -3 -129 2 -93 6 -114 18 -114 12 0 16 18
20 84 5 72 9 86 29 102 27 22 54 24 69 6 6 -7 12 -53 14 -103 2 -71 6 -89 18
-89 12 0 16 19 18 102 2 92 1 104 -18 123 -17 17 -31 20 -78 18 -32 -1 -63 1
-70 6 -7 4 -14 2 -17 -6z"/>
<path d="M7706 19839 c-25 -20 -37 -69 -16 -69 14 0 12 -22 -6 -58 -14 -29
-14 -35 2 -67 19 -40 38 -47 115 -43 l54 3 3 101 3 102 -31 26 c-39 32 -87 34
-124 5z m92 -31 c25 -25 13 -38 -33 -38 -30 0 -45 4 -45 13 0 19 21 37 45 37
12 0 26 -5 33 -12z m10 -95 c5 -10 6 -29 2 -43 -5 -21 -12 -25 -45 -25 -38 0
-40 2 -43 33 -3 26 1 34 20 41 36 15 56 13 66 -6z"/>
<path d="M8384 19847 c-2 -7 -3 -65 -2 -127 3 -100 5 -115 21 -118 15 -3 17 5
17 62 0 84 12 114 50 128 43 14 36 43 -10 44 -19 1 -36 6 -38 13 -5 15 -31 14
-38 -2z"/>
<path d="M8893 19848 c-27 -13 -63 -83 -63 -121 0 -34 22 -88 43 -105 8 -7 31
-15 50 -19 28 -4 40 0 70 27 39 34 47 57 22 66 -9 4 -23 -4 -36 -20 -33 -43
-87 -30 -104 25 -11 34 4 83 32 103 25 19 27 19 60 1 27 -15 36 -16 46 -6 9
10 6 17 -16 37 -30 25 -67 30 -104 12z"/>
<path d="M9557 19853 c-12 -11 -8 -241 3 -248 23 -14 39 16 34 63 -7 68 6 104
44 121 50 23 37 51 -23 51 -13 0 -27 5 -30 10 -7 12 -19 13 -28 3z"/>
<path d="M9772 19842 c-79 -61 -82 -172 -5 -232 33 -26 62 -25 103 3 45 30 60
55 40 67 -11 7 -22 2 -40 -15 -44 -42 -115 -23 -108 29 3 22 0 21 116 25 l42
1 0 39 c0 57 -39 101 -88 101 -21 0 -47 -8 -60 -18z m93 -42 c29 -32 13 -50
-44 -50 -61 0 -70 12 -35 45 32 30 55 32 79 5z"/>
<path d="M10340 19839 c-19 -12 -36 -22 -37 -23 -2 -2 -7 -25 -12 -53 -19 -98
22 -163 103 -163 49 0 79 18 100 62 33 66 12 148 -47 181 -38 22 -65 21 -107
-4z m99 -40 c20 -16 25 -30 25 -70 1 -42 -3 -54 -23 -70 -54 -44 -111 -10
-111 68 0 80 56 117 109 72z"/>
<path d="M10584 19847 c-2 -7 -3 -65 -2 -128 2 -93 6 -114 18 -114 11 0 16 18
21 75 8 94 13 106 50 114 43 8 36 41 -8 41 -18 1 -38 6 -45 13 -16 16 -27 15
-34 -1z"/>
<path d="M4177 19833 c-2 -10 -5 -61 -6 -114 -2 -76 1 -98 13 -108 23 -20 27
0 24 124 -2 71 -7 110 -15 112 -6 2 -13 -4 -16 -14z"/>
<path d="M6060 19746 c0 -92 3 -109 20 -126 24 -24 64 -35 87 -24 10 4 32 8
48 8 l30 1 3 123 c2 100 0 122 -12 122 -20 0 -26 -22 -26 -99 0 -83 -16 -111
-65 -111 -31 0 -35 3 -40 33 -3 17 -6 63 -8 102 -2 57 -5 70 -19 73 -16 3 -18
-7 -18 -102z"/>
<path d="M6915 19838 c-3 -8 -4 -63 -3 -124 2 -89 6 -109 18 -109 12 0 15 20
15 119 0 87 -3 120 -12 123 -7 3 -15 -2 -18 -9z"/>
<path d="M7490 19731 c0 -121 7 -144 35 -121 10 8 14 32 13 80 -2 73 10 100
44 100 21 0 36 27 22 39 -5 5 -33 11 -61 15 l-53 7 0 -120z"/>
<path d="M8567 19844 c-9 -9 -9 -160 -1 -201 4 -22 14 -33 40 -42 19 -7 44 -9
57 -5 12 4 36 7 53 5 29 -1 32 1 38 36 9 56 7 186 -3 202 -5 8 -16 11 -25 8
-13 -5 -16 -23 -16 -91 0 -64 -4 -88 -16 -100 -18 -19 -70 -21 -81 -3 -4 6
-10 52 -13 101 -5 82 -14 108 -33 90z"/>
<path d="M9270 19745 c0 -91 3 -108 20 -125 25 -25 68 -36 89 -23 9 6 30 8 47
6 28 -4 32 -2 38 27 12 62 7 185 -9 206 -22 29 -35 2 -35 -78 0 -94 -11 -118
-53 -118 -51 0 -57 13 -57 117 0 86 -1 93 -20 93 -19 0 -20 -7 -20 -105z"/>
<path d="M6568 19358 c-3 -7 -6 -88 -7 -180 -2 -116 1 -168 9 -173 21 -13 31
12 34 81 3 93 16 116 64 112 l37 -3 3 -93 c2 -73 6 -94 18 -99 25 -9 34 16 34
100 0 124 -20 147 -119 138 -31 -3 -40 13 -34 60 7 49 -25 95 -39 57z"/>
<path d="M8955 19348 c-3 -13 -4 -95 -3 -183 3 -143 5 -160 21 -163 15 -3 17
5 17 67 0 38 4 81 10 95 10 28 46 42 79 31 18 -5 21 -16 23 -98 3 -84 5 -92
23 -92 18 0 20 8 23 84 4 130 -12 155 -108 156 -45 0 -45 0 -46 35 -2 79 -4
90 -19 90 -8 0 -17 -10 -20 -22z"/>
<path d="M3223 19338 c-30 -14 -36 -35 -22 -75 9 -28 8 -37 -4 -51 -13 -14
-13 -21 -4 -37 7 -11 14 -54 17 -95 4 -58 8 -75 20 -75 11 0 16 14 18 55 2 30
8 60 14 67 6 7 30 13 53 13 56 0 105 42 105 90 0 38 -26 85 -54 98 -32 16
-118 21 -143 10z m113 -44 c57 -15 48 -99 -12 -110 -58 -11 -69 -4 -71 46 -2
65 19 81 83 64z"/>
<path d="M3537 19322 c-21 -22 -27 -38 -27 -71 0 -49 19 -52 35 -5 15 44 24
54 50 54 29 0 49 -32 41 -64 -3 -12 -32 -62 -65 -111 -83 -124 -82 -126 27
-123 69 2 87 6 87 18 0 11 -13 16 -45 18 -25 2 -49 7 -53 11 -4 4 11 36 34 71
50 75 64 128 49 176 -20 61 -87 74 -133 26z"/>
<path d="M3814 19336 c-9 -7 -16 -24 -15 -39 2 -28 3 -56 2 -97 0 -14 2 -64 5
-112 5 -76 8 -88 24 -88 23 0 30 20 23 63 -7 46 12 81 40 73 28 -7 102 27 116
52 27 50 2 120 -51 144 -40 19 -120 21 -144 4z m138 -53 c10 -9 18 -30 18 -49
0 -29 -5 -36 -37 -49 -51 -22 -70 -13 -75 35 -5 60 6 80 43 80 18 0 41 -7 51
-17z"/>
<path d="M5210 19293 c0 -15 -10 -37 -22 -50 l-22 -23 22 -20 c19 -18 22 -31
22 -106 0 -78 2 -85 23 -95 35 -16 73 3 80 40 12 56 -20 85 -33 30 -3 -13 -14
-25 -23 -27 -15 -3 -17 7 -17 77 0 64 3 81 14 81 26 0 29 21 7 44 -12 12 -21
34 -21 49 0 17 -5 27 -15 27 -10 0 -15 -10 -15 -27z"/>
<path d="M8800 19300 c0 -12 -7 -34 -16 -50 -16 -26 -16 -29 0 -51 12 -17 16
-46 16 -106 0 -82 1 -84 27 -94 40 -15 70 2 78 45 11 59 -15 78 -34 25 -18
-51 -36 -30 -39 46 -3 62 -1 71 20 86 22 17 22 18 5 37 -10 11 -22 32 -26 48
-9 34 -31 44 -31 14z"/>
<path d="M4963 19249 c-36 -13 -47 -44 -27 -75 17 -24 17 -28 0 -59 -16 -30
-17 -35 -2 -62 10 -20 13 -43 9 -66 -7 -46 3 -87 22 -87 11 0 15 12 15 48 0
55 12 72 53 72 16 0 42 9 58 21 27 19 29 25 29 82 0 53 -4 66 -25 89 -23 25
-37 31 -95 42 -9 2 -25 -1 -37 -5z m96 -65 c25 -32 27 -86 5 -109 -10 -10 -29
-15 -48 -13 -30 3 -31 4 -34 62 -2 32 -1 65 2 72 9 23 53 16 75 -12z"/>
<path d="M5829 19244 c-50 -21 -73 -66 -67 -131 6 -62 37 -108 78 -116 51 -11
120 26 120 64 0 29 -22 34 -41 11 -25 -31 -74 -39 -99 -17 -11 10 -20 26 -20
37 0 16 9 18 74 18 46 0 78 4 82 12 13 21 4 92 -14 110 -25 25 -71 30 -113 12z
m86 -64 c0 -22 -5 -25 -44 -28 -55 -4 -71 10 -46 38 14 15 29 20 54 18 31 -3
36 -7 36 -28z"/>
<path d="M6910 19253 c-43 -16 -65 -64 -39 -90 7 -7 5 -21 -8 -47 -17 -36 -17
-39 2 -74 20 -37 21 -37 89 -40 49 -2 72 1 77 10 5 7 9 51 9 98 0 100 -12 124
-68 140 -41 11 -40 11 -62 3z m77 -58 c8 -22 0 -27 -47 -31 -33 -3 -40 0 -40
15 0 25 9 31 47 31 21 0 36 -6 40 -15z m-9 -74 c18 -11 11 -61 -9 -74 -9 -5
-28 -7 -42 -3 -21 5 -27 12 -27 35 0 37 46 62 78 42z"/>
<path d="M7473 19245 c-72 -31 -85 -145 -21 -198 27 -24 39 -27 70 -23 45 7
53 -3 38 -49 -17 -52 -47 -56 -87 -10 -21 24 -38 35 -48 32 -32 -13 -5 -66 47
-93 33 -17 99 -12 116 9 25 32 43 231 26 295 -7 26 -51 52 -86 52 -13 -1 -37
-7 -55 -15z m81 -38 c22 -16 25 -81 7 -115 -16 -29 -76 -31 -91 -3 -25 48 -6
107 40 124 23 8 25 8 44 -6z"/>
<path d="M7745 19238 c-31 -19 -41 -31 -48 -63 -11 -55 -1 -115 26 -149 19
-24 31 -29 66 -29 27 0 52 8 69 20 28 21 32 43 31 163 0 69 -73 98 -144 58z
m103 -55 c4 -26 -31 -39 -73 -29 -50 13 -20 59 35 54 27 -2 36 -8 38 -25z m11
-79 c10 -9 -25 -55 -47 -61 -35 -8 -72 12 -72 40 0 13 2 26 5 29 6 5 107 -2
114 -8z"/>
<path d="M9293 19245 c-81 -35 -97 -152 -31 -222 33 -35 98 -32 140 6 31 28
32 31 17 46 -15 15 -18 15 -42 -9 -41 -41 -107 -29 -107 19 0 24 3 25 64 25
85 0 96 5 96 46 0 48 -19 82 -53 94 -38 13 -45 12 -84 -5z m87 -50 c7 -8 10
-21 7 -29 -8 -20 -97 -18 -105 2 -13 34 73 58 98 27z"/>
<path d="M4253 19228 c-11 -13 -26 -33 -32 -45 -40 -77 37 -198 113 -179 33 8
76 52 76 77 0 26 -22 24 -50 -6 -33 -36 -75 -34 -95 5 -22 42 -19 77 10 105
27 28 42 30 80 13 20 -9 28 -9 38 1 20 20 -27 51 -77 51 -31 0 -48 -6 -63 -22z"/>
<path d="M4490 19125 c0 -115 2 -126 18 -123 14 3 18 18 23 87 6 80 15 100 45
101 18 0 39 30 28 39 -5 5 -33 11 -61 15 l-53 7 0 -126z"/>
<path d="M4648 19238 c-3 -7 13 -49 34 -94 21 -45 38 -92 38 -103 0 -12 -12
-45 -26 -73 -18 -35 -22 -54 -15 -61 13 -13 47 15 57 47 7 21 96 216 114 248
15 26 12 48 -5 48 -10 0 -29 -28 -50 -70 -18 -39 -37 -71 -42 -72 -4 0 -24 30
-43 67 -35 68 -54 88 -62 63z"/>
<path d="M5404 19240 c-29 -11 -33 -20 -44 -82 -11 -68 -4 -101 27 -133 37
-36 114 -36 148 1 47 50 47 161 0 201 -28 24 -89 30 -131 13z m100 -46 c24
-23 29 -56 17 -102 -9 -33 -17 -42 -42 -47 -20 -5 -38 -2 -54 9 -21 14 -25 24
-25 68 0 34 6 58 17 70 20 22 66 24 87 2z"/>
<path d="M6044 19236 c-5 -14 11 -50 41 -92 14 -19 13 -24 -20 -67 -21 -27
-32 -52 -29 -61 10 -25 22 -19 50 24 15 22 32 40 39 40 15 0 55 -42 55 -58 0
-7 9 -12 20 -12 29 0 25 28 -10 74 -35 47 -36 50 -11 85 11 15 23 39 26 54 10
40 -18 35 -45 -8 -12 -19 -28 -35 -35 -35 -7 0 -22 16 -34 35 -21 37 -38 44
-47 21z"/>
<path d="M6319 19219 c-26 -27 -29 -38 -29 -93 1 -64 14 -92 57 -115 34 -17
63 -13 100 15 21 16 33 33 33 50 0 32 -25 31 -46 -2 -14 -20 -24 -24 -53 -22
-33 3 -37 6 -45 45 -17 83 19 127 85 104 24 -8 35 -8 47 1 23 20 -21 48 -75
48 -37 0 -50 -5 -74 -31z"/>
<path d="M7135 19241 c-3 -2 -5 -55 -5 -118 0 -93 3 -115 15 -120 25 -9 29 3
31 83 1 81 15 108 60 117 35 6 44 -12 50 -105 5 -85 15 -111 35 -91 8 8 10 44
7 107 -5 126 -13 136 -114 134 -41 -1 -77 -4 -79 -7z"/>
<path d="M8123 19226 c-24 -21 -28 -32 -31 -93 -4 -67 -3 -72 27 -102 40 -41
104 -44 150 -6 57 49 51 179 -10 211 -44 22 -103 18 -136 -10z m119 -33 c13
-11 18 -30 18 -65 0 -62 -27 -93 -73 -84 -45 9 -52 20 -51 83 0 42 5 59 19 69
25 19 64 18 87 -3z"/>
<path d="M8385 19242 c-3 -3 -5 -56 -5 -119 0 -95 3 -115 16 -120 25 -9 34 15
34 93 0 75 10 94 56 108 35 11 48 -17 52 -115 4 -76 7 -90 21 -87 13 3 16 19
16 107 0 96 -2 104 -23 122 -19 14 -39 18 -93 17 -38 0 -71 -3 -74 -6z"/>
<path d="M3762 18758 c-8 -8 -12 -64 -12 -186 0 -160 1 -173 18 -170 15 3 17
21 20 177 1 96 -1 178 -6 183 -4 4 -13 3 -20 -4z"/>
<path d="M5757 18763 c-9 -14 -12 -348 -4 -361 21 -32 27 12 27 178 0 157 -7
210 -23 183z"/>
<path d="M6324 18762 c-19 -12 -34 -49 -34 -84 0 -19 -5 -39 -12 -46 -9 -9 -9
-17 0 -34 7 -13 14 -60 15 -106 4 -88 8 -98 32 -89 12 5 15 25 15 98 0 82 2
91 20 96 11 3 20 9 20 14 0 5 -9 14 -20 21 -28 18 -29 88 -1 88 20 0 31 -18
31 -51 0 -12 5 -16 15 -13 20 8 19 63 -1 92 -15 22 -57 30 -80 14z"/>
<path d="M3180 18730 c0 -16 6 -20 34 -20 53 0 57 -13 55 -164 -1 -75 1 -140
5 -144 21 -20 33 34 35 160 1 73 5 136 9 140 4 4 25 8 47 10 27 2 40 8 40 18
0 12 -20 16 -112 18 -108 3 -113 2 -113 -18z"/>
<path d="M6152 18708 c-7 -7 -12 -20 -12 -29 0 -9 -10 -23 -22 -32 l-23 -15
23 -24 c19 -21 22 -35 22 -105 0 -86 14 -113 57 -113 28 0 43 21 46 65 3 48
-20 60 -29 16 -7 -33 -33 -43 -36 -13 -4 55 6 138 18 145 18 11 18 36 -1 43
-8 4 -15 16 -15 28 0 32 -13 49 -28 34z"/>
<path d="M3525 18642 c-75 -46 -80 -175 -9 -231 15 -12 37 -21 50 -21 39 0
104 42 104 67 0 23 -30 27 -53 6 -37 -33 -56 -35 -83 -8 -43 43 -33 54 54 57
l77 3 3 34 c9 90 -67 139 -143 93z m90 -62 c0 -23 -4 -25 -44 -25 -24 0 -46 5
-48 11 -7 21 28 45 61 42 26 -2 31 -7 31 -28z"/>
<path d="M3933 18645 c-113 -49 -86 -255 33 -255 34 0 94 45 94 71 0 26 -36
25 -50 -1 -16 -30 -73 -27 -94 5 -9 14 -14 30 -11 35 3 6 37 10 74 10 46 0 72
5 80 14 19 22 2 93 -27 116 -29 23 -55 25 -99 5z m75 -44 c8 -5 12 -17 10 -27
-4 -26 -86 -31 -95 -7 -12 31 51 56 85 34z"/>
<path d="M4193 18640 c-40 -24 -53 -48 -53 -100 0 -82 48 -128 118 -115 23 4
34 2 38 -9 6 -15 -19 -70 -36 -81 -19 -12 -48 6 -69 40 -20 34 -51 40 -51 9 0
-50 52 -94 113 -94 67 0 97 71 94 221 -2 97 -3 102 -30 125 -34 29 -80 31
-124 4z m89 -37 c12 -11 18 -30 18 -59 0 -34 -5 -47 -26 -63 -33 -26 -46 -26
-66 -3 -36 41 -31 104 11 127 34 18 41 18 63 -2z"/>
<path d="M4431 18641 c-12 -21 -15 -198 -5 -225 10 -25 32 -19 38 12 3 15 5
48 5 74 -2 52 9 71 53 94 25 13 27 18 17 30 -8 10 -21 13 -37 9 -16 -4 -31 0
-42 10 -17 16 -19 15 -29 -4z"/>
<path d="M4643 18640 c-23 -14 -33 -27 -33 -45 0 -14 5 -25 10 -25 15 0 12
-25 -7 -58 -14 -25 -15 -33 -3 -61 17 -42 53 -59 120 -56 l55 2 3 94 c4 121
-1 137 -43 155 -46 19 -64 18 -102 -6z m95 -54 c2 -11 -4 -16 -20 -16 -13 0
-33 -3 -45 -6 -19 -5 -23 -2 -23 15 0 40 80 47 88 7z m-5 -71 c11 -10 13 -23
8 -42 -6 -23 -14 -29 -44 -31 -32 -3 -37 0 -43 24 -6 21 -2 31 16 46 27 22 44
23 63 3z"/>
<path d="M4943 18653 l-53 -4 0 -119 c0 -65 4 -121 8 -124 20 -12 30 15 34 88
3 67 7 81 27 97 26 21 81 26 82 7 0 -7 0 -49 0 -93 -1 -86 9 -119 30 -98 7 7
14 46 15 90 3 66 7 81 25 96 43 35 54 20 57 -80 2 -67 7 -95 18 -104 26 -21
34 7 34 117 0 76 -4 105 -14 113 -9 7 -42 12 -78 11 -35 -1 -79 1 -98 3 -19 2
-59 2 -87 0z"/>
<path d="M5479 18634 c-22 -24 -22 -25 -5 -60 16 -35 16 -37 -3 -58 -18 -19
-18 -24 -5 -55 8 -18 14 -62 14 -97 0 -57 2 -64 20 -64 18 0 20 7 20 54 l0 55
43 6 c71 11 97 43 97 119 0 38 -6 52 -32 81 -27 28 -42 36 -80 39 -39 3 -50 0
-69 -20z m115 -43 c22 -25 31 -83 16 -110 -9 -18 -19 -22 -48 -19 l-37 3 -3
59 c-2 32 -1 65 2 72 8 20 50 17 70 -5z"/>
<path d="M5902 18635 c-35 -30 -40 -49 -16 -63 15 -8 15 -12 0 -40 -24 -47
-20 -79 14 -113 28 -29 33 -30 87 -23 32 3 61 8 65 11 4 2 7 47 6 100 -2 113
-16 139 -84 149 -34 5 -45 2 -72 -21z m83 -27 c35 -16 26 -32 -21 -40 -50 -8
-67 7 -35 33 27 22 24 22 56 7z m13 -90 c7 -7 12 -21 12 -33 0 -30 -19 -45
-57 -45 -31 0 -33 2 -33 35 0 28 5 38 23 45 31 12 41 12 55 -2z"/>
<path d="M6523 18645 c-34 -14 -55 -52 -65 -116 -5 -26 0 -46 16 -75 40 -72
115 -82 171 -24 41 43 47 125 14 175 -15 22 -37 39 -59 45 -43 12 -38 12 -77
-5z m86 -52 c33 -27 38 -85 12 -122 -44 -61 -121 -26 -121 56 0 72 58 107 109
66z"/>
<path d="M6754 18638 c-14 -33 -10 -216 5 -231 19 -19 31 10 31 76 0 70 9 90
50 107 45 19 36 46 -13 42 -26 -2 -39 2 -43 13 -9 21 -19 19 -30 -7z"/>
<path d="M6983 18653 l-53 -4 0 -120 c0 -112 1 -119 20 -119 18 0 20 7 20 65
0 77 19 122 55 131 50 12 55 3 55 -101 0 -78 3 -97 16 -102 25 -9 34 16 34 99
0 72 2 79 26 95 45 29 57 10 55 -88 -2 -66 1 -88 13 -98 29 -24 36 -2 36 108
0 82 -4 111 -14 120 -9 7 -42 12 -78 11 -35 -1 -79 1 -98 3 -19 2 -59 2 -87 0z"/>
<path d="M7377 18434 c-14 -15 -6 -34 14 -34 14 0 19 5 17 17 -3 18 -20 27
-31 17z"/>
<path d="M8900 16209 c0 -5 5 -7 10 -4 6 3 10 8 10 11 0 2 -4 4 -10 4 -5 0
-10 -5 -10 -11z"/>
<path d="M9526 16205 c-4 -11 -13 -30 -19 -43 -8 -17 -8 -28 0 -41 6 -10 11
-48 11 -83 0 -36 3 -75 7 -87 10 -32 27 -26 18 7 -4 15 -7 56 -6 91 0 50 5 68
19 78 16 12 16 14 2 26 -9 6 -18 26 -20 42 -4 26 -5 27 -12 10z"/>
<path d="M8895 16157 c-11 -43 15 -65 34 -28 8 14 6 23 -9 36 -18 17 -19 16
-25 -8z"/>
<path d="M8672 16144 c-12 -8 -22 -23 -22 -34 0 -18 42 -69 71 -86 24 -13 31
-47 16 -68 -19 -26 -64 -14 -77 19 -11 28 -30 34 -30 10 0 -25 46 -65 75 -65
14 0 34 9 45 20 32 32 25 61 -25 100 -35 28 -44 41 -45 66 0 37 20 49 47 29
23 -18 33 -19 33 -1 0 28 -53 34 -88 10z"/>
<path d="M9098 16142 c-28 -17 -36 -32 -18 -32 6 0 13 7 16 15 9 23 77 19 100
-6 28 -31 8 -55 -44 -51 -22 2 -43 -1 -47 -7 -4 -7 9 -11 38 -11 35 0 48 -5
60 -22 14 -21 16 -21 22 -5 12 29 -5 88 -32 113 -30 28 -58 30 -95 6z"/>
<path d="M9340 16039 c0 -65 4 -108 9 -104 5 3 9 35 8 72 0 62 1 68 31 94 32
29 32 29 8 29 -14 0 -28 5 -31 10 -18 29 -25 0 -25 -101z"/>
<path d="M8902 16030 l1 -65 7 50 c4 28 3 57 -1 65 -5 9 -8 -11 -7 -50z"/>
<path d="M9073 16024 c-15 -27 -6 -64 21 -86 23 -19 61 -24 71 -8 4 6 -6 10
-23 10 -37 0 -50 15 -54 65 -3 37 -4 38 -15 19z"/>
<path d="M9197 15970 c-12 -19 -14 -31 -7 -35 19 -12 40 4 40 29 0 36 -14 39
-33 6z"/>
<path d="M8980 15980 c0 -5 5 -10 10 -10 6 0 10 5 10 10 0 6 -4 10 -10 10 -5
0 -10 -4 -10 -10z"/>
<path d="M9581 15946 c-16 -19 -11 -29 8 -17 7 5 12 14 9 21 -3 9 -8 7 -17 -4z"/>
<path d="M8912 15938 c3 -7 13 -15 24 -17 16 -3 17 -1 5 13 -16 19 -34 21 -29
4z"/>
<path d="M8965 15940 c-3 -5 -1 -10 4 -10 6 0 11 5 11 10 0 6 -2 10 -4 10 -3
0 -8 -4 -11 -10z"/>
<path d="M2697 14984 c-4 -4 -7 -88 -7 -186 0 -172 1 -178 20 -178 20 0 20 5
18 182 -3 170 -9 204 -31 182z"/>
<path d="M4207 14976 c-3 -8 -6 -89 -6 -180 -1 -122 2 -167 11 -173 20 -12
110 -13 141 -1 52 20 72 95 43 161 -25 57 -41 70 -92 76 l-49 6 -5 60 c-4 45
-9 61 -21 63 -9 2 -19 -4 -22 -12z m140 -195 c27 -40 29 -68 7 -99 -17 -25
-71 -31 -92 -10 -16 16 -16 120 0 136 22 22 61 9 85 -27z"/>
<path d="M5057 14984 c-4 -4 -7 -88 -7 -186 0 -139 3 -179 13 -176 7 3 14 28
17 59 4 45 8 54 25 54 13 0 29 -17 50 -54 16 -30 36 -56 42 -59 28 -9 23 30
-11 87 -20 32 -34 65 -31 72 3 8 19 22 36 32 17 9 29 23 27 30 -8 22 -38 19
-69 -8 -52 -43 -64 -32 -67 60 -3 77 -10 103 -25 89z"/>
<path d="M6275 14979 c-6 -18 -13 -331 -7 -347 5 -17 29 -15 36 3 3 8 5 87 5
174 0 127 -3 162 -14 171 -12 10 -16 9 -20 -1z"/>
<path d="M6996 14974 c-3 -9 -6 -92 -6 -186 0 -156 1 -169 18 -166 14 3 18 18
22 85 6 88 11 98 50 107 45 11 55 -5 56 -98 2 -94 8 -113 30 -95 10 8 14 36
14 103 0 120 -10 136 -85 136 -49 0 -55 2 -61 24 -3 13 -5 32 -4 42 4 36 0 52
-14 57 -8 3 -17 -1 -20 -9z"/>
<path d="M8785 14978 c-3 -8 -4 -92 -3 -188 3 -148 5 -175 18 -175 13 0 15 27
15 184 0 139 -3 185 -12 188 -7 3 -15 -1 -18 -9z"/>
<path d="M9067 14983 c-4 -3 -7 -30 -7 -60 0 -57 0 -57 -60 -67 -56 -9 -100
-53 -107 -104 -8 -60 19 -118 61 -131 35 -11 130 -10 142 2 11 11 14 317 3
344 -9 23 -20 29 -32 16z m-9 -236 c4 -70 -7 -87 -58 -87 -49 0 -62 17 -58 76
2 40 7 51 28 61 14 7 39 12 55 11 29 -3 30 -5 33 -61z"/>
<path d="M9326 14982 c-8 -13 -10 -348 -2 -360 4 -6 13 -9 21 -5 12 4 15 36
15 183 0 147 -3 179 -15 183 -8 4 -16 3 -19 -1z"/>
<path d="M9440 14970 c0 -13 7 -20 18 -20 24 0 32 8 25 26 -8 22 -43 17 -43
-6z"/>
<path d="M9575 14978 c-3 -7 -4 -90 -3 -183 3 -143 5 -170 18 -170 11 0 16 15
20 59 3 33 10 61 15 63 6 2 28 -26 49 -62 21 -36 44 -65 52 -65 19 0 18 44 -1
60 -8 7 -15 19 -15 28 0 9 -10 27 -22 40 l-23 24 38 31 c36 31 45 51 28 61 -4
3 -30 -10 -56 -29 -27 -19 -52 -32 -57 -29 -4 3 -8 40 -8 83 0 57 -4 82 -15
91 -12 10 -16 9 -20 -2z"/>
<path d="M5473 14963 c-30 -6 -29 -21 2 -35 25 -11 25 -12 25 -139 0 -115 -2
-129 -19 -138 -21 -12 -51 13 -51 42 0 25 -17 29 -23 5 -3 -11 0 -36 8 -55 13
-30 18 -33 54 -33 60 0 71 28 71 184 l0 124 30 11 c41 14 38 27 -7 35 -40 6
-54 6 -90 -1z"/>
<path d="M1985 14950 c-4 -6 2 -30 13 -53 17 -38 37 -96 63 -183 5 -17 9 -44
9 -62 0 -17 4 -33 9 -37 12 -7 41 22 41 41 0 25 30 74 45 74 15 0 22 -21 27
-75 2 -22 8 -30 22 -30 16 0 23 14 37 70 9 39 27 104 39 145 33 114 34 120 17
120 -22 0 -42 -37 -58 -109 -15 -70 -36 -102 -50 -79 -5 7 -9 23 -9 34 0 12
-7 27 -15 34 -21 17 -43 -2 -51 -46 -12 -65 -31 -52 -60 41 -19 64 -51 125
-64 125 -5 0 -12 -5 -15 -10z"/>
<path d="M7557 14933 c-4 -3 -7 -15 -7 -27 0 -11 -10 -30 -22 -43 l-21 -23 21
-22 c17 -20 21 -35 20 -100 -1 -90 10 -111 56 -106 36 4 61 45 52 84 -9 32
-19 30 -33 -7 -19 -51 -38 -31 -41 44 -2 57 0 69 18 84 25 22 25 28 0 53 -11
11 -20 31 -20 45 0 24 -10 32 -23 18z"/>
<path d="M10224 14913 c-3 -10 -10 -25 -15 -33 -20 -32 -21 -41 -5 -59 12 -13
16 -37 16 -89 0 -94 11 -122 48 -122 39 0 64 30 60 71 -4 41 -25 50 -30 12 -2
-16 -10 -29 -19 -31 -13 -2 -18 7 -21 35 -7 57 2 123 18 123 24 0 28 23 7 40
-12 9 -23 27 -25 40 -4 29 -26 38 -34 13z"/>
<path d="M2456 14849 c-32 -25 -56 -69 -56 -103 0 -40 35 -110 63 -125 51 -27
147 12 147 61 0 24 -32 23 -55 -2 -35 -39 -112 -19 -103 27 3 15 16 19 78 23
l75 5 3 38 c2 26 -3 46 -18 67 -18 25 -28 30 -64 30 -29 0 -52 -7 -70 -21z
m95 -29 c10 -6 19 -20 19 -30 0 -18 -7 -20 -55 -20 -61 0 -73 16 -33 44 26 19
42 20 69 6z"/>
<path d="M2857 14859 c-23 -13 -57 -81 -57 -114 0 -34 35 -102 59 -115 37 -19
85 -12 114 18 26 27 37 72 18 72 -5 0 -23 -13 -39 -30 -35 -35 -51 -37 -82
-12 -18 14 -23 30 -24 65 -1 60 20 78 89 75 40 -3 50 0 53 14 6 32 -89 51
-131 27z"/>
<path d="M3111 14842 c-59 -58 -45 -187 23 -220 41 -20 100 -7 131 30 21 25
25 40 25 93 0 56 -3 66 -29 94 -24 26 -36 31 -76 31 -38 0 -52 -5 -74 -28z
m123 -32 c5 -5 11 -31 14 -58 6 -62 -20 -95 -71 -90 -47 5 -72 52 -57 108 7
26 19 44 33 50 23 10 66 4 81 -10z"/>
<path d="M3374 14857 c-2 -7 -3 -62 -2 -123 2 -89 6 -109 18 -109 11 0 16 17
21 70 7 87 20 121 52 129 50 12 56 2 59 -102 3 -89 5 -97 23 -97 18 0 20 8 25
87 3 48 10 92 16 98 6 7 24 10 40 8 l29 -3 1 -88 c1 -86 13 -122 33 -101 17
17 23 186 9 214 -13 25 -15 25 -166 28 -119 1 -154 -1 -158 -11z"/>
<path d="M3834 14836 c-30 -30 -34 -40 -34 -86 0 -97 44 -148 116 -137 41 7
84 41 84 68 0 31 -22 34 -45 6 -28 -36 -78 -37 -101 -2 -8 13 -13 29 -9 35 3
5 37 10 74 10 81 0 95 11 85 65 -9 52 -38 75 -92 75 -37 0 -50 -6 -78 -34z
m116 -21 c22 -27 4 -45 -45 -45 -38 0 -45 3 -45 20 0 36 66 54 90 25z"/>
<path d="M4520 14850 c-22 -22 -26 -50 -9 -67 7 -7 5 -22 -6 -51 -15 -37 -15
-43 -1 -71 22 -41 41 -50 111 -47 l60 3 3 102 c3 96 2 102 -22 126 -33 33
-106 35 -136 5z m94 -26 c9 -3 16 -15 16 -25 0 -16 -8 -19 -51 -19 -51 0 -53
3 -26 38 10 13 36 16 61 6z m10 -93 c13 -14 14 -24 6 -45 -9 -24 -15 -27 -47
-24 -33 3 -38 7 -41 30 -2 18 4 31 20 42 29 21 41 20 62 -3z"/>
<path d="M4814 14852 c-32 -26 -44 -55 -44 -110 0 -85 62 -146 124 -122 23 8
76 65 76 80 0 23 -24 19 -56 -9 -19 -17 -39 -31 -45 -31 -48 0 -76 87 -44 136
16 25 21 26 71 20 46 -5 54 -4 54 10 0 42 -95 60 -136 26z"/>
<path d="M5752 14860 c-30 -13 -52 -67 -52 -130 0 -41 5 -55 29 -82 26 -29 35
-33 80 -32 56 1 78 14 98 61 25 62 14 133 -28 172 -24 23 -85 28 -127 11z m94
-45 c44 -30 36 -139 -11 -151 -40 -10 -71 3 -85 36 -17 41 -2 101 30 117 32
16 41 16 66 -2z"/>
<path d="M6022 14845 c-78 -66 -35 -235 60 -235 62 0 120 62 89 93 -10 9 -17
6 -33 -15 -27 -38 -80 -39 -104 -2 -10 15 -13 29 -8 34 5 5 43 10 84 12 l75 3
-2 50 c-4 63 -27 85 -88 85 -32 0 -52 -7 -73 -25z m106 -24 c8 -5 12 -17 10
-27 -2 -15 -14 -20 -51 -22 -53 -3 -64 15 -25 42 25 18 46 20 66 7z"/>
<path d="M6866 14863 c-14 -14 -36 -75 -36 -99 0 -31 -20 -41 -36 -18 -37 53
-54 52 -77 -4 l-15 -37 -11 25 c-6 14 -15 44 -21 66 -5 23 -17 48 -26 55 -26
21 -33 -7 -17 -65 28 -100 45 -151 56 -164 16 -20 44 12 52 59 4 21 10 39 13
39 4 0 18 -21 32 -48 17 -32 31 -47 45 -47 17 0 22 12 36 80 9 44 22 92 29
107 18 38 0 75 -24 51z"/>
<path d="M7301 14844 c-24 -31 -25 -37 -9 -64 10 -16 10 -24 0 -40 -17 -28
-14 -71 7 -100 16 -20 28 -24 79 -26 33 0 66 2 72 6 8 5 11 41 11 105 -1 87
-3 101 -23 122 -32 35 -109 33 -137 -3z m109 -29 c19 -22 3 -35 -46 -35 -32 0
-44 4 -44 15 0 31 68 47 90 20z m3 -86 c5 -9 7 -28 3 -42 -5 -23 -12 -27 -45
-27 -38 0 -51 11 -51 45 0 16 48 46 69 42 8 -1 18 -9 24 -18z"/>
<path d="M7836 14854 c-6 -15 4 -57 42 -181 23 -77 62 -72 76 10 4 20 10 37
14 37 4 0 18 -21 32 -48 17 -31 31 -47 45 -47 16 0 22 13 37 85 31 146 33 163
17 158 -18 -6 -44 -56 -53 -101 -8 -43 -19 -47 -42 -12 -22 34 -49 32 -64 -5
-7 -16 -15 -30 -19 -30 -16 0 -31 26 -31 52 0 29 -29 98 -41 98 -4 0 -10 -7
-13 -16z"/>
<path d="M8236 14845 c-67 -72 -42 -214 40 -229 55 -11 93 3 120 45 42 68 25
172 -34 198 -43 20 -101 13 -126 -14z m127 -47 c20 -23 22 -69 6 -101 -16 -30
-28 -37 -66 -37 -41 0 -63 30 -63 86 0 76 76 108 123 52z"/>
<path d="M8502 14858 c-8 -8 -12 -47 -12 -105 0 -87 2 -96 26 -120 24 -24 29
-25 92 -18 37 4 71 10 75 14 4 4 6 57 5 117 -2 89 -6 109 -18 109 -12 0 -17
-19 -22 -83 -8 -98 -18 -114 -67 -110 l-36 3 -3 92 c-3 94 -16 125 -40 101z"/>
<path d="M9452 14858 c-18 -18 -16 -222 1 -237 8 -6 17 -8 20 -4 10 9 8 241
-1 247 -5 3 -14 0 -20 -6z"/>
<path d="M9844 14836 c-31 -31 -34 -39 -34 -94 0 -55 3 -64 34 -96 26 -28 41
-36 69 -36 60 0 124 72 85 96 -6 4 -19 -4 -30 -19 -27 -37 -81 -38 -104 -2 -8
13 -13 29 -9 35 3 5 40 10 81 10 84 0 91 6 80 66 -10 52 -37 74 -92 74 -39 0
-51 -5 -80 -34z m116 -21 c22 -27 4 -45 -44 -45 -54 0 -68 16 -36 42 27 22 63
23 80 3z"/>
<path d="M10417 14859 c-44 -26 -63 -139 -32 -199 32 -62 148 -62 180 0 9 17
15 56 15 94 0 59 -2 66 -31 90 -33 28 -97 35 -132 15z m107 -49 c4 -5 11 -29
13 -54 9 -77 -37 -118 -97 -86 -39 21 -33 143 8 153 21 5 64 -3 76 -13z"/>
<path d="M6370 14642 c0 -11 7 -34 17 -52 15 -31 17 -32 30 -15 19 27 16 63
-6 75 -29 15 -41 12 -41 -8z"/>
<path d="M2135 14361 c-3 -11 -5 -36 -3 -56 2 -38 -15 -58 -43 -50 -25 8 -97
-33 -114 -65 -20 -40 -19 -89 5 -127 27 -44 51 -54 123 -51 l62 3 3 183 c2
154 0 182 -12 182 -8 0 -17 -9 -21 -19z m-7 -213 c4 -74 -9 -98 -52 -98 -39 0
-55 16 -66 67 -8 34 -6 41 18 66 21 22 34 27 62 25 l35 -3 3 -57z"/>
<path d="M2288 14242 c-30 -27 -31 -33 -32 -101 -1 -70 0 -74 32 -102 52 -47
125 -36 163 23 16 27 19 44 15 93 -4 51 -9 64 -35 87 -43 39 -99 38 -143 0z
m117 -37 c56 -55 11 -167 -60 -149 -55 14 -70 109 -24 155 26 26 55 24 84 -6z"/>
<path d="M7815 13068 c-3 -13 -4 -95 -3 -183 3 -152 4 -160 23 -160 19 0 20 7
20 180 0 162 -2 180 -17 183 -11 2 -19 -5 -23 -20z"/>
<path d="M7952 13078 c-19 -19 -17 -342 2 -357 8 -7 17 -8 20 -3 4 7 9 262 6
355 0 20 -11 22 -28 5z"/>
<path d="M7298 13053 c-54 -34 -48 -105 13 -149 22 -16 50 -37 63 -46 28 -21
36 -46 25 -76 -7 -18 -16 -22 -52 -22 -52 0 -83 26 -74 62 8 30 -6 53 -27 45
-27 -10 -21 -88 8 -120 66 -71 196 -33 196 58 0 37 -36 87 -79 110 -36 19 -71
53 -71 70 0 8 12 22 26 32 27 17 27 17 55 -16 15 -18 32 -30 38 -27 19 12 12
46 -14 71 -28 29 -68 32 -107 8z"/>
<path d="M8274 13054 c-46 -24 -64 -70 -64 -165 0 -124 35 -179 114 -179 54 0
117 66 95 101 -7 11 -14 7 -38 -18 -52 -57 -113 -40 -127 33 -9 48 3 143 22
171 16 25 61 31 96 12 32 -17 48 6 22 31 -27 28 -81 34 -120 14z"/>
<path d="M9227 13033 c-4 -3 -7 -16 -7 -27 0 -12 -7 -32 -16 -44 -15 -21 -15
-25 0 -41 12 -13 16 -38 16 -99 0 -60 4 -85 16 -96 16 -17 51 -21 70 -8 16 11
34 48 34 71 0 30 -38 28 -42 -1 -2 -13 -10 -23 -18 -23 -12 0 -16 15 -18 67
-2 57 0 70 18 88 25 25 25 31 0 53 -11 9 -20 28 -20 42 0 24 -18 34 -33 18z"/>
<path d="M7569 12942 c-77 -68 -32 -232 63 -232 61 0 120 62 90 92 -8 8 -17 4
-32 -15 -15 -19 -31 -27 -54 -27 -38 0 -56 15 -56 48 0 23 2 24 70 21 55 -3
73 0 80 11 15 24 11 63 -10 98 -18 29 -24 32 -70 32 -40 0 -56 -5 -81 -28z
m109 -24 c7 -7 12 -20 12 -30 0 -15 -9 -18 -50 -18 -43 0 -50 3 -50 20 0 34
62 54 88 28z"/>
<path d="M8512 12958 c-13 -13 -17 -193 -6 -222 3 -9 12 -16 20 -16 10 0 14
15 14 60 0 69 19 115 52 126 13 4 26 12 30 18 11 17 -12 36 -37 30 -13 -3 -32
-1 -43 5 -13 7 -22 7 -30 -1z"/>
<path d="M8955 12950 c-16 -18 -16 -22 -2 -51 14 -29 14 -35 -1 -65 -12 -27
-13 -38 -4 -59 7 -14 12 -52 12 -85 0 -34 5 -62 12 -66 17 -11 38 25 38 67 0
40 11 49 60 49 31 0 66 35 76 77 9 33 -22 108 -53 133 -35 27 -113 28 -138 0z
m100 -30 c33 -13 59 -69 46 -103 -10 -26 -29 -37 -67 -37 -23 0 -24 3 -24 68
0 59 4 82 16 82 1 0 14 -4 29 -10z"/>
<path d="M9414 12956 c-25 -18 -58 -117 -50 -149 3 -12 18 -37 34 -56 26 -32
34 -35 81 -35 46 0 55 4 76 30 46 56 46 146 -1 196 -23 23 -36 28 -74 28 -25
0 -55 -7 -66 -14z m113 -52 c22 -22 25 -32 20 -72 -6 -51 -25 -72 -69 -72 -75
0 -96 131 -25 160 35 14 46 12 74 -16z"/>
<path d="M8666 12951 c-3 -5 10 -43 29 -84 40 -87 44 -137 15 -185 -29 -48
-26 -86 6 -64 21 14 154 293 154 323 0 41 -31 17 -60 -46 -16 -36 -35 -65 -40
-65 -6 0 -25 29 -41 65 -28 60 -49 79 -63 56z"/>
<path d="M2704 11785 c-7 -18 3 -35 21 -35 18 0 26 25 12 39 -15 15 -27 14
-33 -4z"/>
<path d="M4064 11785 c-7 -18 3 -35 22 -35 20 0 30 30 13 41 -20 12 -29 11
-35 -6z"/>
<path d="M2427 11784 c-12 -12 -8 -352 4 -359 18 -12 24 5 30 91 3 46 7 86 10
89 3 2 19 7 35 10 49 9 58 -5 61 -101 2 -48 5 -89 8 -92 2 -2 11 -2 20 1 12 5
15 25 15 100 0 118 -8 130 -87 137 l-58 5 -5 59 c-5 55 -16 76 -33 60z"/>
<path d="M3106 11782 c-7 -12 -10 -351 -3 -358 3 -4 13 -4 22 -1 12 5 15 23
15 86 0 71 2 82 22 95 33 23 67 20 77 -7 5 -12 8 -55 8 -94 -1 -77 3 -89 28
-80 12 5 15 25 15 105 0 118 -7 129 -90 134 l-55 3 -1 46 c0 25 -4 53 -7 63
-7 17 -23 21 -31 8z"/>
<path d="M4765 11768 c-2 -13 -6 -41 -7 -63 -3 -39 -4 -40 -49 -46 -89 -13
-125 -56 -117 -139 4 -39 12 -59 32 -78 24 -24 33 -27 92 -25 35 1 69 5 74 8
11 7 14 323 4 349 -9 23 -23 20 -29 -6z m-11 -174 c12 -31 6 -92 -11 -112 -41
-47 -99 -26 -109 38 -8 51 24 90 76 90 25 0 40 -5 44 -16z"/>
<path d="M8585 11780 c-3 -5 -7 -86 -8 -179 -1 -124 1 -173 10 -182 7 -7 16
-9 20 -5 10 9 17 319 9 352 -7 25 -20 31 -31 14z"/>
<path d="M8705 11768 c-3 -13 -4 -95 -3 -183 3 -134 5 -160 18 -160 13 0 15
27 15 179 0 132 -3 180 -12 183 -7 3 -15 -6 -18 -19z"/>
<path d="M8860 11763 c-33 -23 -40 -33 -40 -65 0 -21 8 -31 30 -43 17 -9 35
-13 40 -10 17 10 11 32 -10 38 -30 8 -26 45 5 53 32 8 75 -19 75 -47 0 -12
-20 -44 -45 -71 -43 -48 -56 -80 -36 -93 11 -6 41 21 41 37 0 6 16 28 36 50
30 34 35 45 32 81 -2 34 -9 45 -37 64 -41 27 -58 29 -91 6z"/>
<path d="M1983 11759 c-7 -7 -9 -17 -4 -23 24 -31 86 -221 93 -286 2 -14 10
-26 19 -28 13 -2 21 12 34 53 28 86 51 86 63 -1 5 -35 12 -50 25 -52 18 -4 19
-4 37 78 6 30 25 97 41 148 33 106 34 112 15 112 -25 0 -46 -44 -63 -135 -7
-40 -33 -70 -45 -53 -4 7 -8 23 -8 34 0 12 -7 27 -15 34 -21 17 -43 -2 -51
-46 -13 -68 -31 -52 -62 51 -25 82 -60 133 -79 114z"/>
<path d="M7187 11734 c-4 -4 -7 -20 -7 -34 0 -15 -7 -33 -15 -40 -14 -12 -14
-15 0 -36 10 -16 15 -48 15 -103 0 -89 12 -111 58 -111 21 0 32 8 46 34 10 18
16 42 14 52 -5 28 -31 23 -38 -6 -3 -14 -12 -25 -20 -25 -22 0 -27 137 -5 155
17 14 20 37 4 42 -6 2 -14 19 -18 38 -6 33 -21 47 -34 34z"/>
<path d="M7470 11725 c-7 -8 -9 -18 -6 -23 3 -5 -1 -20 -8 -34 -8 -16 -10 -31
-5 -39 5 -8 9 -47 9 -87 0 -92 18 -132 59 -132 33 0 61 34 61 75 0 33 -27 33
-40 0 -18 -47 -30 -27 -30 52 0 54 4 81 15 93 14 15 14 18 0 30 -8 7 -15 25
-15 40 0 32 -23 46 -40 25z"/>
<path d="M2866 11649 c-26 -22 -37 -41 -41 -74 -19 -123 86 -202 164 -123 33
34 36 44 22 67 -8 12 -15 8 -36 -17 -33 -39 -78 -44 -96 -10 -18 33 -14 95 6
118 19 21 69 27 80 10 10 -16 45 -12 45 5 0 19 -57 55 -87 55 -12 0 -38 -14
-57 -31z"/>
<path d="M3551 11655 c-60 -51 -65 -153 -11 -207 40 -40 86 -38 128 5 18 18
32 41 32 50 0 26 -35 21 -54 -8 -19 -29 -66 -34 -86 -10 -19 23 -16 102 5 125
19 21 69 27 80 10 10 -16 45 -12 45 5 0 19 -57 55 -87 55 -12 0 -35 -11 -52
-25z"/>
<path d="M3833 11665 c-40 -17 -64 -63 -65 -125 -1 -39 4 -56 26 -84 25 -33
31 -36 81 -36 59 0 79 13 101 67 30 71 10 144 -47 173 -45 23 -53 24 -96 5z
m86 -51 c38 -32 43 -87 10 -128 -44 -55 -119 -16 -119 63 1 39 13 61 45 79 28
16 29 15 64 -14z"/>
<path d="M4934 11661 c-40 -24 -42 -28 -54 -91 -17 -92 30 -156 114 -153 109
5 143 176 47 240 -41 28 -66 29 -107 4z m90 -42 c22 -17 26 -28 26 -70 0 -55
-24 -89 -63 -89 -36 0 -58 22 -64 65 -6 50 10 93 39 105 32 12 32 12 62 -11z"/>
<path d="M5587 11648 c-32 -27 -40 -41 -44 -80 -7 -60 0 -88 31 -121 21 -23
34 -27 76 -27 40 0 56 5 75 24 29 29 41 85 29 144 -10 52 -40 79 -94 88 -30 5
-41 0 -73 -28z m94 -18 c18 0 41 -72 34 -106 -7 -42 -29 -64 -62 -64 -44 0
-63 26 -63 86 0 45 4 56 27 74 15 11 33 18 41 15 7 -3 18 -5 23 -5z"/>
<path d="M6645 11656 c-30 -25 -30 -25 -13 -55 14 -25 14 -32 2 -48 -20 -26
-17 -87 5 -114 17 -21 27 -24 81 -22 33 2 65 5 71 8 5 4 9 49 9 102 0 93 -1
95 -31 124 -39 37 -83 38 -124 5z m93 -28 c25 -25 13 -38 -33 -38 -48 0 -55 9
-29 34 18 19 45 21 62 4z m6 -84 c38 -14 4 -84 -40 -84 -45 0 -55 74 -10 83
11 2 24 5 28 6 3 0 13 -2 22 -5z"/>
<path d="M7672 11660 c-78 -48 -81 -191 -5 -231 30 -16 99 -15 120 2 22 19 53
85 53 114 0 64 -60 135 -115 135 -11 0 -35 -9 -53 -20z m93 -45 c19 -18 25
-35 25 -66 0 -80 -75 -119 -119 -63 -30 39 -27 85 8 123 35 37 54 39 86 6z"/>
<path d="M8072 11657 c-36 -38 -29 -71 23 -109 47 -35 64 -63 47 -80 -18 -18
-47 -4 -61 30 -17 39 -35 37 -39 -4 -3 -34 25 -70 63 -80 34 -8 77 16 86 49
11 41 -4 70 -50 103 -60 43 -50 91 11 56 23 -13 30 -14 40 -3 11 10 8 17 -15
37 -36 30 -77 31 -105 1z"/>
<path d="M8330 11642 c-36 -35 -40 -44 -40 -86 0 -84 43 -146 103 -146 31 0
91 40 95 64 7 33 -13 38 -44 11 -48 -41 -104 -28 -104 25 l0 30 74 0 c41 0 77
4 80 8 2 4 2 27 -1 51 -5 34 -12 47 -37 62 -48 29 -80 24 -126 -19z m101 -12
c11 -6 19 -21 19 -35 0 -23 -4 -25 -49 -25 -60 0 -70 12 -37 45 28 28 38 30
67 15z"/>
<path d="M2706 11654 c-3 -9 -6 -62 -6 -119 0 -107 10 -135 37 -100 16 23 18
187 3 216 -13 23 -26 24 -34 3z"/>
<path d="M4066 11654 c-3 -9 -6 -63 -6 -120 0 -87 3 -106 16 -111 9 -3 20 0
24 7 12 19 10 213 -2 228 -14 16 -25 15 -32 -4z"/>
<path d="M4194 11655 c-3 -6 -3 -60 -2 -121 2 -89 6 -109 18 -109 12 0 16 18
20 78 4 71 8 81 33 103 57 49 79 24 81 -91 2 -89 6 -101 31 -92 12 5 15 24 15
91 0 97 -11 130 -49 145 -33 13 -142 10 -147 -4z"/>
<path d="M5284 11655 c-4 -9 2 -35 13 -58 11 -23 28 -57 37 -76 22 -47 20 -80
-9 -135 -14 -26 -23 -52 -20 -57 17 -27 39 -1 86 99 28 59 62 131 76 160 24
51 25 82 4 82 -6 0 -27 -34 -46 -76 -30 -64 -38 -74 -50 -64 -8 7 -15 19 -15
26 0 18 -38 90 -56 104 -11 10 -15 9 -20 -5z"/>
<path d="M5846 11654 c-3 -8 -6 -58 -6 -109 0 -88 1 -95 25 -113 21 -17 38
-20 91 -17 43 1 69 7 75 16 11 18 11 210 1 227 -5 7 -16 10 -25 6 -14 -5 -17
-21 -17 -89 0 -93 -11 -115 -59 -115 -43 0 -51 16 -51 106 0 57 -4 85 -14 93
-11 9 -15 8 -20 -5z"/>
<path d="M6491 11648 c-5 -13 -16 -41 -24 -63 -18 -48 -34 -55 -47 -21 -13 34
-45 34 -62 -1 -22 -45 -35 -37 -53 32 -14 52 -22 65 -38 65 -22 0 -22 -6 14
-145 22 -83 26 -90 49 -90 20 0 26 7 33 37 12 52 33 55 57 8 11 -21 25 -42 31
-46 19 -11 36 22 44 84 4 31 14 70 22 85 16 32 14 68 -4 75 -7 2 -17 -7 -22
-20z"/>
<path d="M6899 11643 c0 -13 -1 -63 -1 -113 0 -115 0 -110 16 -110 17 0 26 37
24 102 -1 55 21 95 58 104 39 10 49 -9 53 -104 3 -84 13 -118 32 -106 5 3 9
49 9 103 0 134 -9 146 -114 146 -73 1 -76 0 -77 -22z"/>
<path d="M8874 11445 c-7 -18 3 -35 21 -35 15 0 28 27 19 41 -8 14 -34 11 -40
-6z"/>
<path d="M6907 7903 c-29 -8 -14 -28 24 -31 19 -2 38 -7 42 -12 5 -4 9 -70 10
-146 2 -116 4 -139 17 -139 13 0 15 23 17 139 1 76 5 142 10 147 4 4 26 9 47
11 22 2 41 9 44 16 3 9 -17 12 -75 12 -43 0 -87 2 -98 4 -11 2 -28 2 -38 -1z"/>
<path d="M7295 7900 c-99 -39 -116 -246 -26 -321 28 -24 42 -29 66 -24 32 6
85 51 85 72 0 18 -27 16 -38 -2 -12 -22 -62 -34 -89 -22 -63 28 -53 245 11
261 13 3 37 1 54 -3 21 -6 34 -6 38 1 16 25 -61 54 -101 38z"/>
<path d="M6622 7877 c-23 -25 -29 -52 -12 -62 13 -8 13 -151 0 -175 -7 -14 -5
-27 8 -49 15 -27 22 -31 62 -31 25 0 61 5 81 10 62 17 75 88 28 148 -14 19
-17 34 -13 63 9 53 -10 95 -48 108 -48 17 -83 13 -106 -12z m112 -33 c16 -40
6 -73 -25 -90 -26 -13 -33 -14 -40 -2 -10 15 -12 92 -2 101 13 13 61 7 67 -9z
m28 -151 c10 -9 18 -30 18 -48 0 -27 -5 -35 -31 -45 -63 -27 -103 14 -85 86 5
20 13 24 43 24 20 0 45 -7 55 -17z"/>
<path d="M6886 6251 c-7 -11 28 -34 37 -25 3 3 15 3 26 -1 20 -6 21 -13 21
-156 0 -126 2 -149 15 -149 13 0 15 23 15 144 0 160 1 163 65 168 22 2 40 8
40 13 0 13 -211 19 -219 6z"/>
<path d="M7250 6233 c-60 -54 -71 -188 -23 -280 29 -54 104 -60 152 -12 17 17
31 34 31 39 0 23 -24 19 -56 -10 -21 -18 -43 -29 -51 -26 -8 3 -19 6 -24 6
-13 0 -49 86 -49 117 0 38 29 130 45 143 15 12 65 10 98 -5 13 -5 17 -2 17 13
0 13 -10 24 -31 31 -50 17 -76 13 -109 -16z"/>
<path d="M6607 6244 c-4 -4 -7 -78 -7 -165 0 -134 2 -158 16 -163 24 -9 117
-7 133 3 27 17 0 32 -53 30 l-51 -3 -5 149 c-5 138 -12 170 -33 149z"/>
<path d="M6820 4613 c-68 -28 -100 -80 -100 -163 0 -143 100 -230 197 -170 40
24 50 43 61 115 23 143 -61 259 -158 218z m106 -74 c35 -56 34 -149 -1 -202
-23 -33 -30 -37 -70 -37 -41 0 -47 3 -70 41 -42 65 -36 179 11 221 43 38 97
28 130 -23z"/>
<path d="M7151 4602 c-53 -26 -71 -59 -78 -139 -5 -61 -3 -78 17 -118 27 -56
70 -85 126 -85 69 0 87 26 99 143 l5 58 -52 -3 c-39 -2 -53 -7 -53 -18 0 -8 9
-16 20 -18 32 -6 45 -22 45 -54 0 -65 -44 -91 -106 -62 -48 23 -67 65 -66 143
1 75 21 111 70 125 38 11 78 -11 92 -50 12 -29 30 -23 30 10 0 29 -28 62 -64
76 -36 13 -44 12 -85 -8z"/>
<path d="M7427 4604 c-11 -11 -8 -303 3 -325 9 -17 22 -19 100 -19 90 0 112 8
85 30 -10 8 -32 10 -69 6 -42 -6 -57 -4 -70 9 -17 17 -22 90 -8 113 5 7 35 14
71 16 34 2 65 7 68 10 14 14 -12 21 -67 18 -68 -3 -83 12 -78 76 l3 37 75 5
c41 3 75 10 75 15 0 11 -177 20 -188 9z"/>
<path d="M6401 4586 c-10 -11 -10 -24 0 -54 7 -24 9 -69 5 -118 -3 -43 -6 -87
-6 -97 -2 -35 20 -47 82 -47 55 0 62 3 101 39 l42 40 0 75 c0 83 -14 112 -75
154 -39 26 -130 31 -149 8z m157 -60 c32 -36 48 -99 37 -138 -10 -34 -66 -88
-90 -88 -11 0 -31 7 -43 16 -20 14 -22 23 -22 123 0 59 3 111 7 114 3 4 23 7
44 7 30 0 43 -7 67 -34z"/>
<path d="M6905 2773 c-81 -49 -95 -59 -95 -66 0 -4 -9 -20 -20 -35 -10 -15
-25 -48 -31 -74 -17 -62 3 -148 43 -188 15 -16 28 -32 28 -37 0 -4 27 -21 60
-37 53 -26 66 -28 129 -23 73 6 110 24 157 77 28 31 64 126 64 168 0 65 -62
162 -132 206 -41 27 -165 32 -203 9z m222 -49 c60 -48 87 -105 85 -182 0 -40
-6 -70 -15 -80 -8 -10 -22 -32 -31 -49 -9 -18 -23 -33 -30 -33 -8 0 -16 -6
-19 -13 -11 -29 -176 -52 -192 -27 -3 6 -15 10 -26 10 -11 0 -22 7 -25 15 -3
8 -14 17 -23 20 -22 7 -67 87 -76 136 -13 72 28 161 100 211 37 27 46 28 127
26 79 -3 89 -5 125 -34z"/>
<path d="M4148 2756 c-60 -21 -84 -42 -107 -89 -26 -54 -30 -182 -6 -228 44
-84 80 -102 205 -101 111 1 137 9 180 53 35 37 40 54 43 132 3 73 -17 80 -21
7 -4 -70 -28 -119 -72 -145 -49 -28 -222 -29 -264 -2 -90 59 -87 270 5 326 19
12 61 23 101 27 67 6 84 16 52 28 -25 10 -76 6 -116 -8z"/>
<path d="M9555 2750 c-7 -12 2 -30 16 -30 5 0 9 9 9 20 0 21 -15 27 -25 10z"/>
<path d="M9680 2740 c0 -5 23 -10 51 -10 27 0 72 -7 99 -16 42 -14 52 -22 71
-60 33 -69 36 -149 8 -213 -32 -76 -71 -91 -230 -91 -88 0 -119 -3 -119 -12 0
-10 31 -12 132 -10 154 4 200 20 230 82 26 54 33 166 13 224 -21 61 -40 82
-94 101 -49 17 -161 20 -161 5z"/>
<path d="M4405 2721 c-3 -5 -1 -12 5 -16 12 -7 30 2 30 16 0 12 -27 12 -35 0z"/>
<path d="M510 24205 l0 -675 -45 0 -45 0 0 -495 0 -495 45 0 45 0 0 -460 0
-460 -35 0 -35 0 0 -1000 0 -1000 35 0 35 0 0 -270 0 -270 -35 0 -35 0 0
-1000 0 -1000 35 0 35 0 0 -6525 c0 -4343 3 -6525 10 -6525 7 0 10 3482 10
10425 0 6943 -3 10425 -10 10425 -7 0 -10 -232 -10 -675z m-5 -705 c4 -6 -7
-10 -24 -10 -26 0 -31 -4 -31 -24 0 -31 10 -57 20 -51 4 2 15 -4 24 -14 15
-16 16 -55 14 -376 -3 -346 -4 -358 -23 -369 -27 -15 -35 -27 -35 -53 0 -19 5
-23 32 -23 23 0 29 -3 21 -11 -6 -6 -23 -9 -39 -7 l-29 3 -3 460 c-1 253 0
466 3 473 5 14 61 16 70 2z m-14 -2000 c19 -10 19 -29 19 -885 0 -868 0 -875
-20 -875 -17 0 -20 -7 -20 -40 0 -33 3 -40 20 -40 11 0 20 -5 20 -11 0 -6 -12
-9 -27 -7 l-28 3 -3 965 c-1 531 1 972 5 980 5 9 9 -4 11 -32 2 -35 8 -51 23
-58z m0 -2540 c19 -10 19 -29 19 -885 0 -868 0 -875 -20 -875 -17 0 -20 -7
-20 -40 0 -33 3 -40 20 -40 11 0 20 -5 20 -11 0 -6 -12 -9 -27 -7 l-28 3 -3
965 c-1 531 1 972 5 980 5 9 9 -4 11 -32 2 -35 8 -51 23 -58z"/>
<path d="M13450 14460 c0 -6940 3 -10420 10 -10420 7 0 10 2297 10 6870 l0
6870 33 0 c18 0 38 5 45 12 17 17 17 3119 0 3136 -7 7 -27 12 -45 12 l-33 0 0
1970 c0 1307 -3 1970 -10 1970 -7 0 -10 -3480 -10 -10420z m85 4900 l0 -1545
-29 0 c-16 0 -31 6 -33 13 -3 7 5 12 21 12 24 0 26 3 26 46 0 26 -11 78 -25
116 l-25 69 0 1277 c1 1274 1 1277 22 1332 11 30 23 88 25 128 5 72 5 72 -21
72 -25 0 -33 10 -19 24 4 4 19 6 33 4 l25 -3 0 -1545z"/>
<path d="M510 3688 c0 -186 14 -461 30 -623 34 -321 95 -546 215 -786 196
-391 473 -668 864 -864 299 -149 557 -206 1061 -235 230 -13 450 -13 450 0 0
6 -40 10 -97 11 -54 1 -111 3 -128 4 -16 2 -105 6 -197 9 -326 11 -614 55
-823 124 -140 46 -394 174 -508 256 -257 184 -443 399 -586 676 -117 228 -171
402 -210 675 -28 195 -50 562 -51 823 0 61 -4 102 -10 102 -6 0 -10 -64 -10
-172z"/>
<path d="M13450 3763 c0 -230 -23 -615 -46 -793 -36 -280 -88 -453 -204 -685
-194 -387 -458 -651 -845 -845 -335 -168 -597 -219 -1245 -244 -74 -3 -1860
-6 -3967 -6 -2549 0 -3833 -3 -3833 -10 0 -14 7748 -13 7990 0 504 29 762 86
1061 235 311 156 546 360 730 634 200 297 306 606 349 1016 27 267 41 795 20
795 -6 0 -10 -39 -10 -97z"/>
</g>
</svg>
