<svg width="395" height="396" viewBox="0 0 395 396" fill="none" xmlns="http://www.w3.org/2000/svg">
<mask id="mask0" mask-type="alpha" maskUnits="userSpaceOnUse" x="0" y="0" width="395" height="396">
<rect x="0.212891" y="0.823608" width="394.14" height="394.371" rx="12" fill="#F1F5FF"/>
</mask>
<g mask="url(#mask0)">
<rect x="0.212891" y="0.823608" width="394.14" height="394.371" rx="12" fill="#F1F5FF"/>
<rect x="262.562" y="95.8028" width="316.223" height="245.149" transform="rotate(30 262.562 95.8028)" fill="#E9EFFF"/>
</g>
<circle cx="197.283" cy="198.009" r="124.065" fill="white"/>
<path d="M197.357 198.11L197.209 197.962L197.337 197.908C197.337 197.908 197.342 197.977 197.357 198.11Z" fill="#044186"/>
<path d="M197.31 198.305C197.287 198.044 197.269 197.846 197.256 197.713C197.269 197.846 197.287 198.044 197.31 198.305Z" fill="#E3E3E3"/>
<path d="M197.357 198.11L197.21 197.964C197.253 197.945 197.294 197.927 197.337 197.908C197.337 197.908 197.342 197.977 197.357 198.11Z" fill="#044186"/>
<path d="M197.357 198.11L197.209 197.962L197.337 197.908C197.337 197.908 197.342 197.977 197.357 198.11Z" fill="#044186"/>
<path d="M197.31 198.305C197.287 198.044 197.269 197.846 197.256 197.713C197.269 197.846 197.287 198.044 197.31 198.305Z" fill="#E3E3E3"/>
<path d="M197.357 198.11L197.21 197.964C197.253 197.945 197.294 197.927 197.337 197.908C197.337 197.908 197.342 197.977 197.357 198.11Z" fill="#044186"/>
<mask id="mask1" mask-type="alpha" maskUnits="userSpaceOnUse" x="73" y="73" width="249" height="250">
<circle cx="197.283" cy="198.009" r="124.065" fill="white"/>
</mask>
<g mask="url(#mask1)">
<path d="M365.8 214.243L221.414 124.844L215.83 126.705L191.587 199.005H232.662L198.77 272.18L276.998 322.074L365.8 214.243Z" fill="#F5F5F5"/>
<path d="M198.172 208.629C199.112 208.629 199.832 209.463 199.695 210.392L191.318 267.352C191.236 267.909 191.2 268.474 191.251 269.035C191.527 272.052 193.664 274.506 196.779 274.506C199.07 274.506 200.878 272.967 201.994 270.992L240.428 195.442C243.052 189.543 238.381 182.976 231.954 182.878L205.568 182.351C204.51 182.33 203.789 181.273 204.154 180.281L222.958 129.173C223.938 125.284 220.998 121.512 216.988 121.512H179.867C176.75 121.512 174.404 123.974 173.754 126.935L153.739 197.05C152.203 202.905 155.934 208.629 162.399 208.629H198.172Z" fill="#20C945"/>
<path d="M179.864 121.512H189.099C185.984 121.512 183.638 123.974 182.989 126.936L162.973 197.051C161.437 202.903 165.168 208.629 171.633 208.629H162.398C155.933 208.629 152.202 202.903 153.738 197.051L173.754 126.936C174.403 123.974 176.749 121.512 179.864 121.512V121.512Z" fill="#1EB740"/>
<path d="M208.93 210.393L199.585 272.222C199.511 272.715 199.474 273.21 199.504 273.709C198.701 274.208 197.784 274.506 196.777 274.506C193.665 274.506 191.525 272.053 191.251 269.036C191.199 268.476 191.236 267.909 191.316 267.352L199.695 210.393C199.831 209.463 199.11 208.629 198.172 208.629H207.407C208.346 208.629 209.066 209.463 208.93 210.393Z" fill="#1EB740"/>
</g>
</svg>
