<svg width="760" height="631" viewBox="0 0 760 631" fill="none" xmlns="http://www.w3.org/2000/svg">
<path opacity="0.03" d="M1241.11 -83.863C1241.11 106.449 1185.11 277.234 1096.4 399.53C1007.66 521.866 888.246 593.481 759.958 593.481C631.671 593.481 512.255 521.866 423.517 399.53C334.809 277.234 278.802 106.449 278.802 -83.863C278.802 -274.175 334.809 -444.96 423.517 -567.256C512.255 -689.592 631.671 -761.207 759.958 -761.207C888.246 -761.207 1007.66 -689.592 1096.4 -567.256C1185.11 -444.96 1241.11 -274.175 1241.11 -83.863Z" stroke="#206FC9" stroke-width="74"/>
<path opacity="0.03" d="M1392.55 -122.938C1392.55 10.7975 1320.38 134.689 1198.12 226.412C1075.85 318.143 905.236 375.974 715.209 375.974C525.183 375.974 354.569 318.143 232.296 226.412C110.034 134.689 37.8655 10.7975 37.8655 -122.938C37.8655 -256.673 110.034 -380.565 232.296 -472.288C354.569 -564.019 525.183 -621.849 715.209 -621.849C905.236 -621.849 1075.85 -564.019 1198.12 -472.288C1320.38 -380.565 1392.55 -256.673 1392.55 -122.938Z" stroke="#206FC9" stroke-width="74"/>
</svg>
