<svg width="32" height="32" viewBox="0 0 32 32" fill="none" xmlns="http://www.w3.org/2000/svg">
<circle cx="15.5675" cy="15.568" r="12.9733" fill="#C13584"/>
<path d="M15.5677 9.18644C17.6461 9.18644 17.8923 9.19438 18.713 9.23183C19.472 9.26644 19.8841 9.39325 20.1584 9.49985C20.5217 9.64105 20.781 9.80973 21.0534 10.0821C21.3258 10.3545 21.4945 10.6138 21.6357 10.9771C21.7423 11.2514 21.8691 11.6636 21.9037 12.4225C21.9412 13.2433 21.9491 13.4895 21.9491 15.5679C21.9491 17.6463 21.9412 17.8925 21.9037 18.7132C21.8691 19.4722 21.7423 19.8843 21.6357 20.1586C21.4945 20.5219 21.3258 20.7812 21.0534 21.0536C20.781 21.326 20.5217 21.4947 20.1584 21.6359C19.8841 21.7425 19.472 21.8693 18.713 21.9039C17.8924 21.9414 17.6462 21.9493 15.5677 21.9493C13.4891 21.9493 13.243 21.9414 12.4223 21.9039C11.6633 21.8693 11.2512 21.7425 10.9769 21.6359C10.6136 21.4947 10.3543 21.326 10.0819 21.0536C9.80952 20.7812 9.64081 20.5219 9.49961 20.1586C9.39301 19.8843 9.2662 19.4722 9.23159 18.7132C9.19415 17.8925 9.1862 17.6463 9.1862 15.5679C9.1862 13.4895 9.19415 13.2433 9.23159 12.4225C9.2662 11.6636 9.39301 11.2514 9.49961 10.9771C9.64081 10.6138 9.80949 10.3545 10.0819 10.0821C10.3543 9.80973 10.6136 9.64105 10.9769 9.49985C11.2512 9.39325 11.6633 9.26644 12.4223 9.23183C13.2431 9.19438 13.4892 9.18644 15.5677 9.18644ZM15.5677 7.78394C13.4537 7.78394 13.1886 7.7929 12.3583 7.83078C11.5298 7.86857 10.964 8.00016 10.4689 8.19257C9.957 8.39149 9.5229 8.65765 9.09014 9.09038C8.65741 9.52314 8.39125 9.95723 8.19235 10.4691C7.99992 10.9642 7.86832 11.5301 7.83053 12.3586C7.79265 13.1888 7.78369 13.4539 7.78369 15.5679C7.78369 17.6819 7.79265 17.9469 7.83053 18.7772C7.86832 19.6057 7.99992 20.1715 8.19235 20.6666C8.39125 21.1785 8.65741 21.6126 9.09014 22.0454C9.5229 22.4781 9.957 22.7442 10.4689 22.9431C10.964 23.1356 11.5298 23.2672 12.3583 23.305C13.1886 23.3428 13.4537 23.3518 15.5677 23.3518C17.6816 23.3518 17.9467 23.3428 18.777 23.305C19.6055 23.2672 20.1713 23.1356 20.6664 22.9431C21.1783 22.7442 21.6124 22.4781 22.0452 22.0454C22.4779 21.6126 22.7441 21.1785 22.943 20.6666C23.1354 20.1715 23.267 19.6057 23.3048 18.7772C23.3426 17.9469 23.3516 17.6819 23.3516 15.5679C23.3516 13.4539 23.3426 13.1888 23.3048 12.3586C23.267 11.5301 23.1354 10.9642 22.943 10.4691C22.7441 9.95723 22.4779 9.52314 22.0452 9.09038C21.6124 8.65765 21.1783 8.39149 20.6664 8.19257C20.1713 8.00016 19.6055 7.86857 18.777 7.83078C17.9467 7.7929 17.6816 7.78394 15.5677 7.78394Z" fill="white"/>
<path d="M15.5694 11.5745C13.3618 11.5745 11.5723 13.364 11.5723 15.5716C11.5723 17.7792 13.3618 19.5688 15.5694 19.5688C17.777 19.5688 19.5666 17.7792 19.5666 15.5716C19.5666 13.364 17.777 11.5745 15.5694 11.5745ZM15.5694 18.1663C14.1364 18.1663 12.9748 17.0046 12.9748 15.5716C12.9748 14.1386 14.1364 12.977 15.5694 12.977C17.0024 12.977 18.1641 14.1386 18.1641 15.5716C18.1641 17.0046 17.0024 18.1663 15.5694 18.1663Z" fill="white"/>
<path d="M20.6616 11.4141C20.6616 11.9299 20.2434 12.3481 19.7275 12.3481C19.2117 12.3481 18.7935 11.9299 18.7935 11.4141C18.7935 10.8982 19.2117 10.48 19.7275 10.48C20.2434 10.48 20.6616 10.8982 20.6616 11.4141Z" fill="white"/>
</svg>
