<svg width="32" height="32" viewBox="0 0 32 32" fill="none" xmlns="http://www.w3.org/2000/svg">
<ellipse cx="15.6818" cy="15.568" rx="12.9733" ry="12.9733" fill="#0077B5"/>
<path fill-rule="evenodd" clip-rule="evenodd" d="M12.2935 9.26541C12.2935 10.0731 11.6785 10.7267 10.7169 10.7267C9.79264 10.7267 9.17769 10.0731 9.19672 9.26541C9.17769 8.41851 9.79263 7.78394 10.7353 7.78394C11.6785 7.78394 12.2751 8.41851 12.2935 9.26541ZM9.27404 21.2885V11.881H12.1977V21.2879H9.27404V21.2885Z" fill="white"/>
<path fill-rule="evenodd" clip-rule="evenodd" d="M14.5436 14.8833C14.5436 13.7099 14.505 12.7095 14.4663 11.8823H17.0058L17.1408 13.1711H17.1985C17.5833 12.5745 18.545 11.6711 20.1032 11.6711C22.0265 11.6711 23.4694 12.9409 23.4694 15.71V21.2897H20.5457V16.0763C20.5457 14.8637 20.1228 14.037 19.0648 14.037C18.2565 14.037 17.776 14.5948 17.5839 15.1331C17.5066 15.3258 17.4685 15.5946 17.4685 15.8646V21.2897H14.5448V14.8833H14.5436Z" fill="white"/>
</svg>
