<svg width="13" height="16" viewBox="0 0 13 16" fill="none" xmlns="http://www.w3.org/2000/svg">
<path d="M11.9909 13.1993L11.0574 4.33839C11.0344 4.12061 10.8553 3.95537 10.6418 3.95537H9.09907V3.66826C9.09917 2.19704 7.9332 1 6.50005 1C5.06701 1 3.90104 2.19704 3.90104 3.66826V3.95537H2.35823C2.14474 3.95537 1.96559 4.1205 1.94259 4.33839L1.00915 13.1993C0.960876 13.6576 1.10518 14.1171 1.40513 14.4602C1.70507 14.8033 2.13465 15 2.58369 15H10.4162C10.8652 15 11.2948 14.8033 11.5949 14.4602C11.8948 14.1171 12.0391 13.6575 11.9909 13.1993ZM4.7371 3.66826C4.7371 2.67032 5.52801 1.85834 6.50005 1.85834C7.4722 1.85834 8.263 2.67032 8.263 3.66826V3.95537H4.7371V3.66826ZM10.9726 13.8868C10.8289 14.0511 10.6314 14.1417 10.4163 14.1417H2.58369C2.36864 14.1417 2.17107 14.0511 2.02728 13.8868C1.88371 13.7224 1.81723 13.511 1.84043 13.2915L2.7335 4.81381H3.90104V5.90746C3.90104 6.14447 4.0882 6.33662 4.31907 6.33662C4.54993 6.33662 4.7371 6.14447 4.7371 5.90746V4.81381H8.263V5.90746C8.263 6.14447 8.45017 6.33662 8.68104 6.33662C8.912 6.33662 9.09917 6.14447 9.09917 5.90746V4.81381H10.2665L11.1596 13.2915C11.1827 13.511 11.1163 13.7224 10.9726 13.8868Z" fill="#FFB72A" stroke="#E1BA60"/>
</svg>
