<svg width="32" height="32" viewBox="0 0 32 32" fill="none" xmlns="http://www.w3.org/2000/svg">
<ellipse cx="16.1896" cy="15.568" rx="12.9733" ry="12.9733" fill="#1DA1F2"/>
<path fill-rule="evenodd" clip-rule="evenodd" d="M23.9737 10.5788C23.4013 10.8331 22.7854 11.0043 22.1394 11.0816C22.7989 10.6862 23.3053 10.0605 23.5435 9.3148C22.9271 9.68114 22.2426 9.9463 21.5157 10.09C20.933 9.46943 20.1022 9.0813 19.1843 9.0813C17.4205 9.0813 15.9905 10.5114 15.9905 12.2751C15.9905 12.5252 16.019 12.7691 16.0735 13.0031C13.4188 12.8703 11.0656 11.5985 9.49025 9.66609C9.21524 10.1378 9.05801 10.6862 9.05801 11.2716C9.05801 12.3794 9.62102 13.357 10.4788 13.9299C9.95467 13.9133 9.46275 13.7695 9.03155 13.5303V13.5703C9.03155 15.1181 10.1332 16.4086 11.5933 16.7028C11.3256 16.7755 11.0433 16.8149 10.7522 16.8149C10.5462 16.8149 10.3459 16.7947 10.1508 16.7573C10.5571 18.026 11.7371 18.9497 13.1345 18.9756C12.0417 19.8318 10.6645 20.3429 9.16802 20.3429C8.90961 20.3429 8.65535 20.3279 8.40576 20.2978C9.81923 21.2037 11.4979 21.733 13.3015 21.733C19.176 21.733 22.3885 16.8663 22.3885 12.6461C22.3885 12.5076 22.3859 12.3695 22.3791 12.2331C23.0039 11.7816 23.5456 11.2192 23.9737 10.5788Z" fill="white"/>
</svg>
