<svg width="15" height="14" viewBox="0 0 15 14" fill="none" xmlns="http://www.w3.org/2000/svg">
<path d="M11.6297 2.67539L5.88021 1.10603L6.18469 0.490596C6.3839 0.0905628 6.86977 -0.074633 7.2698 0.124574L12.4168 2.67539H11.6297Z" fill="#E1BA60"/>
<path d="M4.09547 1.15124C4.16671 1.15124 4.23799 1.16096 4.30925 1.1804L9.78501 2.67526H3.06218L3.31484 1.74886C3.41201 1.3877 3.73916 1.15124 4.09547 1.15124Z" fill="#E1BA60"/>
<path d="M2.21838 3.2421H14.1886C14.4445 3.2421 14.6728 3.36033 14.8218 3.54658C14.8899 3.63242 14.9417 3.73121 14.9708 3.83972C14.9887 3.90774 15 3.97901 15 4.05189V13.0745C15 13.5215 14.6372 13.8843 14.1902 13.8843H2.22C1.77298 13.8843 1.41021 13.5215 1.41021 13.0745V10.8152H6.21547C6.97505 10.8152 7.5921 10.1981 7.5921 9.43856V7.63761C7.5921 7.26511 7.44312 6.92663 7.20179 6.67884C6.988 6.45856 6.70134 6.30956 6.38066 6.27231C6.32722 6.26585 6.27215 6.26259 6.21709 6.26259H1.41021V4.05189C1.40859 3.60489 1.77138 3.2421 2.21838 3.2421Z" fill="#E1BA60"/>
<path d="M0.841717 7.03677C0.922695 6.96227 1.01825 6.90558 1.12514 6.86833C1.20776 6.84082 1.2952 6.82462 1.38751 6.82462H6.21544C6.66246 6.82462 7.02522 7.18739 7.02522 7.6344V9.43697C7.02522 9.88397 6.66246 10.2468 6.21544 10.2468H1.38751C1.2952 10.2468 1.20774 10.2306 1.12514 10.203C1.01825 10.1674 0.922695 10.1091 0.841717 10.0346C0.67976 9.88721 0.577727 9.67342 0.577727 9.43698V7.6344C0.577727 7.39793 0.67976 7.18413 0.841717 7.03677ZM4.52461 8.69682C4.52461 8.92032 4.706 9.10172 4.9295 9.10172H5.19835C5.42185 9.10172 5.60324 8.92032 5.60324 8.69682V8.42798C5.60324 8.29841 5.54332 8.18341 5.44777 8.11053C5.37812 8.05708 5.29227 8.02309 5.19835 8.02309H4.9295C4.706 8.02309 4.52461 8.20446 4.52461 8.42798V8.69682Z" fill="#E1BA60"/>
</svg>
