<svg width="15" height="11" viewBox="0 0 15 11" fill="none" xmlns="http://www.w3.org/2000/svg">
<path d="M0.0545263 3.15152V2.36375C0.0545263 1.46137 0.786387 0.729858 1.68919 0.729858H13.3653C14.2681 0.729858 15 1.46137 15 2.36375V3.15152C15 3.23208 14.9346 3.2974 14.854 3.2974H0.200479C0.119884 3.2974 0.0545263 3.23208 0.0545263 3.15152Z" fill="#E1BA60"/>
<path d="M15 4.37686V9.36607C15 10.2684 14.2681 11 13.3653 11H1.68917C0.786375 11 0.0545139 10.2684 0.0545139 9.36607V4.37686C0.0545139 4.29631 0.119871 4.23098 0.200466 4.23098H14.854C14.9346 4.23098 15 4.29631 15 4.37686ZM11.2636 8.199C11.2636 8.45681 11.4727 8.66583 11.7307 8.66583H12.1977C12.4556 8.66583 12.6648 8.45681 12.6648 8.199V7.73218C12.6648 7.47437 12.4556 7.26535 12.1977 7.26535H11.7307C11.4727 7.26535 11.2636 7.47437 11.2636 7.73218V8.199Z" fill="#E1BA60"/>
</svg>
